BioRhyme-SemiBold.ufo
<glyph name="exclam" format="1">
  <advance width="246"/>
  <unicode hex="0021"/>
  <outline>
    <contour>
      <point x="144" y="149" type="line"/>
      <point x="154" y="262" type="line" smooth="yes"/>
      <point x="164" y="377"/>
      <point x="195" y="461"/>
      <point x="195" y="502" type="curve"/>
      <point x="195" y="538"/>
      <point x="176" y="572"/>
      <point x="123" y="572" type="curve"/>
      <point x="71" y="572"/>
      <point x="52" y="538"/>
      <point x="52" y="502" type="curve"/>
      <point x="52" y="461"/>
      <point x="78" y="376"/>
      <point x="94" y="262" type="curve" smooth="yes"/>
      <point x="104" y="149" type="line"/>
    </contour>
    <contour>
      <point x="83" y="109"/>
      <point x="50" y="84"/>
      <point x="50" y="48" type="curve"/>
      <point x="50" y="15"/>
      <point x="83" y="-10"/>
      <point x="123" y="-10" type="curve"/>
      <point x="166" y="-10"/>
      <point x="196" y="15"/>
      <point x="196" y="48" type="curve"/>
      <point x="196" y="84"/>
      <point x="166" y="109"/>
      <point x="123" y="109" type="curve"/>
    </contour>
  </outline>
</glyph>
<glyph name="quotedbl" format="1">
  <advance width="307"/>
  <unicode hex="0022"/>
  <outline>
    <contour>
      <point x="30" y="355" type="line"/>
      <point x="92" y="350" type="line"/>
      <point x="140" y="546" type="line"/>
      <point x="38" y="558" type="line"/>
    </contour>
    <contour>
      <point x="182" y="354" type="line"/>
      <point x="244" y="349" type="line"/>
      <point x="292" y="545" type="line"/>
      <point x="190" y="558" type="line"/>
    </contour>
  </outline>
</glyph>
<glyph name="numbersign" format="1">
  <advance width="608"/>
  <unicode hex="0023"/>
  <outline>
    <contour>
      <point x="537" y="490" type="line"/>
      <point x="452" y="490" type="line"/>
      <point x="274" y="0" type="line"/>
      <point x="358" y="0" type="line"/>
    </contour>
    <contour>
      <point x="333" y="490" type="line"/>
      <point x="248" y="490" type="line"/>
      <point x="70" y="0" type="line"/>
      <point x="154" y="0" type="line"/>
    </contour>
    <contour>
      <point x="54" y="295" type="line"/>
      <point x="603" y="295" type="line"/>
      <point x="603" y="370" type="line"/>
      <point x="54" y="370" type="line"/>
    </contour>
    <contour>
      <point x="5" y="117" type="line"/>
      <point x="554" y="117" type="line"/>
      <point x="554" y="192" type="line"/>
      <point x="5" y="192" type="line"/>
    </contour>
  </outline>
</glyph>
<glyph name="dollar" format="1">
  <advance width="565"/>
  <unicode hex="0024"/>
  <outline>
    <contour>
      <point x="450" y="-11"/>
      <point x="525" y="45"/>
      <point x="525" y="124" type="curve" smooth="yes"/>
      <point x="525" y="211"/>
      <point x="438" y="259"/>
      <point x="323" y="282" type="curve" smooth="yes"/>
      <point x="219" y="303"/>
      <point x="175" y="318"/>
      <point x="175" y="348" type="curve" smooth="yes"/>
      <point x="175" y="381"/>
      <point x="206" y="397"/>
      <point x="247" y="397" type="curve" smooth="yes"/>
      <point x="333" y="397"/>
      <point x="399" y="349"/>
      <point x="439" y="287" type="curve"/>
      <point x="499" y="291" type="line"/>
      <point x="499" y="470" type="line"/>
      <point x="405" y="470" type="line"/>
      <point x="405" y="352" type="line"/>
      <point x="457" y="348" type="line"/>
      <point x="402" y="425"/>
      <point x="335" y="480"/>
      <point x="232" y="480" type="curve" smooth="yes"/>
      <point x="136" y="480"/>
      <point x="66" y="422"/>
      <point x="66" y="342" type="curve" smooth="yes"/>
      <point x="66" y="273"/>
      <point x="119" y="212"/>
      <point x="240" y="188" type="curve" smooth="yes"/>
      <point x="366" y="163"/>
      <point x="416" y="146"/>
      <point x="416" y="114" type="curve" smooth="yes"/>
      <point x="416" y="80"/>
      <point x="374" y="71"/>
      <point x="352" y="71" type="curve" smooth="yes"/>
      <point x="272" y="71"/>
      <point x="185" y="116"/>
      <point x="128" y="188" type="curve"/>
      <point x="65" y="184" type="line"/>
      <point x="65" y="0" type="line"/>
      <point x="159" y="0" type="line"/>
      <point x="159" y="117" type="line"/>
      <point x="101" y="123" type="line"/>
      <point x="169" y="49"/>
      <point x="242" y="-11"/>
      <point x="352" y="-11" type="curve" smooth="yes"/>
    </contour>
    <contour>
      <point x="337" y="-111" type="line"/>
      <point x="337" y="44" type="line"/>
      <point x="332" y="57" type="line"/>
      <point x="332" y="424" type="line"/>
      <point x="337" y="437" type="line"/>
      <point x="337" y="575" type="line"/>
      <point x="254" y="575" type="line"/>
      <point x="254" y="437" type="line"/>
      <point x="259" y="424" type="line"/>
      <point x="259" y="57" type="line"/>
      <point x="254" y="44" type="line"/>
      <point x="254" y="-111" type="line"/>
    </contour>
  </outline>
</glyph>
<glyph name="percent" format="1">
  <advance width="678"/>
  <unicode hex="0025"/>
  <outline>
    <contour>
      <point x="603" y="456" type="line"/>
      <point x="552" y="506" type="line"/>
      <point x="73" y="18" type="line"/>
      <point x="124" y="-32" type="line"/>
    </contour>
    <contour>
      <point x="239" y="240"/>
      <point x="301" y="292"/>
      <point x="301" y="366" type="curve" smooth="yes"/>
      <point x="301" y="443"/>
      <point x="239" y="491"/>
      <point x="166" y="491" type="curve" smooth="yes"/>
      <point x="97" y="491"/>
      <point x="30" y="443"/>
      <point x="30" y="366" type="curve" smooth="yes"/>
      <point x="30" y="292"/>
      <point x="97" y="240"/>
      <point x="166" y="240" type="curve" smooth="yes"/>
    </contour>
    <contour>
      <point x="138" y="313"/>
      <point x="111" y="335"/>
      <point x="111" y="366" type="curve" smooth="yes"/>
      <point x="111" y="398"/>
      <point x="138" y="418"/>
      <point x="166" y="418" type="curve" smooth="yes"/>
      <point x="195" y="418"/>
      <point x="220" y="398"/>
      <point x="220" y="366" type="curve" smooth="yes"/>
      <point x="220" y="335"/>
      <point x="195" y="313"/>
      <point x="166" y="313" type="curve" smooth="yes"/>
    </contour>
    <contour>
      <point x="581" y="-17"/>
      <point x="648" y="31"/>
      <point x="648" y="108" type="curve" smooth="yes"/>
      <point x="648" y="182"/>
      <point x="581" y="234"/>
      <point x="512" y="234" type="curve" smooth="yes"/>
      <point x="439" y="234"/>
      <point x="377" y="182"/>
      <point x="377" y="108" type="curve" smooth="yes"/>
      <point x="377" y="31"/>
      <point x="439" y="-17"/>
      <point x="512" y="-17" type="curve" smooth="yes"/>
    </contour>
    <contour>
      <point x="483" y="56"/>
      <point x="458" y="76"/>
      <point x="458" y="108" type="curve" smooth="yes"/>
      <point x="458" y="139"/>
      <point x="483" y="161"/>
      <point x="512" y="161" type="curve" smooth="yes"/>
      <point x="540" y="161"/>
      <point x="567" y="139"/>
      <point x="567" y="108" type="curve" smooth="yes"/>
      <point x="567" y="76"/>
      <point x="540" y="56"/>
      <point x="512" y="56" type="curve" smooth="yes"/>
    </contour>
  </outline>
</glyph>
<glyph name="ampersand" format="1">
  <advance width="602"/>
  <unicode hex="0026"/>
  <outline>
    <contour>
      <point x="743" y="-189"/>
      <point x="805" y="-163"/>
      <point x="852" y="-132" type="curve"/>
      <point x="813" y="-48" type="line"/>
      <point x="769" y="-80"/>
      <point x="713" y="-96"/>
      <point x="657" y="-96" type="curve" smooth="yes"/>
      <point x="430" y="-96"/>
      <point x="297" y="151"/>
      <point x="297" y="357" type="curve" smooth="yes"/>
      <point x="297" y="412"/>
      <point x="317" y="445"/>
      <point x="349" y="445" type="curve" smooth="yes"/>
      <point x="371" y="445"/>
      <point x="388" y="432"/>
      <point x="388" y="411" type="curve" smooth="yes"/>
      <point x="388" y="374"/>
      <point x="341" y="332"/>
      <point x="246" y="314" type="curve" smooth="yes"/>
      <point x="101" y="287"/>
      <point x="20" y="231"/>
      <point x="20" y="141" type="curve" smooth="yes"/>
      <point x="20" y="46"/>
      <point x="118" y="-13"/>
      <point x="273" y="-12" type="curve" smooth="yes"/>
      <point x="479" y="-11"/>
      <point x="580" y="110"/>
      <point x="580" y="204" type="curve" smooth="yes"/>
      <point x="580" y="256"/>
      <point x="564" y="282"/>
      <point x="544" y="314" type="curve"/>
      <point x="456" y="275" type="line"/>
      <point x="472" y="253"/>
      <point x="480" y="234"/>
      <point x="480" y="205" type="curve" smooth="yes"/>
      <point x="480" y="124"/>
      <point x="387" y="71"/>
      <point x="273" y="71" type="curve" smooth="yes"/>
      <point x="183" y="71"/>
      <point x="125" y="95"/>
      <point x="125" y="143" type="curve" smooth="yes"/>
      <point x="125" y="193"/>
      <point x="173" y="218"/>
      <point x="268" y="236" type="curve" smooth="yes"/>
      <point x="401" y="261"/>
      <point x="489" y="329"/>
      <point x="489" y="412" type="curve" smooth="yes"/>
      <point x="489" y="476"/>
      <point x="438" y="528"/>
      <point x="352" y="528" type="curve" smooth="yes"/>
      <point x="257" y="528"/>
      <point x="192" y="452"/>
      <point x="192" y="356" type="curve" smooth="yes"/>
      <point x="192" y="108"/>
      <point x="361" y="-189"/>
      <point x="657" y="-189" type="curve" smooth="yes"/>
    </contour>
  </outline>
</glyph>
<glyph name="quotesingle" format="1">
  <advance width="171"/>
  <unicode hex="0027"/>
  <outline>
    <contour>
      <point x="30" y="360" type="line"/>
      <point x="91" y="349" type="line"/>
      <point x="156" y="540" type="line"/>
      <point x="56" y="562" type="line"/>
    </contour>
  </outline>
</glyph>
<glyph name="parenleft" format="1">
  <advance width="262"/>
  <unicode hex="0028"/>
  <outline>
    <contour>
      <point x="282" y="-55" type="line"/>
      <point x="234" y="-11"/>
      <point x="130" y="97"/>
      <point x="130" y="265" type="curve"/>
      <point x="130" y="433"/>
      <point x="224" y="530"/>
      <point x="282" y="584" type="curve"/>
      <point x="259" y="619" type="line"/>
      <point x="155" y="559"/>
      <point x="35" y="451"/>
      <point x="35" y="265" type="curve"/>
      <point x="35" y="79"/>
      <point x="165" y="-39"/>
      <point x="259" y="-89" type="curve"/>
    </contour>
  </outline>
</glyph>
<glyph name="parenright" format="1">
  <advance width="262"/>
  <unicode hex="0029"/>
  <outline>
    <contour>
      <point x="107" y="-29"/>
      <point x="227" y="79"/>
      <point x="227" y="265" type="curve"/>
      <point x="227" y="451"/>
      <point x="97" y="569"/>
      <point x="3" y="619" type="curve"/>
      <point x="-20" y="585" type="line"/>
      <point x="28" y="541"/>
      <point x="132" y="433"/>
      <point x="132" y="265" type="curve"/>
      <point x="132" y="97"/>
      <point x="38" y="0"/>
      <point x="-20" y="-54" type="curve"/>
      <point x="3" y="-89" type="line"/>
    </contour>
  </outline>
</glyph>
<glyph name="asterisk" format="1">
  <advance width="387"/>
  <unicode hex="002A"/>
  <outline>
    <contour>
      <point x="151" y="564"/>
      <point x="168" y="532"/>
      <point x="173" y="507" type="curve" smooth="yes"/>
      <point x="177" y="486" type="line"/>
      <point x="209" y="486" type="line"/>
      <point x="213" y="507" type="line" smooth="yes"/>
      <point x="217" y="531"/>
      <point x="237" y="564"/>
      <point x="237" y="584" type="curve" smooth="yes"/>
      <point x="237" y="602"/>
      <point x="224" y="623"/>
      <point x="194" y="624" type="curve"/>
      <point x="162" y="623"/>
      <point x="151" y="602"/>
      <point x="151" y="584" type="curve" smooth="yes"/>
    </contour>
    <contour>
      <point x="236" y="444" type="line"/>
      <point x="257" y="446" type="line" smooth="yes"/>
      <point x="282" y="447"/>
      <point x="318" y="438"/>
      <point x="338" y="443" type="curve" smooth="yes"/>
      <point x="355" y="447"/>
      <point x="372" y="465"/>
      <point x="365" y="495" type="curve"/>
      <point x="356" y="525"/>
      <point x="333" y="530"/>
      <point x="315" y="526" type="curve" smooth="yes"/>
      <point x="296" y="521"/>
      <point x="270" y="496"/>
      <point x="247" y="485" type="curve" smooth="yes"/>
      <point x="227" y="475" type="line"/>
    </contour>
    <contour>
      <point x="213" y="388" type="line" smooth="yes"/>
      <point x="223" y="366"/>
      <point x="228" y="329"/>
      <point x="240" y="312" type="curve" smooth="yes"/>
      <point x="250" y="298"/>
      <point x="274" y="290"/>
      <point x="299" y="308" type="curve"/>
      <point x="324" y="327"/>
      <point x="319" y="350"/>
      <point x="308" y="365" type="curve" smooth="yes"/>
      <point x="297" y="381"/>
      <point x="264" y="396"/>
      <point x="245" y="413" type="curve" smooth="yes"/>
      <point x="228" y="427" type="line"/>
      <point x="202" y="407" type="line"/>
    </contour>
    <contour>
      <point x="142" y="413" type="line" smooth="yes"/>
      <point x="123" y="396"/>
      <point x="90" y="381"/>
      <point x="78" y="365" type="curve" smooth="yes"/>
      <point x="67" y="350"/>
      <point x="63" y="327"/>
      <point x="88" y="308" type="curve"/>
      <point x="113" y="290"/>
      <point x="136" y="298"/>
      <point x="146" y="312" type="curve" smooth="yes"/>
      <point x="158" y="329"/>
      <point x="163" y="366"/>
      <point x="174" y="388" type="curve" smooth="yes"/>
      <point x="184" y="407" type="line"/>
      <point x="159" y="427" type="line"/>
    </contour>
    <contour>
      <point x="15" y="465"/>
      <point x="32" y="447"/>
      <point x="49" y="443" type="curve" smooth="yes"/>
      <point x="69" y="438"/>
      <point x="105" y="447"/>
      <point x="130" y="446" type="curve" smooth="yes"/>
      <point x="151" y="444" type="line"/>
      <point x="160" y="475" type="line"/>
      <point x="140" y="485" type="line" smooth="yes"/>
      <point x="117" y="496"/>
      <point x="91" y="521"/>
      <point x="72" y="526" type="curve" smooth="yes"/>
      <point x="54" y="530"/>
      <point x="31" y="525"/>
      <point x="22" y="495" type="curve"/>
    </contour>
  </outline>
</glyph>
<glyph name="plus" format="1">
  <advance width="444"/>
  <unicode hex="002B"/>
  <outline>
    <contour>
      <point x="264" y="43" type="line"/>
      <point x="264" y="427" type="line"/>
      <point x="179" y="427" type="line"/>
      <point x="179" y="43" type="line"/>
    </contour>
    <contour>
      <point x="404" y="194" type="line"/>
      <point x="404" y="277" type="line"/>
      <point x="40" y="277" type="line"/>
      <point x="40" y="194" type="line"/>
    </contour>
  </outline>
</glyph>
<glyph name="hyphen" format="1">
  <advance width="240"/>
  <unicode hex="002D"/>
  <outline>
    <contour>
      <point x="20" y="221" type="line"/>
      <point x="20" y="137" type="line"/>
      <point x="220" y="137" type="line"/>
      <point x="220" y="221" type="line"/>
    </contour>
  </outline>
</glyph>
<glyph name="period" format="1">
  <advance width="226"/>
  <unicode hex="002E"/>
  <outline>
    <contour>
      <point x="156" y="-10"/>
      <point x="186" y="15"/>
      <point x="186" y="48" type="curve"/>
      <point x="186" y="84"/>
      <point x="156" y="109"/>
      <point x="113" y="109" type="curve"/>
      <point x="73" y="109"/>
      <point x="40" y="84"/>
      <point x="40" y="48" type="curve"/>
      <point x="40" y="15"/>
      <point x="73" y="-10"/>
      <point x="113" y="-10" type="curve"/>
    </contour>
  </outline>
</glyph>
<glyph name="slash" format="1">
  <advance width="410"/>
  <unicode hex="002F"/>
  <outline>
    <contour>
      <point x="387" y="561" type="line"/>
      <point x="299" y="561" type="line"/>
      <point x="16" y="-79" type="line"/>
      <point x="104" y="-79" type="line"/>
    </contour>
  </outline>
</glyph>
<glyph name="zero" format="1">
  <advance width="566"/>
  <unicode hex="0030"/>
  <outline>
    <contour>
      <point x="408" y="-10"/>
      <point x="536" y="73"/>
      <point x="536" y="235" type="curve"/>
      <point x="536" y="397"/>
      <point x="408" y="480"/>
      <point x="283" y="480" type="curve" smooth="yes"/>
      <point x="158" y="480"/>
      <point x="30" y="397"/>
      <point x="30" y="235" type="curve"/>
      <point x="30" y="73"/>
      <point x="158" y="-10"/>
      <point x="283" y="-10" type="curve" smooth="yes"/>
    </contour>
    <contour>
      <point x="197" y="68"/>
      <point x="135" y="134"/>
      <point x="135" y="235" type="curve"/>
      <point x="135" y="336"/>
      <point x="197" y="402"/>
      <point x="283" y="402" type="curve" smooth="yes"/>
      <point x="370" y="402"/>
      <point x="431" y="336"/>
      <point x="431" y="235" type="curve"/>
      <point x="431" y="134"/>
      <point x="369" y="68"/>
      <point x="283" y="68" type="curve" smooth="yes"/>
    </contour>
    <contour>
      <point x="321" y="176"/>
      <point x="346" y="201"/>
      <point x="346" y="234" type="curve"/>
      <point x="346" y="270"/>
      <point x="321" y="295"/>
      <point x="283" y="295" type="curve"/>
      <point x="248" y="295"/>
      <point x="220" y="270"/>
      <point x="220" y="234" type="curve"/>
      <point x="220" y="201"/>
      <point x="248" y="176"/>
      <point x="283" y="176" type="curve"/>
    </contour>
  </outline>
</glyph>
<glyph name="one" format="1">
  <advance width="359"/>
  <unicode hex="0031"/>
  <outline>
    <contour>
      <point x="133" y="302"/>
      <point x="170" y="346"/>
      <point x="187" y="405" type="curve"/>
      <point x="160" y="470" type="line"/>
      <point x="145" y="416"/>
      <point x="95" y="381"/>
      <point x="35" y="371" type="curve"/>
      <point x="66" y="286" type="line"/>
    </contour>
    <contour>
      <point x="334" y="0" type="line"/>
      <point x="334" y="83" type="line"/>
      <point x="57" y="83" type="line"/>
      <point x="57" y="0" type="line"/>
    </contour>
    <contour>
      <point x="259" y="0" type="line"/>
      <point x="259" y="470" type="line"/>
      <point x="160" y="470" type="line"/>
      <point x="160" y="0" type="line"/>
    </contour>
  </outline>
</glyph>
<glyph name="two" format="1">
  <advance width="476"/>
  <unicode hex="0032"/>
  <outline>
    <contour>
      <point x="441" y="0" type="line"/>
      <point x="441" y="158" type="line"/>
      <point x="358" y="158" type="line"/>
      <point x="358" y="83" type="line"/>
      <point x="25" y="83" type="line"/>
      <point x="25" y="0" type="line"/>
    </contour>
    <contour>
      <point x="429" y="431"/>
      <point x="333" y="481"/>
      <point x="249" y="480" type="curve" smooth="yes"/>
      <point x="155" y="479"/>
      <point x="87" y="435"/>
      <point x="40" y="383" type="curve"/>
      <point x="91" y="322" type="line"/>
      <point x="143" y="370"/>
      <point x="188" y="397"/>
      <point x="243" y="397" type="curve" smooth="yes"/>
      <point x="290" y="397"/>
      <point x="327" y="371"/>
      <point x="327" y="337" type="curve" smooth="yes"/>
      <point x="327" y="305"/>
      <point x="301" y="290"/>
      <point x="209" y="256" type="curve" smooth="yes"/>
      <point x="94" y="213"/>
      <point x="25" y="160"/>
      <point x="25" y="72" type="curve"/>
      <point x="125" y="72" type="line"/>
      <point x="125" y="125"/>
      <point x="166" y="147"/>
      <point x="252" y="179" type="curve" smooth="yes"/>
      <point x="358" y="218"/>
      <point x="429" y="255"/>
      <point x="429" y="337" type="curve" smooth="yes"/>
    </contour>
  </outline>
</glyph>
<glyph name="three" format="1">
  <advance width="463"/>
  <unicode hex="0033"/>
  <outline>
    <contour>
      <point x="344" y="-6"/>
      <point x="433" y="47"/>
      <point x="433" y="122" type="curve" smooth="yes"/>
      <point x="433" y="212"/>
      <point x="345" y="247"/>
      <point x="188" y="247" type="curve"/>
      <point x="188" y="216" type="line"/>
      <point x="309" y="215"/>
      <point x="414" y="265"/>
      <point x="414" y="348" type="curve" smooth="yes"/>
      <point x="414" y="432"/>
      <point x="333" y="480"/>
      <point x="229" y="480" type="curve" smooth="yes"/>
      <point x="144" y="480"/>
      <point x="67" y="440"/>
      <point x="19" y="396" type="curve"/>
      <point x="68" y="330" type="line"/>
      <point x="114" y="368"/>
      <point x="165" y="397"/>
      <point x="224" y="397" type="curve" smooth="yes"/>
      <point x="277" y="397"/>
      <point x="310" y="372"/>
      <point x="310" y="338" type="curve" smooth="yes"/>
      <point x="310" y="297"/>
      <point x="265" y="270"/>
      <point x="168" y="270" type="curve" smooth="yes"/>
      <point x="104" y="270" type="line"/>
      <point x="104" y="195" type="line"/>
      <point x="168" y="195" type="line" smooth="yes"/>
      <point x="285" y="195"/>
      <point x="329" y="172"/>
      <point x="329" y="133" type="curve" smooth="yes"/>
      <point x="329" y="98"/>
      <point x="288" y="77"/>
      <point x="229" y="77" type="curve" smooth="yes"/>
      <point x="160" y="77"/>
      <point x="96" y="102"/>
      <point x="52" y="134" type="curve"/>
      <point x="15" y="61" type="line"/>
      <point x="57" y="32"/>
      <point x="123" y="-6"/>
      <point x="228" y="-6" type="curve" smooth="yes"/>
    </contour>
  </outline>
</glyph>
<glyph name="four" format="1">
  <advance width="493"/>
  <unicode hex="0034"/>
  <outline>
    <contour>
      <point x="390" y="480" type="line"/>
      <point x="291" y="480" type="line"/>
      <point x="15" y="178" type="line"/>
      <point x="110" y="169" type="line"/>
    </contour>
    <contour>
      <point x="483" y="95" type="line"/>
      <point x="483" y="178" type="line"/>
      <point x="15" y="178" type="line"/>
      <point x="15" y="95" type="line"/>
    </contour>
    <contour>
      <point x="291" y="-10" type="line"/>
      <point x="390" y="-10" type="line"/>
      <point x="390" y="480" type="line"/>
      <point x="291" y="480" type="line"/>
    </contour>
  </outline>
</glyph>
<glyph name="five" format="1">
  <advance width="472"/>
  <unicode hex="0035"/>
  <outline>
    <contour>
      <point x="60" y="386" type="line"/>
      <point x="424" y="386" type="line"/>
      <point x="424" y="469" type="line"/>
      <point x="60" y="469" type="line"/>
    </contour>
    <contour>
      <point x="442" y="247"/>
      <point x="347" y="293"/>
      <point x="252" y="296" type="curve" smooth="yes"/>
      <point x="189" y="298"/>
      <point x="118" y="281"/>
      <point x="60" y="259" type="curve"/>
      <point x="60" y="180" type="line"/>
      <point x="117" y="198"/>
      <point x="169" y="214"/>
      <point x="229" y="213" type="curve" smooth="yes"/>
      <point x="298" y="212"/>
      <point x="340" y="185"/>
      <point x="340" y="143" type="curve" smooth="yes"/>
      <point x="340" y="88"/>
      <point x="285" y="64"/>
      <point x="233" y="64" type="curve" smooth="yes"/>
      <point x="179" y="64"/>
      <point x="115" y="90"/>
      <point x="57" y="128" type="curve"/>
      <point x="25" y="45" type="line"/>
      <point x="72" y="18"/>
      <point x="136" y="-15"/>
      <point x="232" y="-20" type="curve" smooth="yes"/>
      <point x="349" y="-26"/>
      <point x="442" y="48"/>
      <point x="442" y="143" type="curve" smooth="yes"/>
    </contour>
    <contour>
      <point x="60" y="214" type="line"/>
      <point x="159" y="241" type="line"/>
      <point x="159" y="469" type="line"/>
      <point x="60" y="469" type="line"/>
    </contour>
  </outline>
</glyph>
<glyph name="six" format="1">
  <advance width="482"/>
  <unicode hex="0036"/>
  <outline>
    <contour>
      <point x="370" y="-20"/>
      <point x="457" y="51"/>
      <point x="457" y="144" type="curve" smooth="yes"/>
      <point x="457" y="249"/>
      <point x="368" y="299"/>
      <point x="274" y="299" type="curve" smooth="yes"/>
      <point x="201" y="299"/>
      <point x="151" y="279"/>
      <point x="88" y="240" type="curve"/>
      <point x="91" y="165" type="line"/>
      <point x="151" y="200"/>
      <point x="207" y="216"/>
      <point x="264" y="216" type="curve" smooth="yes"/>
      <point x="312" y="216"/>
      <point x="358" y="192"/>
      <point x="358" y="143" type="curve" smooth="yes"/>
      <point x="358" y="93"/>
      <point x="317" y="65"/>
      <point x="264" y="65" type="curve" smooth="yes"/>
      <point x="196" y="65"/>
      <point x="134" y="119"/>
      <point x="134" y="216" type="curve" smooth="yes"/>
      <point x="134" y="326"/>
      <point x="205" y="397"/>
      <point x="297" y="397" type="curve" smooth="yes"/>
      <point x="346" y="397"/>
      <point x="382" y="383"/>
      <point x="416" y="363" type="curve"/>
      <point x="447" y="440" type="line"/>
      <point x="412" y="461"/>
      <point x="363" y="480"/>
      <point x="292" y="480" type="curve" smooth="yes"/>
      <point x="135" y="480"/>
      <point x="35" y="366"/>
      <point x="35" y="216" type="curve" smooth="yes"/>
      <point x="35" y="67"/>
      <point x="127" y="-18"/>
      <point x="264" y="-19" type="curve" smooth="yes"/>
    </contour>
  </outline>
</glyph>
<glyph name="seven" format="1">
  <advance width="468"/>
  <unicode hex="0037"/>
  <outline>
    <contour>
      <point x="119" y="29" type="line"/>
      <point x="199" y="-11" type="line"/>
      <point x="453" y="384" type="line"/>
      <point x="352" y="390" type="line"/>
    </contour>
    <contour>
      <point x="30" y="467" type="line"/>
      <point x="30" y="279" type="line"/>
      <point x="113" y="279" type="line"/>
      <point x="113" y="384" type="line"/>
      <point x="453" y="384" type="line"/>
      <point x="453" y="467" type="line"/>
    </contour>
  </outline>
</glyph>
<glyph name="eight" format="1">
  <advance width="509"/>
  <unicode hex="0038"/>
  <outline>
    <contour>
      <point x="399" y="-10"/>
      <point x="474" y="61"/>
      <point x="474" y="133" type="curve" smooth="yes"/>
      <point x="474" y="198"/>
      <point x="412" y="247"/>
      <point x="261" y="278" type="curve" smooth="yes"/>
      <point x="203" y="290"/>
      <point x="154" y="300"/>
      <point x="154" y="339" type="curve" smooth="yes"/>
      <point x="154" y="379"/>
      <point x="206" y="398"/>
      <point x="253" y="398" type="curve" smooth="yes"/>
      <point x="320" y="398"/>
      <point x="367" y="369"/>
      <point x="367" y="325" type="curve" smooth="yes"/>
      <point x="367" y="281"/>
      <point x="317" y="247"/>
      <point x="277" y="220" type="curve"/>
      <point x="368" y="213" type="line"/>
      <point x="407" y="230"/>
      <point x="465" y="270"/>
      <point x="465" y="335" type="curve" smooth="yes"/>
      <point x="465" y="410"/>
      <point x="384" y="481"/>
      <point x="255" y="481" type="curve" smooth="yes"/>
      <point x="131" y="481"/>
      <point x="56" y="410"/>
      <point x="56" y="339" type="curve" smooth="yes"/>
      <point x="56" y="274"/>
      <point x="113" y="222"/>
      <point x="259" y="194" type="curve" smooth="yes"/>
      <point x="327" y="181"/>
      <point x="376" y="172"/>
      <point x="376" y="133" type="curve" smooth="yes"/>
      <point x="376" y="92"/>
      <point x="324" y="73"/>
      <point x="267" y="73" type="curve" smooth="yes"/>
      <point x="195" y="73"/>
      <point x="133" y="102"/>
      <point x="133" y="147" type="curve" smooth="yes"/>
      <point x="133" y="191"/>
      <point x="183" y="225"/>
      <point x="223" y="252" type="curve"/>
      <point x="132" y="259" type="line"/>
      <point x="93" y="242"/>
      <point x="35" y="202"/>
      <point x="35" y="137" type="curve" smooth="yes"/>
      <point x="35" y="61"/>
      <point x="111" y="-10"/>
      <point x="265" y="-10" type="curve" smooth="yes"/>
    </contour>
  </outline>
</glyph>
<glyph name="nine" format="1">
  <advance width="482"/>
  <unicode hex="0039"/>
  <outline>
    <contour>
      <point x="347" y="-22"/>
      <point x="447" y="97"/>
      <point x="447" y="247" type="curve" smooth="yes"/>
      <point x="447" y="396"/>
      <point x="355" y="481"/>
      <point x="218" y="482" type="curve" smooth="yes"/>
      <point x="112" y="483"/>
      <point x="25" y="412"/>
      <point x="25" y="319" type="curve" smooth="yes"/>
      <point x="25" y="214"/>
      <point x="114" y="164"/>
      <point x="208" y="164" type="curve" smooth="yes"/>
      <point x="281" y="164"/>
      <point x="331" y="184"/>
      <point x="394" y="223" type="curve"/>
      <point x="391" y="298" type="line"/>
      <point x="331" y="263"/>
      <point x="275" y="247"/>
      <point x="218" y="247" type="curve" smooth="yes"/>
      <point x="170" y="247"/>
      <point x="124" y="271"/>
      <point x="124" y="320" type="curve" smooth="yes"/>
      <point x="124" y="370"/>
      <point x="165" y="398"/>
      <point x="218" y="398" type="curve" smooth="yes"/>
      <point x="286" y="398"/>
      <point x="348" y="344"/>
      <point x="348" y="247" type="curve" smooth="yes"/>
      <point x="348" y="137"/>
      <point x="277" y="61"/>
      <point x="185" y="61" type="curve" smooth="yes"/>
      <point x="136" y="61"/>
      <point x="100" y="75"/>
      <point x="66" y="95" type="curve"/>
      <point x="35" y="18" type="line"/>
      <point x="70" y="-3"/>
      <point x="119" y="-22"/>
      <point x="190" y="-22" type="curve" smooth="yes"/>
    </contour>
  </outline>
</glyph>
<glyph name="colon" format="1">
  <advance width="226"/>
  <unicode hex="003A"/>
  <outline>
    <contour>
      <point x="156" y="246"/>
      <point x="186" y="271"/>
      <point x="186" y="304" type="curve"/>
      <point x="186" y="340"/>
      <point x="156" y="365"/>
      <point x="113" y="365" type="curve"/>
      <point x="73" y="365"/>
      <point x="40" y="340"/>
      <point x="40" y="304" type="curve"/>
      <point x="40" y="271"/>
      <point x="73" y="246"/>
      <point x="113" y="246" type="curve"/>
    </contour>
    <contour>
      <point x="156" y="-10"/>
      <point x="186" y="15"/>
      <point x="186" y="48" type="curve"/>
      <point x="186" y="84"/>
      <point x="156" y="109"/>
      <point x="113" y="109" type="curve"/>
      <point x="73" y="109"/>
      <point x="40" y="84"/>
      <point x="40" y="48" type="curve"/>
      <point x="40" y="15"/>
      <point x="73" y="-10"/>
      <point x="113" y="-10" type="curve"/>
    </contour>
  </outline>
</glyph>
<glyph name="semicolon" format="1">
  <advance width="241"/>
  <unicode hex="003B"/>
  <outline>
    <contour>
      <point x="151" y="-97"/>
      <point x="195" y="-41"/>
      <point x="195" y="12" type="curve" smooth="yes"/>
      <point x="195" y="63"/>
      <point x="165" y="92"/>
      <point x="118" y="92" type="curve" smooth="yes"/>
      <point x="79" y="92"/>
      <point x="48" y="72"/>
      <point x="48" y="40" type="curve" smooth="yes"/>
      <point x="48" y="11"/>
      <point x="74" y="-10"/>
      <point x="108" y="-10" type="curve" smooth="yes"/>
      <point x="121" y="-10"/>
      <point x="133" y="-8"/>
      <point x="141" y="-5" type="curve"/>
      <point x="140" y="-44"/>
      <point x="107" y="-81"/>
      <point x="67" y="-123" type="curve"/>
      <point x="92" y="-149" type="line"/>
    </contour>
    <contour>
      <point x="164" y="246"/>
      <point x="194" y="271"/>
      <point x="194" y="304" type="curve"/>
      <point x="194" y="340"/>
      <point x="164" y="365"/>
      <point x="121" y="365" type="curve"/>
      <point x="81" y="365"/>
      <point x="48" y="340"/>
      <point x="48" y="304" type="curve"/>
      <point x="48" y="271"/>
      <point x="81" y="246"/>
      <point x="121" y="246" type="curve"/>
    </contour>
  </outline>
</glyph>
<glyph name="less" format="1">
  <advance width="399"/>
  <unicode hex="003C"/>
  <outline>
    <contour>
      <point x="359" y="358" type="line"/>
      <point x="359" y="453" type="line"/>
      <point x="15" y="246" type="line"/>
      <point x="15" y="223" type="line"/>
      <point x="83" y="198" type="line"/>
    </contour>
    <contour>
      <point x="359" y="112" type="line"/>
      <point x="83" y="271" type="line"/>
      <point x="15" y="246" type="line"/>
      <point x="15" y="223" type="line"/>
      <point x="359" y="17" type="line"/>
    </contour>
  </outline>
</glyph>
<glyph name="equal" format="1">
  <advance width="467"/>
  <unicode hex="003D"/>
  <outline>
    <contour>
      <point x="50" y="347" type="line"/>
      <point x="50" y="264" type="line"/>
      <point x="417" y="264" type="line"/>
      <point x="417" y="347" type="line"/>
    </contour>
    <contour>
      <point x="50" y="206" type="line"/>
      <point x="50" y="123" type="line"/>
      <point x="417" y="123" type="line"/>
      <point x="417" y="206" type="line"/>
    </contour>
  </outline>
</glyph>
<glyph name="greater" format="1">
  <advance width="399"/>
  <unicode hex="003E"/>
  <outline>
    <contour>
      <point x="384" y="247" type="line"/>
      <point x="316" y="272" type="line"/>
      <point x="40" y="112" type="line"/>
      <point x="40" y="17" type="line"/>
      <point x="384" y="224" type="line"/>
    </contour>
    <contour>
      <point x="384" y="247" type="line"/>
      <point x="40" y="453" type="line"/>
      <point x="40" y="358" type="line"/>
      <point x="316" y="199" type="line"/>
      <point x="384" y="224" type="line"/>
    </contour>
  </outline>
</glyph>
<glyph name="question" format="1">
  <advance width="408"/>
  <unicode hex="003F"/>
  <outline>
    <contour>
      <point x="192" y="142" type="line"/>
      <point x="187" y="156"/>
      <point x="183" y="169"/>
      <point x="183" y="182" type="curve" smooth="yes"/>
      <point x="183" y="209"/>
      <point x="208" y="221"/>
      <point x="278" y="258" type="curve" smooth="yes"/>
      <point x="342" y="292"/>
      <point x="398" y="332"/>
      <point x="398" y="398" type="curve" smooth="yes"/>
      <point x="398" y="480"/>
      <point x="320" y="530"/>
      <point x="223" y="530" type="curve" smooth="yes"/>
      <point x="145" y="530"/>
      <point x="85" y="507"/>
      <point x="25" y="475" type="curve"/>
      <point x="58" y="397" type="line"/>
      <point x="106" y="424"/>
      <point x="158" y="447"/>
      <point x="215" y="447" type="curve" smooth="yes"/>
      <point x="258" y="447"/>
      <point x="289" y="426"/>
      <point x="289" y="398" type="curve" smooth="yes"/>
      <point x="289" y="366"/>
      <point x="260" y="350"/>
      <point x="210" y="325" type="curve" smooth="yes"/>
      <point x="150" y="295"/>
      <point x="113" y="273"/>
      <point x="113" y="231" type="curve" smooth="yes"/>
      <point x="113" y="198"/>
      <point x="132" y="168"/>
      <point x="159" y="131" type="curve"/>
    </contour>
    <contour>
      <point x="235" y="-10"/>
      <point x="263" y="13"/>
      <point x="263" y="44" type="curve"/>
      <point x="263" y="78"/>
      <point x="235" y="101"/>
      <point x="195" y="101" type="curve"/>
      <point x="158" y="101"/>
      <point x="127" y="78"/>
      <point x="127" y="44" type="curve"/>
      <point x="127" y="13"/>
      <point x="158" y="-10"/>
      <point x="195" y="-10" type="curve"/>
    </contour>
  </outline>
</glyph>
<glyph name="at" format="1">
  <advance width="717"/>
  <unicode hex="0040"/>
  <outline>
    <contour>
      <point x="414" y="-138"/>
      <point x="476" y="-114"/>
      <point x="508" y="-90" type="curve"/>
      <point x="487" y="-46" type="line"/>
      <point x="456" y="-68"/>
      <point x="399" y="-91"/>
      <point x="332" y="-91" type="curve" smooth="yes"/>
      <point x="205" y="-91"/>
      <point x="87" y="16"/>
      <point x="87" y="172" type="curve" smooth="yes"/>
      <point x="87" y="336"/>
      <point x="215" y="458"/>
      <point x="370" y="458" type="curve" smooth="yes"/>
      <point x="527" y="458"/>
      <point x="630" y="338"/>
      <point x="630" y="216" type="curve" smooth="yes"/>
      <point x="630" y="120"/>
      <point x="593" y="80"/>
      <point x="558" y="80" type="curve" smooth="yes"/>
      <point x="530" y="80"/>
      <point x="512" y="102"/>
      <point x="512" y="142" type="curve" smooth="yes"/>
      <point x="512" y="214" type="line" smooth="yes"/>
      <point x="512" y="288"/>
      <point x="464" y="334"/>
      <point x="372" y="334" type="curve" smooth="yes"/>
      <point x="317" y="334"/>
      <point x="269" y="322"/>
      <point x="216" y="299" type="curve"/>
      <point x="233" y="236" type="line"/>
      <point x="278" y="255"/>
      <point x="319" y="265"/>
      <point x="357" y="265" type="curve" smooth="yes"/>
      <point x="396" y="265"/>
      <point x="430" y="251"/>
      <point x="430" y="217" type="curve" smooth="yes"/>
      <point x="430" y="134" type="line" smooth="yes"/>
      <point x="430" y="81"/>
      <point x="469" y="24"/>
      <point x="543" y="24" type="curve" smooth="yes"/>
      <point x="616" y="24"/>
      <point x="687" y="88"/>
      <point x="687" y="216" type="curve" smooth="yes"/>
      <point x="687" y="359"/>
      <point x="566" y="505"/>
      <point x="370" y="505" type="curve" smooth="yes"/>
      <point x="191" y="505"/>
      <point x="30" y="380"/>
      <point x="30" y="173" type="curve" smooth="yes"/>
      <point x="30" y="-32"/>
      <point x="186" y="-138"/>
      <point x="334" y="-138" type="curve" smooth="yes"/>
    </contour>
    <contour>
      <point x="356" y="20"/>
      <point x="408" y="44"/>
      <point x="446" y="80" type="curve"/>
      <point x="448" y="134" type="line"/>
      <point x="406" y="101"/>
      <point x="358" y="87"/>
      <point x="331" y="87" type="curve" smooth="yes"/>
      <point x="305" y="87"/>
      <point x="290" y="95"/>
      <point x="290" y="117" type="curve" smooth="yes"/>
      <point x="290" y="146"/>
      <point x="324" y="152"/>
      <point x="355" y="152" type="curve" smooth="yes"/>
      <point x="381" y="152"/>
      <point x="408" y="149"/>
      <point x="448" y="138" type="curve"/>
      <point x="448" y="190" type="line"/>
      <point x="411" y="203"/>
      <point x="375" y="211"/>
      <point x="332" y="211" type="curve" smooth="yes"/>
      <point x="266" y="211"/>
      <point x="198" y="180"/>
      <point x="198" y="113" type="curve" smooth="yes"/>
      <point x="198" y="48"/>
      <point x="253" y="20"/>
      <point x="306" y="20" type="curve" smooth="yes"/>
    </contour>
  </outline>
</glyph>
<glyph name="A" format="1">
  <advance width="692"/>
  <unicode hex="0041"/>
  <outline>
    <contour>
      <point x="152" y="13" type="line"/>
      <point x="366" y="470" type="line"/>
      <point x="324" y="470" type="line"/>
      <point x="538" y="13" type="line"/>
      <point x="656" y="13" type="line"/>
      <point x="420" y="470" type="line" smooth="yes"/>
      <point x="271" y="470" type="line"/>
      <point x="37" y="13" type="line"/>
    </contour>
    <contour>
      <point x="259" y="0" type="line"/>
      <point x="259" y="83" type="line"/>
      <point x="0" y="83" type="line"/>
      <point x="0" y="0" type="line"/>
    </contour>
    <contour>
      <point x="495" y="177" type="line"/>
      <point x="478" y="252" type="line"/>
      <point x="212" y="252" type="line"/>
      <point x="194" y="177" type="line"/>
    </contour>
    <contour>
      <point x="692" y="0" type="line"/>
      <point x="692" y="83" type="line"/>
      <point x="434" y="83" type="line"/>
      <point x="434" y="0" type="line"/>
    </contour>
    <contour>
      <point x="500" y="437" type="line"/>
      <point x="500" y="520" type="line"/>
      <point x="190" y="520" type="line"/>
      <point x="190" y="437" type="line"/>
    </contour>
    <contour>
      <point x="412" y="631" type="move" name="hook"/>
    </contour>
    <contour>
      <point x="650" y="10" type="move" name="ogonek"/>
    </contour>
    <contour>
      <point x="345" y="505" type="move" name="top"/>
    </contour>
    <contour>
      <point x="347" y="0" type="move" name="bottom"/>
    </contour>
  </outline>
</glyph>
<glyph name="B" format="1">
  <advance width="595"/>
  <unicode hex="0042"/>
  <outline>
    <contour>
      <point x="372" y="0" type="line" smooth="yes"/>
      <point x="505" y="0"/>
      <point x="575" y="53"/>
      <point x="575" y="145" type="curve" smooth="yes"/>
      <point x="575" y="262"/>
      <point x="456" y="284"/>
      <point x="360" y="284" type="curve"/>
      <point x="361" y="244" type="line"/>
      <point x="436" y="244"/>
      <point x="535" y="284"/>
      <point x="535" y="381" type="curve" smooth="yes"/>
      <point x="535" y="462"/>
      <point x="475" y="520"/>
      <point x="357" y="520" type="curve" smooth="yes"/>
      <point x="30" y="520" type="line"/>
      <point x="30" y="437" type="line"/>
      <point x="352" y="437" type="line" smooth="yes"/>
      <point x="390" y="437"/>
      <point x="431" y="421"/>
      <point x="431" y="368" type="curve" smooth="yes"/>
      <point x="431" y="317"/>
      <point x="392" y="298"/>
      <point x="332" y="298" type="curve" smooth="yes"/>
      <point x="189" y="298" type="line"/>
      <point x="189" y="222" type="line"/>
      <point x="377" y="222" type="line" smooth="yes"/>
      <point x="434" y="222"/>
      <point x="471" y="204"/>
      <point x="471" y="153" type="curve" smooth="yes"/>
      <point x="471" y="100"/>
      <point x="430" y="83"/>
      <point x="372" y="83" type="curve" smooth="yes"/>
      <point x="30" y="83" type="line"/>
      <point x="30" y="0" type="line"/>
    </contour>
    <contour>
      <point x="225" y="46" type="line"/>
      <point x="225" y="472" type="line"/>
      <point x="120" y="472" type="line"/>
      <point x="120" y="46" type="line"/>
    </contour>
    <contour>
      <point x="278" y="520" type="move" name="top"/>
    </contour>
    <contour>
      <point x="278" y="0" type="move" name="bottom"/>
    </contour>
  </outline>
</glyph>
<glyph name="C" format="1">
  <advance width="577"/>
  <unicode hex="0043"/>
  <outline>
    <contour>
      <point x="401" y="-10"/>
      <point x="493" y="36"/>
      <point x="547" y="118" type="curve"/>
      <point x="480" y="174" type="line"/>
      <point x="439" y="117"/>
      <point x="384" y="76"/>
      <point x="308" y="76" type="curve" smooth="yes"/>
      <point x="208" y="76"/>
      <point x="139" y="149"/>
      <point x="139" y="258" type="curve" smooth="yes"/>
      <point x="139" y="373"/>
      <point x="218" y="448"/>
      <point x="312" y="448" type="curve" smooth="yes"/>
      <point x="389" y="448"/>
      <point x="447" y="398"/>
      <point x="476" y="337" type="curve"/>
      <point x="544" y="341" type="line"/>
      <point x="544" y="520" type="line"/>
      <point x="450" y="520" type="line"/>
      <point x="450" y="412" type="line"/>
      <point x="497" y="398" type="line"/>
      <point x="460" y="477"/>
      <point x="390" y="530"/>
      <point x="286" y="530" type="curve" smooth="yes"/>
      <point x="158" y="530"/>
      <point x="30" y="424"/>
      <point x="30" y="258" type="curve" smooth="yes"/>
      <point x="30" y="98"/>
      <point x="156" y="-10"/>
      <point x="308" y="-10" type="curve" smooth="yes"/>
    </contour>
    <contour>
      <point x="304" y="530" type="move" name="top"/>
    </contour>
    <contour>
      <point x="304" y="-10" type="move" name="bottom"/>
    </contour>
  </outline>
</glyph>
<glyph name="D" format="1">
  <advance width="647"/>
  <unicode hex="0044"/>
  <outline>
    <contour>
      <point x="325" y="0" type="line"/>
      <point x="474" y="0"/>
      <point x="617" y="78"/>
      <point x="617" y="260" type="curve"/>
      <point x="617" y="442"/>
      <point x="474" y="520"/>
      <point x="325" y="520" type="curve"/>
      <point x="30" y="520" type="line"/>
      <point x="30" y="437" type="line"/>
      <point x="301" y="437" type="line"/>
      <point x="394" y="437"/>
      <point x="508" y="404"/>
      <point x="508" y="260" type="curve"/>
      <point x="508" y="116"/>
      <point x="394" y="84"/>
      <point x="301" y="84" type="curve"/>
      <point x="30" y="84" type="line"/>
      <point x="30" y="0" type="line"/>
    </contour>
    <contour>
      <point x="225" y="48" type="line"/>
      <point x="225" y="472" type="line"/>
      <point x="120" y="472" type="line"/>
      <point x="120" y="48" type="line"/>
    </contour>
    <contour>
      <point x="301" y="260" type="move" name="center"/>
    </contour>
    <contour>
      <point x="301" y="0" type="move" name="bottom"/>
    </contour>
    <contour>
      <point x="301" y="520" type="move" name="top"/>
    </contour>
  </outline>
</glyph>
<glyph name="E" format="1">
  <advance width="622"/>
  <unicode hex="0045"/>
  <outline>
    <contour>
      <point x="567" y="0" type="line"/>
      <point x="567" y="183" type="line"/>
      <point x="474" y="183" type="line"/>
      <point x="474" y="83" type="line"/>
      <point x="30" y="83" type="line"/>
      <point x="30" y="0" type="line"/>
    </contour>
    <contour>
      <point x="223" y="46" type="line"/>
      <point x="223" y="467" type="line"/>
      <point x="119" y="467" type="line"/>
      <point x="119" y="46" type="line"/>
    </contour>
    <contour>
      <point x="365" y="216" type="line"/>
      <point x="365" y="299" type="line"/>
      <point x="159" y="299" type="line"/>
      <point x="159" y="216" type="line"/>
    </contour>
    <contour>
      <point x="400" y="156" type="line"/>
      <point x="400" y="359" type="line"/>
      <point x="317" y="359" type="line"/>
      <point x="317" y="156" type="line"/>
    </contour>
    <contour>
      <point x="567" y="337" type="line"/>
      <point x="567" y="520" type="line"/>
      <point x="30" y="520" type="line"/>
      <point x="30" y="437" type="line"/>
      <point x="474" y="437" type="line"/>
      <point x="474" y="337" type="line"/>
    </contour>
    <contour>
      <point x="566" y="0" type="move" name="ogonek"/>
    </contour>
    <contour>
      <point x="301" y="0" type="move" name="bottom"/>
    </contour>
    <contour>
      <point x="301" y="520" type="move" name="top"/>
    </contour>
  </outline>
</glyph>
<glyph name="F" format="1">
  <advance width="583"/>
  <unicode hex="0046"/>
  <outline>
    <contour>
      <point x="573" y="332" type="line"/>
      <point x="573" y="520" type="line"/>
      <point x="30" y="520" type="line"/>
      <point x="30" y="437" type="line"/>
      <point x="480" y="437" type="line"/>
      <point x="480" y="332" type="line"/>
    </contour>
    <contour>
      <point x="319" y="0" type="line"/>
      <point x="319" y="83" type="line"/>
      <point x="30" y="83" type="line"/>
      <point x="30" y="0" type="line"/>
    </contour>
    <contour>
      <point x="224" y="46" type="line"/>
      <point x="224" y="472" type="line"/>
      <point x="120" y="472" type="line"/>
      <point x="120" y="46" type="line"/>
    </contour>
    <contour>
      <point x="376" y="211" type="line"/>
      <point x="376" y="294" type="line"/>
      <point x="160" y="294" type="line"/>
      <point x="160" y="211" type="line"/>
    </contour>
    <contour>
      <point x="411" y="151" type="line"/>
      <point x="411" y="354" type="line"/>
      <point x="328" y="354" type="line"/>
      <point x="328" y="151" type="line"/>
    </contour>
    <contour>
      <point x="305" y="520" type="move" name="top"/>
    </contour>
    <contour>
      <point x="305" y="0" type="move" name="bottom"/>
    </contour>
  </outline>
</glyph>
<glyph name="G" format="1">
  <advance width="616"/>
  <unicode hex="0047"/>
  <outline>
    <contour>
      <point x="472" y="-11"/>
      <point x="578" y="94"/>
      <point x="578" y="251" type="curve" smooth="yes"/>
      <point x="578" y="277" type="line"/>
      <point x="254" y="277" type="line"/>
      <point x="254" y="194" type="line"/>
      <point x="470" y="194" type="line"/>
      <point x="463" y="131"/>
      <point x="408" y="72"/>
      <point x="313" y="72" type="curve" smooth="yes"/>
      <point x="215" y="72"/>
      <point x="139" y="137"/>
      <point x="139" y="260" type="curve" smooth="yes"/>
      <point x="139" y="379"/>
      <point x="221" y="448"/>
      <point x="318" y="448" type="curve" smooth="yes"/>
      <point x="406" y="448"/>
      <point x="463" y="398"/>
      <point x="492" y="347" type="curve"/>
      <point x="560" y="351" type="line"/>
      <point x="560" y="520" type="line"/>
      <point x="466" y="520" type="line"/>
      <point x="466" y="422" type="line"/>
      <point x="513" y="408" type="line"/>
      <point x="476" y="477"/>
      <point x="401" y="530"/>
      <point x="292" y="530" type="curve" smooth="yes"/>
      <point x="170" y="530"/>
      <point x="30" y="433"/>
      <point x="30" y="260" type="curve" smooth="yes"/>
      <point x="30" y="91"/>
      <point x="153" y="-11"/>
      <point x="309" y="-11" type="curve" smooth="yes"/>
    </contour>
    <contour>
      <point x="314" y="530" type="move" name="top"/>
    </contour>
    <contour>
      <point x="314" y="-10" type="move" name="bottom"/>
    </contour>
  </outline>
</glyph>
<glyph name="H" format="1">
  <advance width="735"/>
  <unicode hex="0048"/>
  <outline>
    <contour>
      <point x="581" y="223" type="line"/>
      <point x="581" y="306" type="line"/>
      <point x="155" y="306" type="line"/>
      <point x="155" y="223" type="line"/>
    </contour>
    <contour>
      <point x="314" y="0" type="line"/>
      <point x="314" y="83" type="line"/>
      <point x="30" y="83" type="line"/>
      <point x="30" y="0" type="line"/>
    </contour>
    <contour>
      <point x="225" y="46" type="line"/>
      <point x="225" y="472" type="line"/>
      <point x="120" y="472" type="line"/>
      <point x="120" y="46" type="line"/>
    </contour>
    <contour>
      <point x="314" y="437" type="line"/>
      <point x="314" y="520" type="line"/>
      <point x="30" y="520" type="line"/>
      <point x="30" y="437" type="line"/>
    </contour>
    <contour>
      <point x="705" y="0" type="line"/>
      <point x="705" y="83" type="line"/>
      <point x="421" y="83" type="line"/>
      <point x="421" y="0" type="line"/>
    </contour>
    <contour>
      <point x="615" y="48" type="line"/>
      <point x="615" y="475" type="line"/>
      <point x="510" y="475" type="line"/>
      <point x="510" y="48" type="line"/>
    </contour>
    <contour>
      <point x="705" y="437" type="line"/>
      <point x="705" y="520" type="line"/>
      <point x="421" y="520" type="line"/>
      <point x="421" y="437" type="line"/>
    </contour>
    <contour>
      <point x="367" y="255" type="move" name="center"/>
    </contour>
    <contour>
      <point x="367" y="0" type="move" name="bottom"/>
    </contour>
    <contour>
      <point x="367" y="520" type="move" name="top"/>
    </contour>
  </outline>
</glyph>
<glyph name="I" format="1">
  <advance width="345"/>
  <unicode hex="0049"/>
  <outline>
    <contour>
      <point x="225" y="0" type="line"/>
      <point x="225" y="472" type="line"/>
      <point x="120" y="472" type="line"/>
      <point x="120" y="0" type="line"/>
    </contour>
    <contour>
      <point x="315" y="0" type="line"/>
      <point x="315" y="83" type="line"/>
      <point x="30" y="83" type="line"/>
      <point x="30" y="0" type="line"/>
    </contour>
    <contour>
      <point x="315" y="437" type="line"/>
      <point x="315" y="520" type="line"/>
      <point x="30" y="520" type="line"/>
      <point x="30" y="437" type="line"/>
    </contour>
    <contour>
      <point x="293" y="0" type="move" name="ogonek"/>
    </contour>
    <contour>
      <point x="173" y="0" type="move" name="bottom"/>
    </contour>
    <contour>
      <point x="173" y="520" type="move" name="top"/>
    </contour>
  </outline>
</glyph>
<glyph name="J" format="1">
  <advance width="455"/>
  <unicode hex="004A"/>
  <outline>
    <contour>
      <point x="277" y="-10"/>
      <point x="360" y="62"/>
      <point x="360" y="177" type="curve" smooth="yes"/>
      <point x="360" y="475" type="line"/>
      <point x="256" y="475" type="line"/>
      <point x="257" y="183" type="line" smooth="yes"/>
      <point x="257" y="114"/>
      <point x="219" y="79"/>
      <point x="172" y="77" type="curve" smooth="yes"/>
      <point x="119" y="75"/>
      <point x="72" y="116"/>
      <point x="49" y="141" type="curve"/>
      <point x="-5" y="67" type="line"/>
      <point x="28" y="33"/>
      <point x="90" y="-10"/>
      <point x="177" y="-10" type="curve" smooth="yes"/>
    </contour>
    <contour>
      <point x="450" y="437" type="line"/>
      <point x="450" y="520" type="line"/>
      <point x="116" y="520" type="line"/>
      <point x="116" y="437" type="line"/>
    </contour>
    <contour>
      <point x="297" y="520" type="move" name="top"/>
    </contour>
    <contour>
      <point x="177" y="-10" type="move" name="bottom"/>
    </contour>
  </outline>
</glyph>
<glyph name="K" format="1">
  <advance width="650"/>
  <unicode hex="004B"/>
  <outline>
    <contour>
      <point x="603" y="454" type="line"/>
      <point x="485" y="454" type="line"/>
      <point x="164" y="192" type="line"/>
      <point x="165" y="96" type="line"/>
    </contour>
    <contour>
      <point x="309" y="0" type="line"/>
      <point x="309" y="83" type="line"/>
      <point x="30" y="83" type="line"/>
      <point x="30" y="0" type="line"/>
    </contour>
    <contour>
      <point x="224" y="46" type="line"/>
      <point x="224" y="472" type="line"/>
      <point x="120" y="472" type="line"/>
      <point x="120" y="46" type="line"/>
    </contour>
    <contour>
      <point x="653" y="0" type="line"/>
      <point x="653" y="83" type="line"/>
      <point x="394" y="83" type="line"/>
      <point x="394" y="0" type="line"/>
    </contour>
    <contour>
      <point x="616" y="61" type="line"/>
      <point x="371" y="326" type="line"/>
      <point x="290" y="276" type="line"/>
      <point x="484" y="61" type="line"/>
    </contour>
    <contour>
      <point x="309" y="437" type="line"/>
      <point x="309" y="520" type="line"/>
      <point x="30" y="520" type="line"/>
      <point x="30" y="437" type="line"/>
    </contour>
    <contour>
      <point x="643" y="437" type="line"/>
      <point x="643" y="520" type="line"/>
      <point x="384" y="520" type="line"/>
      <point x="384" y="437" type="line"/>
    </contour>
    <contour>
      <point x="361" y="520" type="move" name="top"/>
    </contour>
    <contour>
      <point x="361" y="0" type="move" name="bottom"/>
    </contour>
  </outline>
</glyph>
<glyph name="L" format="1">
  <advance width="543"/>
  <unicode hex="004C"/>
  <outline>
    <contour>
      <point x="543" y="0" type="line"/>
      <point x="543" y="203" type="line"/>
      <point x="444" y="203" type="line"/>
      <point x="444" y="83" type="line"/>
      <point x="30" y="83" type="line"/>
      <point x="30" y="0" type="line"/>
    </contour>
    <contour>
      <point x="224" y="46" type="line"/>
      <point x="224" y="467" type="line"/>
      <point x="120" y="467" type="line"/>
      <point x="120" y="46" type="line"/>
    </contour>
    <contour>
      <point x="314" y="437" type="line"/>
      <point x="314" y="520" type="line"/>
      <point x="30" y="520" type="line"/>
      <point x="30" y="437" type="line"/>
    </contour>
    <contour>
      <point x="273" y="0" type="move" name="bottom"/>
    </contour>
    <contour>
      <point x="273" y="520" type="move" name="top"/>
    </contour>
    <contour>
      <point x="475" y="490" type="move" name="topright"/>
    </contour>
    <contour>
      <point x="273" y="245" type="move" name="center"/>
    </contour>
  </outline>
</glyph>
<glyph name="M" format="1">
  <advance width="849"/>
  <unicode hex="004D"/>
  <outline>
    <contour>
      <point x="435" y="-3" type="line"/>
      <point x="459" y="73" type="line"/>
      <point x="235" y="520" type="line"/>
      <point x="127" y="520" type="line"/>
      <point x="394" y="-3" type="line"/>
    </contour>
    <contour>
      <point x="301" y="0" type="line"/>
      <point x="301" y="83" type="line"/>
      <point x="30" y="83" type="line"/>
      <point x="30" y="0" type="line"/>
    </contour>
    <contour>
      <point x="219" y="46" type="line"/>
      <point x="219" y="520" type="line"/>
      <point x="120" y="520" type="line"/>
      <point x="120" y="46" type="line"/>
    </contour>
    <contour>
      <point x="216" y="437" type="line"/>
      <point x="216" y="520" type="line"/>
      <point x="30" y="520" type="line"/>
      <point x="30" y="437" type="line"/>
    </contour>
    <contour>
      <point x="819" y="0" type="line"/>
      <point x="819" y="83" type="line"/>
      <point x="543" y="83" type="line"/>
      <point x="543" y="0" type="line"/>
    </contour>
    <contour>
      <point x="450" y="-3" type="line"/>
      <point x="717" y="520" type="line"/>
      <point x="613" y="520" type="line"/>
      <point x="394" y="73" type="line"/>
      <point x="412" y="-3" type="line"/>
    </contour>
    <contour>
      <point x="729" y="46" type="line"/>
      <point x="729" y="520" type="line"/>
      <point x="625" y="520" type="line"/>
      <point x="625" y="46" type="line"/>
    </contour>
    <contour>
      <point x="819" y="437" type="line"/>
      <point x="819" y="520" type="line"/>
      <point x="628" y="520" type="line"/>
      <point x="628" y="437" type="line"/>
    </contour>
    <contour>
      <point x="422" y="490" type="move" name="top"/>
    </contour>
    <contour>
      <point x="425" y="-2" type="move" name="bottom"/>
    </contour>
  </outline>
</glyph>
<glyph name="N" format="1">
  <advance width="720"/>
  <unicode hex="004E"/>
  <outline>
    <contour>
      <point x="624" y="-4" type="line"/>
      <point x="624" y="507" type="line"/>
      <point x="528" y="507" type="line"/>
      <point x="528" y="175" type="line"/>
      <point x="221" y="520" type="line"/>
      <point x="91" y="520" type="line"/>
      <point x="569" y="-5" type="line"/>
    </contour>
    <contour>
      <point x="314" y="0" type="line"/>
      <point x="314" y="83" type="line"/>
      <point x="30" y="83" type="line"/>
      <point x="30" y="0" type="line"/>
    </contour>
    <contour>
      <point x="221" y="12" type="line"/>
      <point x="221" y="520" type="line"/>
      <point x="120" y="520" type="line"/>
      <point x="120" y="12" type="line"/>
    </contour>
    <contour>
      <point x="218" y="437" type="line"/>
      <point x="221" y="520" type="line"/>
      <point x="30" y="520" type="line"/>
      <point x="30" y="437" type="line"/>
    </contour>
    <contour>
      <point x="714" y="437" type="line"/>
      <point x="714" y="520" type="line"/>
      <point x="438" y="520" type="line"/>
      <point x="438" y="437" type="line"/>
    </contour>
    <contour>
      <point x="376" y="490" type="move" name="top"/>
    </contour>
    <contour>
      <point x="376" y="20" type="move" name="bottom"/>
    </contour>
  </outline>
</glyph>
<glyph name="O" format="1">
  <advance width="616"/>
  <unicode hex="004F"/>
  <outline>
    <contour>
      <point x="467" y="-10"/>
      <point x="586" y="106"/>
      <point x="586" y="260" type="curve" smooth="yes"/>
      <point x="586" y="414"/>
      <point x="467" y="530"/>
      <point x="308" y="530" type="curve"/>
      <point x="149" y="530"/>
      <point x="30" y="414"/>
      <point x="30" y="260" type="curve" smooth="yes"/>
      <point x="30" y="106"/>
      <point x="149" y="-10"/>
      <point x="308" y="-10" type="curve"/>
    </contour>
    <contour>
      <point x="204" y="75"/>
      <point x="140" y="156"/>
      <point x="140" y="260" type="curve" smooth="yes"/>
      <point x="140" y="363"/>
      <point x="204" y="445"/>
      <point x="308" y="445" type="curve" smooth="yes"/>
      <point x="412" y="445"/>
      <point x="476" y="364"/>
      <point x="476" y="260" type="curve" smooth="yes"/>
      <point x="476" y="157"/>
      <point x="412" y="75"/>
      <point x="308" y="75" type="curve" smooth="yes"/>
    </contour>
    <contour>
      <point x="307" y="-10" type="move" name="bottom"/>
    </contour>
    <contour>
      <point x="349" y="-10" type="move" name="ogonek"/>
    </contour>
    <contour>
      <point x="308" y="531" type="move" name="top"/>
    </contour>
    <contour>
      <point x="546" y="490" type="move" name="topright"/>
    </contour>
    <contour>
      <point x="309" y="245" type="move" name="center"/>
    </contour>
  </outline>
</glyph>
<glyph name="P" format="1">
  <advance width="586"/>
  <unicode hex="0050"/>
  <outline>
    <contour>
      <point x="360" y="191" type="line" smooth="yes"/>
      <point x="484" y="191"/>
      <point x="566" y="257"/>
      <point x="566" y="359" type="curve" smooth="yes"/>
      <point x="566" y="457"/>
      <point x="484" y="520"/>
      <point x="360" y="520" type="curve" smooth="yes"/>
      <point x="30" y="520" type="line"/>
      <point x="30" y="437" type="line"/>
      <point x="353" y="437" type="line" smooth="yes"/>
      <point x="408" y="437"/>
      <point x="462" y="420"/>
      <point x="462" y="359" type="curve" smooth="yes"/>
      <point x="462" y="289"/>
      <point x="405" y="274"/>
      <point x="353" y="274" type="curve" smooth="yes"/>
      <point x="189" y="274" type="line"/>
      <point x="189" y="191" type="line"/>
    </contour>
    <contour>
      <point x="320" y="0" type="line"/>
      <point x="320" y="83" type="line"/>
      <point x="30" y="83" type="line"/>
      <point x="30" y="0" type="line"/>
    </contour>
    <contour>
      <point x="225" y="46" type="line"/>
      <point x="225" y="475" type="line"/>
      <point x="120" y="475" type="line"/>
      <point x="120" y="46" type="line"/>
    </contour>
    <contour>
      <point x="288" y="520" type="move" name="top"/>
    </contour>
    <contour>
      <point x="288" y="0" type="move" name="bottom"/>
    </contour>
  </outline>
</glyph>
<glyph name="Q" format="1">
  <advance width="625"/>
  <unicode hex="0051"/>
  <outline>
    <contour>
      <point x="467" y="-10"/>
      <point x="586" y="106"/>
      <point x="586" y="260" type="curve" smooth="yes"/>
      <point x="586" y="414"/>
      <point x="467" y="530"/>
      <point x="308" y="530" type="curve"/>
      <point x="149" y="530"/>
      <point x="30" y="414"/>
      <point x="30" y="260" type="curve" smooth="yes"/>
      <point x="30" y="106"/>
      <point x="149" y="-10"/>
      <point x="308" y="-10" type="curve"/>
    </contour>
    <contour>
      <point x="604" y="-153"/>
      <point x="643" y="-96"/>
      <point x="658" y="-37" type="curve"/>
      <point x="585" y="-12" type="line"/>
      <point x="576" y="-50"/>
      <point x="560" y="-70"/>
      <point x="528" y="-70" type="curve" smooth="yes"/>
      <point x="493" y="-70"/>
      <point x="472" y="-43"/>
      <point x="428" y="52" type="curve" smooth="yes"/>
      <point x="386" y="142" type="line" smooth="yes"/>
      <point x="333" y="255"/>
      <point x="265" y="279"/>
      <point x="167" y="279" type="curve" smooth="yes"/>
      <point x="135" y="279" type="line"/>
      <point x="135" y="204" type="line"/>
      <point x="167" y="204" type="line" smooth="yes"/>
      <point x="240" y="204"/>
      <point x="266" y="175"/>
      <point x="299" y="106" type="curve" smooth="yes"/>
      <point x="340" y="20" type="line" smooth="yes"/>
      <point x="399" y="-104"/>
      <point x="448" y="-153"/>
      <point x="528" y="-153" type="curve" smooth="yes"/>
    </contour>
    <contour>
      <point x="202" y="69"/>
      <point x="137" y="152"/>
      <point x="137" y="260" type="curve" smooth="yes"/>
      <point x="137" y="367"/>
      <point x="202" y="451"/>
      <point x="308" y="451" type="curve" smooth="yes"/>
      <point x="414" y="451"/>
      <point x="479" y="368"/>
      <point x="479" y="260" type="curve" smooth="yes"/>
      <point x="479" y="153"/>
      <point x="414" y="69"/>
      <point x="308" y="69" type="curve" smooth="yes"/>
    </contour>
    <contour>
      <point x="307" y="530" type="move" name="top"/>
    </contour>
    <contour>
      <point x="307" y="-10" type="move" name="bottom"/>
    </contour>
  </outline>
</glyph>
<glyph name="R" format="1">
  <advance width="646"/>
  <unicode hex="0052"/>
  <outline>
    <contour>
      <point x="368" y="221" type="line" smooth="yes"/>
      <point x="497" y="221"/>
      <point x="561" y="299"/>
      <point x="561" y="371" type="curve" smooth="yes"/>
      <point x="561" y="457"/>
      <point x="496" y="520"/>
      <point x="368" y="520" type="curve" smooth="yes"/>
      <point x="30" y="520" type="line"/>
      <point x="30" y="437" type="line"/>
      <point x="363" y="437" type="line" smooth="yes"/>
      <point x="411" y="437"/>
      <point x="457" y="420"/>
      <point x="457" y="371" type="curve" smooth="yes"/>
      <point x="457" y="319"/>
      <point x="408" y="299"/>
      <point x="363" y="299" type="curve" smooth="yes"/>
      <point x="189" y="299" type="line"/>
      <point x="189" y="221" type="line"/>
    </contour>
    <contour>
      <point x="315" y="0" type="line"/>
      <point x="315" y="83" type="line"/>
      <point x="30" y="83" type="line"/>
      <point x="30" y="0" type="line"/>
    </contour>
    <contour>
      <point x="225" y="46" type="line"/>
      <point x="225" y="472" type="line"/>
      <point x="120" y="472" type="line"/>
      <point x="120" y="46" type="line"/>
    </contour>
    <contour>
      <point x="598" y="-11"/>
      <point x="646" y="55"/>
      <point x="646" y="132" type="curve" smooth="yes"/>
      <point x="646" y="155" type="line"/>
      <point x="555" y="155" type="line"/>
      <point x="555" y="130" type="line" smooth="yes"/>
      <point x="555" y="101"/>
      <point x="541" y="77"/>
      <point x="512" y="77" type="curve" smooth="yes"/>
      <point x="485" y="77"/>
      <point x="471" y="97"/>
      <point x="453" y="136" type="curve" smooth="yes"/>
      <point x="430" y="185"/>
      <point x="400" y="238"/>
      <point x="328" y="238" type="curve" smooth="yes"/>
      <point x="236" y="238" type="line"/>
      <point x="236" y="221" type="line"/>
      <point x="273" y="221" type="line" smooth="yes"/>
      <point x="310" y="221"/>
      <point x="332" y="180"/>
      <point x="357" y="122" type="curve" smooth="yes"/>
      <point x="382" y="64"/>
      <point x="422" y="-11"/>
      <point x="512" y="-11" type="curve" smooth="yes"/>
    </contour>
    <contour>
      <point x="320" y="520" type="move" name="top"/>
    </contour>
    <contour>
      <point x="360" y="0" type="move" name="bottom"/>
    </contour>
  </outline>
</glyph>
<glyph name="S" format="1">
  <advance width="585"/>
  <unicode hex="0053"/>
  <outline>
    <contour>
      <point x="470" y="-10"/>
      <point x="545" y="45"/>
      <point x="545" y="134" type="curve" smooth="yes"/>
      <point x="545" y="231"/>
      <point x="457" y="275"/>
      <point x="333" y="307" type="curve" smooth="yes"/>
      <point x="219" y="336"/>
      <point x="175" y="353"/>
      <point x="175" y="388" type="curve" smooth="yes"/>
      <point x="175" y="426"/>
      <point x="206" y="447"/>
      <point x="262" y="447" type="curve" smooth="yes"/>
      <point x="343" y="447"/>
      <point x="419" y="399"/>
      <point x="459" y="337" type="curve"/>
      <point x="519" y="341" type="line"/>
      <point x="519" y="520" type="line"/>
      <point x="425" y="520" type="line"/>
      <point x="425" y="402" type="line"/>
      <point x="477" y="398" type="line"/>
      <point x="422" y="475"/>
      <point x="345" y="530"/>
      <point x="242" y="530" type="curve" smooth="yes"/>
      <point x="136" y="530"/>
      <point x="66" y="472"/>
      <point x="66" y="382" type="curve" smooth="yes"/>
      <point x="66" y="303"/>
      <point x="120" y="245"/>
      <point x="250" y="213" type="curve" smooth="yes"/>
      <point x="386" y="180"/>
      <point x="436" y="161"/>
      <point x="436" y="124" type="curve" smooth="yes"/>
      <point x="436" y="85"/>
      <point x="399" y="71"/>
      <point x="352" y="71" type="curve" smooth="yes"/>
      <point x="272" y="71"/>
      <point x="185" y="116"/>
      <point x="128" y="188" type="curve"/>
      <point x="65" y="184" type="line"/>
      <point x="65" y="1" type="line"/>
      <point x="159" y="1" type="line"/>
      <point x="159" y="117" type="line"/>
      <point x="101" y="123" type="line"/>
      <point x="169" y="49"/>
      <point x="252" y="-10"/>
      <point x="362" y="-10" type="curve" smooth="yes"/>
    </contour>
    <contour>
      <point x="294" y="530" type="move" name="top"/>
    </contour>
    <contour>
      <point x="314" y="-10" type="move" name="bottom"/>
    </contour>
  </outline>
</glyph>
<glyph name="T" format="1">
  <advance width="594"/>
  <unicode hex="0054"/>
  <outline>
    <contour>
      <point x="108" y="332" type="line"/>
      <point x="108" y="437" type="line"/>
      <point x="486" y="437" type="line"/>
      <point x="486" y="332" type="line"/>
      <point x="579" y="332" type="line"/>
      <point x="579" y="520" type="line"/>
      <point x="15" y="520" type="line"/>
      <point x="15" y="332" type="line"/>
    </contour>
    <contour>
      <point x="439" y="0" type="line"/>
      <point x="439" y="83" type="line"/>
      <point x="155" y="83" type="line"/>
      <point x="155" y="0" type="line"/>
    </contour>
    <contour>
      <point x="349" y="53" type="line"/>
      <point x="349" y="474" type="line"/>
      <point x="245" y="474" type="line"/>
      <point x="245" y="53" type="line"/>
    </contour>
    <contour>
      <point x="295" y="245" type="move" name="center"/>
    </contour>
    <contour>
      <point x="295" y="0" type="move" name="bottom"/>
    </contour>
    <contour>
      <point x="295" y="520" type="move" name="top"/>
    </contour>
  </outline>
</glyph>
<glyph name="U" format="1">
  <advance width="680"/>
  <unicode hex="0055"/>
  <outline>
    <contour>
      <point x="483" y="-10"/>
      <point x="585" y="79"/>
      <point x="585" y="204" type="curve" smooth="yes"/>
      <point x="585" y="475" type="line"/>
      <point x="481" y="475" type="line"/>
      <point x="482" y="210" type="line" smooth="yes"/>
      <point x="482" y="131"/>
      <point x="423" y="77"/>
      <point x="340" y="77" type="curve" smooth="yes"/>
      <point x="257" y="77"/>
      <point x="200" y="130"/>
      <point x="200" y="209" type="curve" smooth="yes"/>
      <point x="201" y="475" type="line"/>
      <point x="95" y="475" type="line"/>
      <point x="95" y="204" type="line" smooth="yes"/>
      <point x="95" y="79"/>
      <point x="192" y="-10"/>
      <point x="340" y="-10" type="curve" smooth="yes"/>
    </contour>
    <contour>
      <point x="291" y="437" type="line"/>
      <point x="291" y="520" type="line"/>
      <point x="5" y="520" type="line"/>
      <point x="5" y="437" type="line"/>
    </contour>
    <contour>
      <point x="675" y="437" type="line"/>
      <point x="675" y="520" type="line"/>
      <point x="391" y="520" type="line"/>
      <point x="391" y="437" type="line"/>
    </contour>
    <contour>
      <point x="351" y="-9" type="move" name="ogonek"/>
    </contour>
    <contour>
      <point x="342" y="490" type="move" name="top"/>
    </contour>
    <contour>
      <point x="661" y="490" type="move" name="topright"/>
    </contour>
    <contour>
      <point x="342" y="-10" type="move" name="bottom"/>
    </contour>
  </outline>
</glyph>
<glyph name="V" format="1">
  <advance width="673"/>
  <unicode hex="0056"/>
  <outline>
    <contour>
      <point x="0" y="520" type="line"/>
      <point x="0" y="437" type="line"/>
      <point x="267" y="437" type="line"/>
      <point x="267" y="520" type="line"/>
    </contour>
    <contour>
      <point x="406" y="520" type="line"/>
      <point x="406" y="437" type="line"/>
      <point x="673" y="437" type="line"/>
      <point x="673" y="520" type="line"/>
    </contour>
    <contour>
      <point x="363" y="-10" type="line"/>
      <point x="624" y="507" type="line"/>
      <point x="519" y="507" type="line"/>
      <point x="339" y="125" type="line"/>
      <point x="159" y="507" type="line"/>
      <point x="49" y="507" type="line"/>
      <point x="309" y="-10" type="line"/>
    </contour>
    <contour>
      <point x="336" y="490" type="move" name="top"/>
    </contour>
    <contour>
      <point x="336" y="0" type="move" name="bottom"/>
    </contour>
  </outline>
</glyph>
<glyph name="W" format="1">
  <advance width="899"/>
  <unicode hex="0057"/>
  <outline>
    <contour>
      <point x="315" y="-10" type="line"/>
      <point x="559" y="507" type="line"/>
      <point x="461" y="507" type="line"/>
      <point x="297" y="129" type="line"/>
      <point x="152" y="507" type="line"/>
      <point x="39" y="507" type="line"/>
      <point x="261" y="-10" type="line"/>
    </contour>
    <contour>
      <point x="252" y="437" type="line"/>
      <point x="252" y="520" type="line"/>
      <point x="5" y="520" type="line"/>
      <point x="5" y="437" type="line"/>
    </contour>
    <contour>
      <point x="618" y="-10" type="line"/>
      <point x="861" y="507" type="line"/>
      <point x="763" y="507" type="line"/>
      <point x="599" y="129" type="line"/>
      <point x="488" y="381" type="line"/>
      <point x="408" y="333" type="line"/>
      <point x="564" y="-10" type="line"/>
    </contour>
    <contour>
      <point x="582" y="437" type="line"/>
      <point x="582" y="520" type="line"/>
      <point x="315" y="520" type="line"/>
      <point x="315" y="437" type="line"/>
    </contour>
    <contour>
      <point x="894" y="437" type="line"/>
      <point x="894" y="520" type="line"/>
      <point x="627" y="520" type="line"/>
      <point x="627" y="437" type="line"/>
    </contour>
    <contour>
      <point x="439" y="520" type="move" name="top"/>
    </contour>
    <contour>
      <point x="439" y="0" type="move" name="bottom"/>
    </contour>
  </outline>
</glyph>
<glyph name="X" format="1">
  <advance width="655"/>
  <unicode hex="0058"/>
  <outline>
    <contour>
      <point x="645" y="0" type="line"/>
      <point x="645" y="83" type="line"/>
      <point x="382" y="83" type="line"/>
      <point x="382" y="0" type="line"/>
    </contour>
    <contour>
      <point x="273" y="0" type="line"/>
      <point x="273" y="83" type="line"/>
      <point x="10" y="83" type="line"/>
      <point x="10" y="0" type="line"/>
    </contour>
    <contour>
      <point x="604" y="67" type="line"/>
      <point x="375" y="287" type="line"/>
      <point x="363" y="287" type="line"/>
      <point x="194" y="454" type="line"/>
      <point x="51" y="454" type="line"/>
      <point x="286" y="228" type="line"/>
      <point x="298" y="228" type="line"/>
      <point x="461" y="67" type="line"/>
    </contour>
    <contour>
      <point x="179" y="67" type="line"/>
      <point x="348" y="234" type="line"/>
      <point x="363" y="234" type="line"/>
      <point x="592" y="454" type="line"/>
      <point x="471" y="454" type="line"/>
      <point x="308" y="293" type="line"/>
      <point x="292" y="293" type="line"/>
      <point x="57" y="67" type="line"/>
    </contour>
    <contour>
      <point x="274" y="437" type="line"/>
      <point x="274" y="520" type="line"/>
      <point x="10" y="520" type="line"/>
      <point x="10" y="437" type="line"/>
    </contour>
    <contour>
      <point x="645" y="437" type="line"/>
      <point x="645" y="520" type="line"/>
      <point x="381" y="520" type="line"/>
      <point x="381" y="437" type="line"/>
    </contour>
    <contour>
      <point x="327" y="490" type="move" name="top"/>
    </contour>
    <contour>
      <point x="327" y="0" type="move" name="bottom"/>
    </contour>
  </outline>
</glyph>
<glyph name="Y" format="1">
  <advance width="633"/>
  <unicode hex="0059"/>
  <outline>
    <contour>
      <point x="343" y="177" type="line"/>
      <point x="612" y="507" type="line"/>
      <point x="493" y="507" type="line"/>
      <point x="321" y="280" type="line"/>
      <point x="141" y="507" type="line"/>
      <point x="16" y="507" type="line"/>
      <point x="289" y="177" type="line"/>
    </contour>
    <contour>
      <point x="462" y="0" type="line"/>
      <point x="462" y="83" type="line"/>
      <point x="172" y="83" type="line"/>
      <point x="172" y="0" type="line"/>
    </contour>
    <contour>
      <point x="370" y="0" type="line"/>
      <point x="370" y="244" type="line"/>
      <point x="264" y="244" type="line"/>
      <point x="264" y="0" type="line"/>
    </contour>
    <contour>
      <point x="247" y="437" type="line"/>
      <point x="247" y="520" type="line"/>
      <point x="10" y="520" type="line"/>
      <point x="10" y="437" type="line"/>
    </contour>
    <contour>
      <point x="623" y="437" type="line"/>
      <point x="623" y="520" type="line"/>
      <point x="386" y="520" type="line"/>
      <point x="386" y="437" type="line"/>
    </contour>
    <contour>
      <point x="317" y="490" type="move" name="top"/>
    </contour>
    <contour>
      <point x="317" y="0" type="move" name="bottom"/>
    </contour>
  </outline>
</glyph>
<glyph name="Z" format="1">
  <advance width="593"/>
  <unicode hex="005A"/>
  <outline>
    <contour>
      <point x="548" y="0" type="line"/>
      <point x="548" y="188" type="line"/>
      <point x="455" y="188" type="line"/>
      <point x="455" y="83" type="line"/>
      <point x="122" y="83" type="line"/>
      <point x="87" y="29" type="line"/>
      <point x="92" y="21" type="line"/>
      <point x="142" y="32" type="line"/>
      <point x="544" y="447" type="line"/>
      <point x="544" y="520" type="line"/>
      <point x="50" y="520" type="line"/>
      <point x="50" y="332" type="line"/>
      <point x="143" y="332" type="line"/>
      <point x="143" y="437" type="line"/>
      <point x="475" y="437" type="line"/>
      <point x="509" y="494" type="line"/>
      <point x="505" y="499" type="line"/>
      <point x="455" y="488" type="line"/>
      <point x="53" y="73" type="line"/>
      <point x="53" y="0" type="line"/>
    </contour>
    <contour>
      <point x="312" y="520" type="move" name="top"/>
    </contour>
    <contour>
      <point x="312" y="0" type="move" name="bottom"/>
    </contour>
  </outline>
</glyph>
<glyph name="bracketleft" format="1">
  <advance width="270"/>
  <unicode hex="005B"/>
  <outline>
    <contour>
      <point x="85" y="-76" type="line"/>
      <point x="175" y="-76" type="line"/>
      <point x="175" y="604" type="line"/>
      <point x="85" y="604" type="line"/>
    </contour>
    <contour>
      <point x="87" y="521" type="line"/>
      <point x="260" y="521" type="line"/>
      <point x="260" y="604" type="line"/>
      <point x="87" y="604" type="line"/>
    </contour>
    <contour>
      <point x="87" y="-76" type="line"/>
      <point x="260" y="-76" type="line"/>
      <point x="260" y="7" type="line"/>
      <point x="87" y="7" type="line"/>
    </contour>
  </outline>
</glyph>
<glyph name="backslash" format="1">
  <advance width="401"/>
  <unicode hex="005C"/>
  <outline>
    <contour>
      <point x="389" y="-79" type="line"/>
      <point x="106" y="561" type="line"/>
      <point x="18" y="561" type="line"/>
      <point x="301" y="-79" type="line"/>
    </contour>
  </outline>
</glyph>
<glyph name="bracketright" format="1">
  <advance width="270"/>
  <unicode hex="005D"/>
  <outline>
    <contour>
      <point x="185" y="-76" type="line"/>
      <point x="185" y="604" type="line"/>
      <point x="95" y="604" type="line"/>
      <point x="95" y="-76" type="line"/>
    </contour>
    <contour>
      <point x="183" y="-76" type="line"/>
      <point x="183" y="7" type="line"/>
      <point x="10" y="7" type="line"/>
      <point x="10" y="-76" type="line"/>
    </contour>
    <contour>
      <point x="183" y="521" type="line"/>
      <point x="183" y="604" type="line"/>
      <point x="10" y="604" type="line"/>
      <point x="10" y="521" type="line"/>
    </contour>
  </outline>
</glyph>
<glyph name="asciicircum" format="1">
  <advance width="417"/>
  <unicode hex="005E"/>
  <outline>
    <contour>
      <point x="192" y="616" type="line"/>
      <point x="175" y="594" type="line"/>
      <point x="295" y="325" type="line"/>
      <point x="392" y="325" type="line"/>
      <point x="245" y="616" type="line"/>
    </contour>
    <contour>
      <point x="182" y="616" type="line"/>
      <point x="25" y="325" type="line"/>
      <point x="122" y="325" type="line"/>
      <point x="252" y="594" type="line"/>
      <point x="236" y="616" type="line"/>
    </contour>
  </outline>
</glyph>
<glyph name="underscore" format="1">
  <advance width="270"/>
  <unicode hex="005F"/>
  <outline>
    <contour>
      <point x="-35" y="-68" type="line"/>
      <point x="-35" y="-151" type="line"/>
      <point x="305" y="-151" type="line"/>
      <point x="305" y="-68" type="line"/>
    </contour>
  </outline>
</glyph>
<glyph name="a" format="1">
  <advance width="477"/>
  <unicode hex="0061"/>
  <outline>
    <contour>
      <point x="77" y="248" type="line"/>
      <point x="129" y="270"/>
      <point x="174" y="283"/>
      <point x="219" y="283" type="curve" smooth="yes"/>
      <point x="266" y="283"/>
      <point x="306" y="266"/>
      <point x="306" y="225" type="curve" smooth="yes"/>
      <point x="306" y="95" type="line" smooth="yes"/>
      <point x="306" y="32"/>
      <point x="346" y="-6"/>
      <point x="394" y="-6" type="curve" smooth="yes"/>
      <point x="424" y="-6"/>
      <point x="444" y="2"/>
      <point x="462" y="10" type="curve"/>
      <point x="442" y="80" type="line"/>
      <point x="436" y="78"/>
      <point x="432" y="76"/>
      <point x="424" y="76" type="curve" smooth="yes"/>
      <point x="412" y="76"/>
      <point x="400" y="82"/>
      <point x="400" y="105" type="curve" smooth="yes"/>
      <point x="400" y="221" type="line" smooth="yes"/>
      <point x="400" y="310"/>
      <point x="342" y="366"/>
      <point x="233" y="366" type="curve" smooth="yes"/>
      <point x="168" y="366"/>
      <point x="119" y="351"/>
      <point x="55" y="323" type="curve"/>
    </contour>
    <contour>
      <point x="221" y="-11"/>
      <point x="276" y="18"/>
      <point x="321" y="61" type="curve"/>
      <point x="323" y="126" type="line"/>
      <point x="276" y="89"/>
      <point x="230" y="70"/>
      <point x="193" y="70" type="curve" smooth="yes"/>
      <point x="163" y="70"/>
      <point x="144" y="84"/>
      <point x="144" y="105" type="curve" smooth="yes"/>
      <point x="144" y="134"/>
      <point x="175" y="147"/>
      <point x="207" y="147" type="curve" smooth="yes"/>
      <point x="243" y="147"/>
      <point x="278" y="143"/>
      <point x="323" y="131" type="curve"/>
      <point x="323" y="193" type="line"/>
      <point x="279" y="207"/>
      <point x="233" y="218"/>
      <point x="182" y="218" type="curve" smooth="yes"/>
      <point x="108" y="218"/>
      <point x="35" y="177"/>
      <point x="35" y="101" type="curve" smooth="yes"/>
      <point x="35" y="26"/>
      <point x="98" y="-11"/>
      <point x="164" y="-11" type="curve" smooth="yes"/>
    </contour>
    <contour>
      <point x="462" y="10" type="move" name="ogonek"/>
    </contour>
    <contour>
      <point x="163" y="-10" type="move" name="bottom"/>
    </contour>
    <contour>
      <point x="233" y="367" type="move" name="top"/>
    </contour>
  </outline>
</glyph>
<glyph name="b" format="1">
  <advance width="494"/>
  <unicode hex="0062"/>
  <outline>
    <contour>
      <point x="152" y="442" type="line"/>
      <point x="152" y="520" type="line"/>
      <point x="-15" y="520" type="line"/>
      <point x="-15" y="442" type="line"/>
    </contour>
    <contour>
      <point x="221" y="367"/>
      <point x="141" y="298"/>
      <point x="106" y="194" type="curve"/>
      <point x="106" y="121" type="line"/>
      <point x="141" y="217"/>
      <point x="208" y="282"/>
      <point x="264" y="283" type="curve" smooth="yes"/>
      <point x="321" y="284"/>
      <point x="360" y="241"/>
      <point x="360" y="180" type="curve" smooth="yes"/>
      <point x="360" y="117"/>
      <point x="316" y="71"/>
      <point x="249" y="71" type="curve" smooth="yes"/>
      <point x="194" y="71"/>
      <point x="140" y="115"/>
      <point x="106" y="158" type="curve"/>
      <point x="106" y="91" type="line"/>
      <point x="139" y="49"/>
      <point x="187" y="-11"/>
      <point x="274" y="-11" type="curve" smooth="yes"/>
      <point x="388" y="-11"/>
      <point x="469" y="70"/>
      <point x="469" y="180" type="curve" smooth="yes"/>
      <point x="469" y="289"/>
      <point x="392" y="367"/>
      <point x="297" y="367" type="curve" smooth="yes"/>
    </contour>
    <contour>
      <point x="159" y="-11" type="line"/>
      <point x="159" y="520" type="line"/>
      <point x="60" y="520" type="line"/>
      <point x="60" y="-11" type="line"/>
    </contour>
    <contour>
      <point x="292" y="367" type="move" name="top"/>
    </contour>
    <contour>
      <point x="292" y="-10" type="move" name="bottom"/>
    </contour>
  </outline>
</glyph>
<glyph name="c" format="1">
  <advance width="418"/>
  <unicode hex="0063"/>
  <outline>
    <contour>
      <point x="292" y="-10"/>
      <point x="350" y="16"/>
      <point x="393" y="60" type="curve"/>
      <point x="346" y="127" type="line"/>
      <point x="311" y="96"/>
      <point x="279" y="76"/>
      <point x="231" y="76" type="curve" smooth="yes"/>
      <point x="180" y="76"/>
      <point x="134" y="116"/>
      <point x="134" y="178" type="curve" smooth="yes"/>
      <point x="134" y="244"/>
      <point x="182" y="284"/>
      <point x="235" y="284" type="curve" smooth="yes"/>
      <point x="282" y="284"/>
      <point x="310" y="261"/>
      <point x="334" y="226" type="curve"/>
      <point x="382" y="229" type="line"/>
      <point x="382" y="357" type="line"/>
      <point x="313" y="357" type="line"/>
      <point x="313" y="285" type="line"/>
      <point x="349" y="280" type="line"/>
      <point x="319" y="328"/>
      <point x="283" y="367"/>
      <point x="210" y="367" type="curve" smooth="yes"/>
      <point x="118" y="367"/>
      <point x="25" y="291"/>
      <point x="25" y="178" type="curve" smooth="yes"/>
      <point x="25" y="66"/>
      <point x="117" y="-13"/>
      <point x="231" y="-11" type="curve" smooth="yes"/>
    </contour>
    <contour>
      <point x="219" y="367" type="move" name="top"/>
    </contour>
    <contour>
      <point x="218" y="-10" type="move" name="bottom"/>
    </contour>
  </outline>
</glyph>
<glyph name="d" format="1">
  <advance width="503"/>
  <unicode hex="0064"/>
  <outline>
    <contour>
      <point x="297" y="-11"/>
      <point x="350" y="53"/>
      <point x="388" y="92" type="curve"/>
      <point x="388" y="165" type="line"/>
      <point x="346" y="123"/>
      <point x="292" y="74"/>
      <point x="235" y="73" type="curve" smooth="yes"/>
      <point x="173" y="72"/>
      <point x="134" y="115"/>
      <point x="134" y="176" type="curve" smooth="yes"/>
      <point x="134" y="239"/>
      <point x="178" y="285"/>
      <point x="245" y="285" type="curve" smooth="yes"/>
      <point x="300" y="285"/>
      <point x="354" y="241"/>
      <point x="388" y="198" type="curve"/>
      <point x="388" y="265" type="line"/>
      <point x="355" y="307"/>
      <point x="307" y="367"/>
      <point x="220" y="367" type="curve" smooth="yes"/>
      <point x="106" y="367"/>
      <point x="25" y="286"/>
      <point x="25" y="176" type="curve" smooth="yes"/>
      <point x="25" y="67"/>
      <point x="107" y="-11"/>
      <point x="207" y="-11" type="curve" smooth="yes"/>
    </contour>
    <contour>
      <point x="455" y="-6"/>
      <point x="475" y="2"/>
      <point x="493" y="10" type="curve"/>
      <point x="473" y="80" type="line"/>
      <point x="467" y="78"/>
      <point x="463" y="76"/>
      <point x="455" y="76" type="curve" smooth="yes"/>
      <point x="442" y="76"/>
      <point x="430" y="82"/>
      <point x="431" y="105" type="curve"/>
      <point x="431" y="520" type="line"/>
      <point x="332" y="520" type="line"/>
      <point x="332" y="95" type="line"/>
      <point x="332" y="32"/>
      <point x="372" y="-6"/>
      <point x="425" y="-6" type="curve" smooth="yes"/>
    </contour>
    <contour>
      <point x="421" y="442" type="line"/>
      <point x="421" y="520" type="line"/>
      <point x="257" y="520" type="line"/>
      <point x="257" y="442" type="line"/>
    </contour>
    <contour>
      <point x="207" y="-10" type="move" name="bottom"/>
    </contour>
    <contour>
      <point x="207" y="367" type="move" name="top"/>
    </contour>
    <contour>
      <point x="490" y="357" type="move" name="topright"/>
    </contour>
    <contour>
      <point x="207" y="179" type="move" name="center"/>
    </contour>
  </outline>
</glyph>
<glyph name="e" format="1">
  <advance width="432"/>
  <unicode hex="0065"/>
  <outline>
    <contour>
      <point x="380" y="126" type="line"/>
      <point x="343" y="94"/>
      <point x="299" y="72"/>
      <point x="248" y="72" type="curve" smooth="yes"/>
      <point x="192" y="72"/>
      <point x="129" y="109"/>
      <point x="129" y="183" type="curve" smooth="yes"/>
      <point x="129" y="253"/>
      <point x="186" y="292"/>
      <point x="234" y="292" type="curve" smooth="yes"/>
      <point x="272" y="292"/>
      <point x="299" y="270"/>
      <point x="299" y="247" type="curve" smooth="yes"/>
      <point x="299" y="223"/>
      <point x="273" y="199"/>
      <point x="223" y="199" type="curve" smooth="yes"/>
      <point x="175" y="199"/>
      <point x="107" y="209"/>
      <point x="59" y="248" type="curve"/>
      <point x="58" y="195" type="line"/>
      <point x="104" y="160"/>
      <point x="175" y="131"/>
      <point x="249" y="131" type="curve" smooth="yes"/>
      <point x="312" y="131"/>
      <point x="405" y="163"/>
      <point x="405" y="244" type="curve" smooth="yes"/>
      <point x="405" y="314"/>
      <point x="333" y="367"/>
      <point x="234" y="367" type="curve" smooth="yes"/>
      <point x="128" y="367"/>
      <point x="25" y="298"/>
      <point x="25" y="175" type="curve" smooth="yes"/>
      <point x="25" y="58"/>
      <point x="126" y="-11"/>
      <point x="240" y="-11" type="curve" smooth="yes"/>
      <point x="314" y="-11"/>
      <point x="374" y="19"/>
      <point x="417" y="55" type="curve"/>
    </contour>
    <contour>
      <point x="417" y="55" type="move" name="ogonek"/>
    </contour>
    <contour>
      <point x="233" y="-10" type="move" name="bottom"/>
    </contour>
    <contour>
      <point x="233" y="367" type="move" name="top"/>
    </contour>
  </outline>
</glyph>
<glyph name="f" format="1">
  <advance width="336"/>
  <unicode hex="0066"/>
  <outline>
    <contour>
      <point x="25" y="0" type="line"/>
      <point x="282" y="0" type="line"/>
      <point x="282" y="78" type="line"/>
      <point x="25" y="78" type="line"/>
    </contour>
    <contour>
      <point x="100" y="0" type="line"/>
      <point x="197" y="0" type="line"/>
      <point x="197" y="406" type="line" smooth="yes"/>
      <point x="197" y="441"/>
      <point x="224" y="468"/>
      <point x="270" y="468" type="curve" smooth="yes"/>
      <point x="309" y="468"/>
      <point x="335" y="455"/>
      <point x="371" y="436" type="curve"/>
      <point x="406" y="515" type="line"/>
      <point x="360" y="536"/>
      <point x="319" y="555"/>
      <point x="258" y="555" type="curve" smooth="yes"/>
      <point x="163" y="555"/>
      <point x="100" y="497"/>
      <point x="100" y="404" type="curve" smooth="yes"/>
    </contour>
    <contour>
      <point x="306" y="357" type="line"/>
      <point x="25" y="357" type="line"/>
      <point x="25" y="279" type="line"/>
      <point x="306" y="279" type="line"/>
    </contour>
    <contour>
      <point x="152" y="557" type="move" name="top"/>
    </contour>
    <contour>
      <point x="152" y="0" type="move" name="bottom"/>
    </contour>
  </outline>
</glyph>
<glyph name="g" format="1">
  <advance width="423"/>
  <unicode hex="0067"/>
  <outline>
    <contour>
      <point x="314" y="-163"/>
      <point x="423" y="-111"/>
      <point x="423" y="-26" type="curve" smooth="yes"/>
      <point x="423" y="40"/>
      <point x="374" y="74"/>
      <point x="306" y="74" type="curve" smooth="yes"/>
      <point x="242" y="74"/>
      <point x="205" y="66"/>
      <point x="153" y="66" type="curve" smooth="yes"/>
      <point x="127" y="66"/>
      <point x="106" y="75"/>
      <point x="106" y="99" type="curve" smooth="yes"/>
      <point x="106" y="121"/>
      <point x="135" y="142"/>
      <point x="158" y="153" type="curve"/>
      <point x="113" y="180" type="line"/>
      <point x="67" y="165"/>
      <point x="20" y="129"/>
      <point x="20" y="76" type="curve" smooth="yes"/>
      <point x="20" y="22"/>
      <point x="73" y="-12"/>
      <point x="133" y="-12" type="curve" smooth="yes"/>
      <point x="199" y="-12"/>
      <point x="244" y="-2"/>
      <point x="285" y="-2" type="curve" smooth="yes"/>
      <point x="316" y="-2"/>
      <point x="333" y="-10"/>
      <point x="333" y="-31" type="curve" smooth="yes"/>
      <point x="333" y="-63"/>
      <point x="266" y="-84"/>
      <point x="196" y="-84" type="curve" smooth="yes"/>
      <point x="127" y="-84"/>
      <point x="93" y="-67"/>
      <point x="93" y="-38" type="curve" smooth="yes"/>
      <point x="93" y="-13"/>
      <point x="110" y="9"/>
      <point x="124" y="16" type="curve"/>
      <point x="75" y="37" type="line"/>
      <point x="43" y="20"/>
      <point x="8" y="-13"/>
      <point x="8" y="-59" type="curve" smooth="yes"/>
      <point x="8" y="-127"/>
      <point x="84" y="-163"/>
      <point x="182" y="-163" type="curve" smooth="yes"/>
    </contour>
    <contour>
      <point x="292" y="108"/>
      <point x="384" y="152"/>
      <point x="384" y="238" type="curve" smooth="yes"/>
      <point x="384" y="324"/>
      <point x="297" y="367"/>
      <point x="216" y="367" type="curve"/>
      <point x="140" y="367"/>
      <point x="48" y="323"/>
      <point x="48" y="237" type="curve" smooth="yes"/>
      <point x="48" y="151"/>
      <point x="135" y="108"/>
      <point x="216" y="108" type="curve"/>
    </contour>
    <contour>
      <point x="173" y="177"/>
      <point x="144" y="201"/>
      <point x="144" y="237" type="curve" smooth="yes"/>
      <point x="144" y="272"/>
      <point x="173" y="298"/>
      <point x="216" y="298" type="curve"/>
      <point x="259" y="298"/>
      <point x="288" y="274"/>
      <point x="288" y="238" type="curve" smooth="yes"/>
      <point x="288" y="203"/>
      <point x="259" y="177"/>
      <point x="216" y="177" type="curve"/>
    </contour>
    <contour>
      <point x="345" y="346"/>
      <point x="371" y="361"/>
      <point x="428" y="361" type="curve"/>
      <point x="428" y="446" type="line" smooth="yes"/>
      <point x="363" y="443"/>
      <point x="300" y="411"/>
      <point x="286" y="335" type="curve"/>
      <point x="327" y="299" type="line"/>
    </contour>
    <contour>
      <point x="217" y="367" type="move" name="top"/>
    </contour>
    <contour>
      <point x="208" y="-167" type="move" name="bottom"/>
    </contour>
  </outline>
</glyph>
<glyph name="h" format="1">
  <advance width="538"/>
  <unicode hex="0068"/>
  <outline>
    <contour>
      <point x="473" y="0" type="line"/>
      <point x="473" y="197" type="line" smooth="yes"/>
      <point x="473" y="309"/>
      <point x="430" y="366"/>
      <point x="343" y="366" type="curve" smooth="yes"/>
      <point x="266" y="366"/>
      <point x="213" y="320"/>
      <point x="145" y="232" type="curve"/>
      <point x="145" y="154" type="line"/>
      <point x="199" y="231"/>
      <point x="250" y="278"/>
      <point x="302" y="278" type="curve" smooth="yes"/>
      <point x="349" y="278"/>
      <point x="374" y="246"/>
      <point x="374" y="196" type="curve" smooth="yes"/>
      <point x="374" y="0" type="line"/>
    </contour>
    <contour>
      <point x="244" y="0" type="line"/>
      <point x="244" y="80" type="line"/>
      <point x="10" y="80" type="line"/>
      <point x="10" y="0" type="line"/>
    </contour>
    <contour>
      <point x="538" y="0" type="line"/>
      <point x="538" y="80" type="line"/>
      <point x="314" y="80" type="line"/>
      <point x="314" y="0" type="line"/>
    </contour>
    <contour>
      <point x="10" y="520" type="line"/>
      <point x="10" y="440" type="line"/>
      <point x="85" y="440" type="line"/>
      <point x="85" y="0" type="line"/>
      <point x="184" y="0" type="line"/>
      <point x="184" y="520" type="line"/>
    </contour>
    <contour>
      <point x="288" y="179" type="move" name="center"/>
    </contour>
    <contour>
      <point x="288" y="0" type="move" name="bottom"/>
    </contour>
    <contour>
      <point x="288" y="367" type="move" name="top"/>
    </contour>
  </outline>
</glyph>
<glyph name="i" format="1">
  <advance width="279"/>
  <unicode hex="0069"/>
  <outline>
    <contour>
      <point x="199" y="0" type="line"/>
      <point x="199" y="357" type="line"/>
      <point x="100" y="357" type="line"/>
      <point x="100" y="0" type="line"/>
    </contour>
    <contour>
      <point x="274" y="0" type="line"/>
      <point x="274" y="78" type="line"/>
      <point x="25" y="78" type="line"/>
      <point x="25" y="0" type="line"/>
    </contour>
    <contour>
      <point x="197" y="279" type="line"/>
      <point x="197" y="357" type="line"/>
      <point x="25" y="357" type="line"/>
      <point x="25" y="279" type="line"/>
    </contour>
    <contour>
      <point x="182" y="422"/>
      <point x="210" y="445"/>
      <point x="210" y="475" type="curve"/>
      <point x="210" y="507"/>
      <point x="182" y="530"/>
      <point x="142" y="530" type="curve"/>
      <point x="104" y="530"/>
      <point x="74" y="507"/>
      <point x="74" y="475" type="curve"/>
      <point x="74" y="445"/>
      <point x="104" y="422"/>
      <point x="142" y="422" type="curve"/>
    </contour>
    <contour>
      <point x="274" y="0" type="move" name="ogonek"/>
    </contour>
    <contour>
      <point x="132" y="0" type="move" name="bottom"/>
    </contour>
    <contour>
      <point x="142" y="357" type="move" name="top"/>
    </contour>
  </outline>
</glyph>
<glyph name="j" format="1">
  <advance width="255"/>
  <unicode hex="006A"/>
  <outline>
    <contour>
      <point x="130" y="-190"/>
      <point x="197" y="-131"/>
      <point x="197" y="-20" type="curve" smooth="yes"/>
      <point x="197" y="344" type="line"/>
      <point x="100" y="344" type="line"/>
      <point x="100" y="-22" type="line" smooth="yes"/>
      <point x="100" y="-75"/>
      <point x="74" y="-103"/>
      <point x="36" y="-103" type="curve" smooth="yes"/>
      <point x="10" y="-103"/>
      <point x="-8" y="-97"/>
      <point x="-34" y="-88" type="curve"/>
      <point x="-58" y="-170" type="line"/>
      <point x="-33" y="-178"/>
      <point x="-8" y="-190"/>
      <point x="40" y="-190" type="curve" smooth="yes"/>
    </contour>
    <contour>
      <point x="197" y="279" type="line"/>
      <point x="197" y="357" type="line"/>
      <point x="25" y="357" type="line"/>
      <point x="25" y="279" type="line"/>
    </contour>
    <contour>
      <point x="182" y="422"/>
      <point x="210" y="445"/>
      <point x="210" y="475" type="curve"/>
      <point x="210" y="507"/>
      <point x="182" y="530"/>
      <point x="142" y="530" type="curve"/>
      <point x="104" y="530"/>
      <point x="74" y="507"/>
      <point x="74" y="475" type="curve"/>
      <point x="74" y="445"/>
      <point x="104" y="422"/>
      <point x="142" y="422" type="curve"/>
    </contour>
    <contour>
      <point x="143" y="357" type="move" name="top"/>
    </contour>
    <contour>
      <point x="143" y="0" type="move" name="bottom"/>
    </contour>
  </outline>
</glyph>
<glyph name="k" format="1">
  <advance width="514"/>
  <unicode hex="006B"/>
  <outline>
    <contour>
      <point x="382" y="131"/>
      <point x="465" y="172"/>
      <point x="466" y="251" type="curve" smooth="yes"/>
      <point x="467" y="329"/>
      <point x="403" y="366"/>
      <point x="334" y="366" type="curve" smooth="yes"/>
      <point x="275" y="366"/>
      <point x="213" y="332"/>
      <point x="162" y="274" type="curve"/>
      <point x="160" y="209" type="line"/>
      <point x="216" y="263"/>
      <point x="270" y="285"/>
      <point x="302" y="285" type="curve" smooth="yes"/>
      <point x="332" y="285"/>
      <point x="357" y="273"/>
      <point x="357" y="247" type="curve" smooth="yes"/>
      <point x="357" y="217"/>
      <point x="318" y="202"/>
      <point x="281" y="202" type="curve" smooth="yes"/>
      <point x="250" y="202"/>
      <point x="213" y="206"/>
      <point x="160" y="233" type="curve"/>
      <point x="160" y="171" type="line"/>
      <point x="210" y="140"/>
      <point x="247" y="131"/>
      <point x="308" y="131" type="curve" smooth="yes"/>
    </contour>
    <contour>
      <point x="246" y="0" type="line"/>
      <point x="246" y="78" type="line"/>
      <point x="10" y="78" type="line"/>
      <point x="10" y="0" type="line"/>
    </contour>
    <contour>
      <point x="181" y="0" type="line"/>
      <point x="181" y="520" type="line"/>
      <point x="85" y="520" type="line"/>
      <point x="85" y="0" type="line"/>
    </contour>
    <contour>
      <point x="474" y="-11"/>
      <point x="504" y="12"/>
      <point x="529" y="42" type="curve"/>
      <point x="484" y="105" type="line"/>
      <point x="469" y="88"/>
      <point x="452" y="75"/>
      <point x="428" y="75" type="curve" smooth="yes"/>
      <point x="401" y="75"/>
      <point x="375" y="100"/>
      <point x="367" y="149" type="curve"/>
      <point x="282" y="149" type="line"/>
      <point x="295" y="51"/>
      <point x="348" y="-11"/>
      <point x="424" y="-11" type="curve" smooth="yes"/>
    </contour>
    <contour>
      <point x="174" y="442" type="line"/>
      <point x="174" y="520" type="line"/>
      <point x="10" y="520" type="line"/>
      <point x="10" y="442" type="line"/>
    </contour>
    <contour>
      <point x="291" y="367" type="move" name="top"/>
    </contour>
    <contour>
      <point x="291" y="0" type="move" name="bottom"/>
    </contour>
  </outline>
</glyph>
<glyph name="l" format="1">
  <advance width="264"/>
  <unicode hex="006C"/>
  <outline>
    <contour>
      <point x="184" y="0" type="line"/>
      <point x="184" y="520" type="line"/>
      <point x="85" y="520" type="line"/>
      <point x="85" y="0" type="line"/>
    </contour>
    <contour>
      <point x="259" y="0" type="line"/>
      <point x="259" y="78" type="line"/>
      <point x="10" y="78" type="line"/>
      <point x="10" y="0" type="line"/>
    </contour>
    <contour>
      <point x="177" y="442" type="line"/>
      <point x="177" y="520" type="line"/>
      <point x="10" y="520" type="line"/>
      <point x="10" y="442" type="line"/>
    </contour>
    <contour>
      <point x="135" y="0" type="move" name="bottom"/>
    </contour>
    <contour>
      <point x="135" y="520" type="move" name="top"/>
    </contour>
    <contour>
      <point x="304" y="357" type="move" name="topright"/>
    </contour>
    <contour>
      <point x="135" y="283" type="move" name="center"/>
    </contour>
  </outline>
</glyph>
<glyph name="m" format="1">
  <advance width="808"/>
  <unicode hex="006D"/>
  <outline>
    <contour>
      <point x="192" y="279" type="line"/>
      <point x="192" y="357" type="line"/>
      <point x="25" y="357" type="line"/>
      <point x="25" y="279" type="line"/>
    </contour>
    <contour>
      <point x="199" y="0" type="line"/>
      <point x="199" y="357" type="line"/>
      <point x="100" y="357" type="line"/>
      <point x="100" y="0" type="line"/>
    </contour>
    <contour>
      <point x="259" y="0" type="line"/>
      <point x="259" y="78" type="line"/>
      <point x="25" y="78" type="line"/>
      <point x="25" y="0" type="line"/>
    </contour>
    <contour>
      <point x="471" y="0" type="line"/>
      <point x="471" y="202" type="line" smooth="yes"/>
      <point x="471" y="309"/>
      <point x="423" y="366"/>
      <point x="346" y="366" type="curve" smooth="yes"/>
      <point x="274" y="366"/>
      <point x="209" y="315"/>
      <point x="163" y="232" type="curve"/>
      <point x="163" y="154" type="line"/>
      <point x="209" y="231"/>
      <point x="261" y="274"/>
      <point x="310" y="274" type="curve" smooth="yes"/>
      <point x="352" y="274"/>
      <point x="372" y="242"/>
      <point x="372" y="201" type="curve" smooth="yes"/>
      <point x="372" y="0" type="line"/>
    </contour>
    <contour>
      <point x="531" y="0" type="line"/>
      <point x="531" y="78" type="line"/>
      <point x="312" y="78" type="line"/>
      <point x="312" y="0" type="line"/>
    </contour>
    <contour>
      <point x="743" y="0" type="line"/>
      <point x="743" y="202" type="line" smooth="yes"/>
      <point x="743" y="309"/>
      <point x="695" y="366"/>
      <point x="618" y="366" type="curve" smooth="yes"/>
      <point x="546" y="366"/>
      <point x="481" y="315"/>
      <point x="435" y="232" type="curve"/>
      <point x="435" y="154" type="line"/>
      <point x="481" y="231"/>
      <point x="533" y="274"/>
      <point x="582" y="274" type="curve" smooth="yes"/>
      <point x="624" y="274"/>
      <point x="644" y="242"/>
      <point x="644" y="201" type="curve" smooth="yes"/>
      <point x="644" y="0" type="line"/>
    </contour>
    <contour>
      <point x="808" y="0" type="line"/>
      <point x="808" y="78" type="line"/>
      <point x="584" y="78" type="line"/>
      <point x="584" y="0" type="line"/>
    </contour>
    <contour>
      <point x="470" y="367" type="move" name="top"/>
    </contour>
    <contour>
      <point x="470" y="0" type="move" name="bottom"/>
    </contour>
  </outline>
</glyph>
<glyph name="n" format="1">
  <advance width="556"/>
  <unicode hex="006E"/>
  <outline>
    <contour>
      <point x="491" y="0" type="line"/>
      <point x="491" y="197" type="line" smooth="yes"/>
      <point x="491" y="309"/>
      <point x="443" y="366"/>
      <point x="356" y="366" type="curve" smooth="yes"/>
      <point x="284" y="366"/>
      <point x="231" y="320"/>
      <point x="163" y="232" type="curve"/>
      <point x="163" y="154" type="line"/>
      <point x="217" y="231"/>
      <point x="268" y="274"/>
      <point x="320" y="274" type="curve" smooth="yes"/>
      <point x="367" y="274"/>
      <point x="392" y="242"/>
      <point x="392" y="196" type="curve" smooth="yes"/>
      <point x="392" y="0" type="line"/>
    </contour>
    <contour>
      <point x="259" y="0" type="line"/>
      <point x="259" y="78" type="line"/>
      <point x="25" y="78" type="line"/>
      <point x="25" y="0" type="line"/>
    </contour>
    <contour>
      <point x="199" y="0" type="line"/>
      <point x="199" y="357" type="line"/>
      <point x="100" y="357" type="line"/>
      <point x="100" y="0" type="line"/>
    </contour>
    <contour>
      <point x="192" y="279" type="line"/>
      <point x="192" y="357" type="line"/>
      <point x="25" y="357" type="line"/>
      <point x="25" y="279" type="line"/>
    </contour>
    <contour>
      <point x="556" y="0" type="line"/>
      <point x="556" y="78" type="line"/>
      <point x="332" y="78" type="line"/>
      <point x="332" y="0" type="line"/>
    </contour>
    <contour>
      <point x="294" y="367" type="move" name="top"/>
    </contour>
    <contour>
      <point x="304" y="0" type="move" name="bottom"/>
    </contour>
  </outline>
</glyph>
<glyph name="o" format="1">
  <advance width="454"/>
  <unicode hex="006F"/>
  <outline>
    <contour>
      <point x="336" y="-11"/>
      <point x="429" y="63"/>
      <point x="429" y="178" type="curve"/>
      <point x="429" y="293"/>
      <point x="329" y="367"/>
      <point x="227" y="367" type="curve"/>
      <point x="122" y="367"/>
      <point x="25" y="293"/>
      <point x="25" y="178" type="curve"/>
      <point x="25" y="63"/>
      <point x="122" y="-11"/>
      <point x="227" y="-11" type="curve"/>
    </contour>
    <contour>
      <point x="172" y="67"/>
      <point x="128" y="112"/>
      <point x="128" y="178" type="curve"/>
      <point x="128" y="244"/>
      <point x="172" y="289"/>
      <point x="227" y="289" type="curve"/>
      <point x="282" y="289"/>
      <point x="326" y="244"/>
      <point x="326" y="178" type="curve"/>
      <point x="326" y="112"/>
      <point x="282" y="67"/>
      <point x="227" y="67" type="curve"/>
    </contour>
    <contour>
      <point x="227" y="-10" type="move" name="bottom"/>
    </contour>
    <contour>
      <point x="219" y="-10" type="move" name="ogonek"/>
    </contour>
    <contour>
      <point x="227" y="367" type="move" name="top"/>
    </contour>
    <contour>
      <point x="596" y="357" type="move" name="topright"/>
    </contour>
    <contour>
      <point x="227" y="179" type="move" name="center"/>
    </contour>
  </outline>
</glyph>
<glyph name="p" format="1">
  <advance width="519"/>
  <unicode hex="0070"/>
  <outline>
    <contour>
      <point x="413" y="-11"/>
      <point x="494" y="70"/>
      <point x="494" y="180" type="curve" smooth="yes"/>
      <point x="494" y="289"/>
      <point x="417" y="367"/>
      <point x="322" y="367" type="curve" smooth="yes"/>
      <point x="246" y="367"/>
      <point x="166" y="298"/>
      <point x="131" y="194" type="curve"/>
      <point x="131" y="121" type="line"/>
      <point x="166" y="217"/>
      <point x="233" y="282"/>
      <point x="289" y="283" type="curve" smooth="yes"/>
      <point x="346" y="284"/>
      <point x="385" y="241"/>
      <point x="385" y="180" type="curve" smooth="yes"/>
      <point x="385" y="117"/>
      <point x="341" y="71"/>
      <point x="274" y="71" type="curve" smooth="yes"/>
      <point x="219" y="71"/>
      <point x="165" y="115"/>
      <point x="131" y="158" type="curve"/>
      <point x="131" y="91" type="line"/>
      <point x="164" y="49"/>
      <point x="212" y="-11"/>
      <point x="299" y="-11" type="curve" smooth="yes"/>
    </contour>
    <contour>
      <point x="259" y="-165" type="line"/>
      <point x="259" y="-87" type="line"/>
      <point x="10" y="-87" type="line"/>
      <point x="10" y="-165" type="line"/>
    </contour>
    <contour>
      <point x="184" y="-158" type="line"/>
      <point x="184" y="357" type="line"/>
      <point x="85" y="357" type="line"/>
      <point x="85" y="-158" type="line"/>
    </contour>
    <contour>
      <point x="177" y="279" type="line"/>
      <point x="182" y="357" type="line"/>
      <point x="10" y="357" type="line"/>
      <point x="10" y="279" type="line"/>
    </contour>
    <contour>
      <point x="305" y="367" type="move" name="top"/>
    </contour>
    <contour>
      <point x="305" y="-10" type="move" name="bottom"/>
    </contour>
  </outline>
</glyph>
<glyph name="q" format="1">
  <advance width="508"/>
  <unicode hex="0071"/>
  <outline>
    <contour>
      <point x="282" y="-11"/>
      <point x="342" y="39"/>
      <point x="383" y="113" type="curve"/>
      <point x="383" y="186" type="line"/>
      <point x="341" y="104"/>
      <point x="282" y="74"/>
      <point x="235" y="73" type="curve" smooth="yes"/>
      <point x="173" y="72"/>
      <point x="134" y="118"/>
      <point x="134" y="176" type="curve" smooth="yes"/>
      <point x="134" y="241"/>
      <point x="185" y="285"/>
      <point x="255" y="285" type="curve" smooth="yes"/>
      <point x="325" y="285"/>
      <point x="435" y="204"/>
      <point x="493" y="148" type="curve"/>
      <point x="493" y="245" type="line"/>
      <point x="436" y="300"/>
      <point x="332" y="367"/>
      <point x="230" y="367" type="curve" smooth="yes"/>
      <point x="113" y="367"/>
      <point x="25" y="288"/>
      <point x="25" y="176" type="curve" smooth="yes"/>
      <point x="25" y="67"/>
      <point x="102" y="-11"/>
      <point x="202" y="-11" type="curve" smooth="yes"/>
    </contour>
    <contour>
      <point x="486" y="-165" type="line"/>
      <point x="486" y="-87" type="line"/>
      <point x="227" y="-87" type="line"/>
      <point x="227" y="-165" type="line"/>
    </contour>
    <contour>
      <point x="411" y="-158" type="line"/>
      <point x="411" y="367" type="line"/>
      <point x="312" y="348" type="line"/>
      <point x="312" y="-158" type="line"/>
    </contour>
    <contour>
      <point x="196" y="179" type="move" name="center"/>
    </contour>
    <contour>
      <point x="196" y="-10" type="move" name="bottom"/>
    </contour>
    <contour>
      <point x="196" y="367" type="move" name="top"/>
    </contour>
  </outline>
</glyph>
<glyph name="r" format="1">
  <advance width="433"/>
  <unicode hex="0072"/>
  <outline>
    <contour>
      <point x="217" y="226"/>
      <point x="275" y="268"/>
      <point x="310" y="268" type="curve"/>
      <point x="310" y="194" type="line"/>
      <point x="403" y="194" type="line"/>
      <point x="403" y="366" type="line"/>
      <point x="357" y="366" type="line" smooth="yes"/>
      <point x="292" y="366"/>
      <point x="217" y="307"/>
      <point x="163" y="229" type="curve"/>
      <point x="163" y="154" type="line"/>
    </contour>
    <contour>
      <point x="274" y="0" type="line"/>
      <point x="274" y="78" type="line"/>
      <point x="25" y="78" type="line"/>
      <point x="25" y="0" type="line"/>
    </contour>
    <contour>
      <point x="199" y="0" type="line"/>
      <point x="199" y="357" type="line"/>
      <point x="100" y="357" type="line"/>
      <point x="100" y="0" type="line"/>
    </contour>
    <contour>
      <point x="192" y="279" type="line"/>
      <point x="192" y="357" type="line"/>
      <point x="25" y="357" type="line"/>
      <point x="25" y="279" type="line"/>
    </contour>
    <contour>
      <point x="260" y="357" type="move" name="top"/>
    </contour>
    <contour>
      <point x="260" y="0" type="move" name="bottom"/>
    </contour>
  </outline>
</glyph>
<glyph name="s" format="1">
  <advance width="392"/>
  <unicode hex="0073"/>
  <outline>
    <contour>
      <point x="313" y="-11"/>
      <point x="367" y="32"/>
      <point x="367" y="97" type="curve" smooth="yes"/>
      <point x="367" y="160"/>
      <point x="314" y="197"/>
      <point x="225" y="222" type="curve" smooth="yes"/>
      <point x="154" y="242"/>
      <point x="133" y="250"/>
      <point x="133" y="270" type="curve" smooth="yes"/>
      <point x="133" y="289"/>
      <point x="147" y="303"/>
      <point x="186" y="303" type="curve" smooth="yes"/>
      <point x="233" y="303"/>
      <point x="275" y="281"/>
      <point x="303" y="236" type="curve"/>
      <point x="346" y="239" type="line"/>
      <point x="346" y="357" type="line"/>
      <point x="272" y="357" type="line"/>
      <point x="272" y="275" type="line"/>
      <point x="308" y="275" type="line"/>
      <point x="274" y="337"/>
      <point x="234" y="367"/>
      <point x="162" y="367" type="curve" smooth="yes"/>
      <point x="84" y="367"/>
      <point x="30" y="319"/>
      <point x="30" y="254" type="curve" smooth="yes"/>
      <point x="30" y="197"/>
      <point x="73" y="156"/>
      <point x="167" y="134" type="curve" smooth="yes"/>
      <point x="243" y="116"/>
      <point x="264" y="103"/>
      <point x="264" y="83" type="curve" smooth="yes"/>
      <point x="264" y="64"/>
      <point x="247" y="53"/>
      <point x="211" y="53" type="curve" smooth="yes"/>
      <point x="166" y="53"/>
      <point x="103" y="80"/>
      <point x="74" y="120" type="curve"/>
      <point x="31" y="117" type="line"/>
      <point x="31" y="-1" type="line"/>
      <point x="105" y="-1" type="line"/>
      <point x="105" y="81" type="line"/>
      <point x="69" y="81" type="line"/>
      <point x="103" y="19"/>
      <point x="158" y="-11"/>
      <point x="225" y="-11" type="curve" smooth="yes"/>
    </contour>
    <contour>
      <point x="190" y="367" type="move" name="top"/>
    </contour>
    <contour>
      <point x="246" y="-10" type="move" name="bottom"/>
    </contour>
  </outline>
</glyph>
<glyph name="t" format="1">
  <advance width="320"/>
  <unicode hex="0074"/>
  <outline>
    <contour>
      <point x="261" y="-10"/>
      <point x="298" y="7"/>
      <point x="330" y="27" type="curve"/>
      <point x="296" y="101" type="line"/>
      <point x="272" y="86"/>
      <point x="251" y="77"/>
      <point x="225" y="77" type="curve" smooth="yes"/>
      <point x="187" y="77"/>
      <point x="167" y="100"/>
      <point x="167" y="143" type="curve" smooth="yes"/>
      <point x="167" y="456" type="line"/>
      <point x="70" y="456" type="line"/>
      <point x="70" y="143" type="line" smooth="yes"/>
      <point x="70" y="48"/>
      <point x="122" y="-10"/>
      <point x="208" y="-10" type="curve" smooth="yes"/>
    </contour>
    <contour>
      <point x="276" y="279" type="line"/>
      <point x="276" y="357" type="line"/>
      <point x="-5" y="357" type="line"/>
      <point x="-5" y="279" type="line"/>
    </contour>
    <contour>
      <point x="199" y="-10" type="move" name="bottom"/>
    </contour>
    <contour>
      <point x="159" y="456" type="move" name="top"/>
    </contour>
    <contour>
      <point x="252" y="419" type="move" name="topright"/>
    </contour>
    <contour>
      <point x="159" y="179" type="move" name="center"/>
    </contour>
  </outline>
</glyph>
<glyph name="u" format="1">
  <advance width="508"/>
  <unicode hex="0075"/>
  <outline>
    <contour>
      <point x="262" y="-10"/>
      <point x="315" y="36"/>
      <point x="383" y="124" type="curve"/>
      <point x="383" y="202" type="line"/>
      <point x="329" y="125"/>
      <point x="278" y="82"/>
      <point x="231" y="82" type="curve" smooth="yes"/>
      <point x="179" y="82"/>
      <point x="164" y="114"/>
      <point x="164" y="160" type="curve" smooth="yes"/>
      <point x="164" y="356" type="line"/>
      <point x="65" y="356" type="line"/>
      <point x="65" y="159" type="line" smooth="yes"/>
      <point x="65" y="47"/>
      <point x="113" y="-10"/>
      <point x="195" y="-10" type="curve" smooth="yes"/>
    </contour>
    <contour>
      <point x="164" y="279" type="line"/>
      <point x="164" y="357" type="line"/>
      <point x="0" y="357" type="line"/>
      <point x="0" y="279" type="line"/>
    </contour>
    <contour>
      <point x="460" y="-6"/>
      <point x="480" y="2"/>
      <point x="498" y="10" type="curve"/>
      <point x="478" y="80" type="line"/>
      <point x="472" y="78"/>
      <point x="468" y="76"/>
      <point x="460" y="76" type="curve" smooth="yes"/>
      <point x="448" y="76"/>
      <point x="436" y="82"/>
      <point x="436" y="105" type="curve"/>
      <point x="436" y="357" type="line"/>
      <point x="337" y="357" type="line"/>
      <point x="337" y="95" type="line"/>
      <point x="337" y="32"/>
      <point x="377" y="-6"/>
      <point x="430" y="-6" type="curve" smooth="yes"/>
    </contour>
    <contour>
      <point x="422" y="279" type="line"/>
      <point x="422" y="357" type="line"/>
      <point x="277" y="357" type="line"/>
      <point x="277" y="279" type="line"/>
    </contour>
    <contour>
      <point x="479" y="1" type="move" name="ogonek"/>
    </contour>
    <contour>
      <point x="224" y="347" type="move" name="top"/>
    </contour>
    <contour>
      <point x="454" y="357" type="move" name="topright"/>
    </contour>
    <contour>
      <point x="211" y="-10" type="move" name="bottom"/>
    </contour>
  </outline>
</glyph>
<glyph name="v" format="1">
  <advance width="503"/>
  <unicode hex="0076"/>
  <outline>
    <contour>
      <point x="5" y="357" type="line"/>
      <point x="5" y="279" type="line"/>
      <point x="222" y="279" type="line"/>
      <point x="222" y="357" type="line"/>
    </contour>
    <contour>
      <point x="311" y="357" type="line"/>
      <point x="311" y="279" type="line"/>
      <point x="498" y="279" type="line"/>
      <point x="498" y="357" type="line"/>
    </contour>
    <contour>
      <point x="278" y="-18" type="line"/>
      <point x="479" y="344" type="line"/>
      <point x="386" y="344" type="line"/>
      <point x="262" y="96" type="line"/>
      <point x="139" y="344" type="line"/>
      <point x="24" y="344" type="line"/>
      <point x="225" y="-18" type="line"/>
    </contour>
    <contour>
      <point x="252" y="347" type="move" name="top"/>
    </contour>
    <contour>
      <point x="252" y="0" type="move" name="bottom"/>
    </contour>
  </outline>
</glyph>
<glyph name="w" format="1">
  <advance width="694"/>
  <unicode hex="0077"/>
  <outline>
    <contour>
      <point x="248" y="-18" type="line"/>
      <point x="449" y="344" type="line"/>
      <point x="362" y="344" type="line"/>
      <point x="233" y="94" type="line"/>
      <point x="121" y="344" type="line"/>
      <point x="14" y="344" type="line"/>
      <point x="195" y="-18" type="line"/>
    </contour>
    <contour>
      <point x="207" y="279" type="line"/>
      <point x="207" y="357" type="line"/>
      <point x="0" y="357" type="line"/>
      <point x="0" y="279" type="line"/>
    </contour>
    <contour>
      <point x="503" y="-18" type="line"/>
      <point x="694" y="344" type="line"/>
      <point x="607" y="344" type="line"/>
      <point x="485" y="94" type="line"/>
      <point x="391" y="287" type="line"/>
      <point x="339" y="189" type="line"/>
      <point x="450" y="-18" type="line"/>
    </contour>
    <contour>
      <point x="459" y="279" type="line"/>
      <point x="459" y="357" type="line"/>
      <point x="282" y="357" type="line"/>
      <point x="282" y="279" type="line"/>
    </contour>
    <contour>
      <point x="702" y="279" type="line"/>
      <point x="702" y="357" type="line"/>
      <point x="530" y="357" type="line"/>
      <point x="530" y="279" type="line"/>
    </contour>
    <contour>
      <point x="352" y="357" type="move" name="top"/>
    </contour>
    <contour>
      <point x="352" y="0" type="move" name="bottom"/>
    </contour>
  </outline>
</glyph>
<glyph name="x" format="1">
  <advance width="549"/>
  <unicode hex="0078"/>
  <outline>
    <contour>
      <point x="536" y="279" type="line"/>
      <point x="536" y="357" type="line"/>
      <point x="324" y="357" type="line"/>
      <point x="324" y="279" type="line"/>
    </contour>
    <contour>
      <point x="156" y="65" type="line"/>
      <point x="278" y="152" type="line"/>
      <point x="307" y="152" type="line"/>
      <point x="503" y="294" type="line"/>
      <point x="395" y="294" type="line"/>
      <point x="272" y="205" type="line"/>
      <point x="242" y="205" type="line"/>
      <point x="47" y="65" type="line"/>
    </contour>
    <contour>
      <point x="228" y="-1" type="line"/>
      <point x="228" y="77" type="line"/>
      <point x="16" y="77" type="line"/>
      <point x="16" y="-1" type="line"/>
    </contour>
    <contour>
      <point x="95" y="216" type="line"/>
      <point x="95" y="257"/>
      <point x="104" y="284"/>
      <point x="139" y="284" type="curve" smooth="yes"/>
      <point x="172" y="284"/>
      <point x="189" y="242"/>
      <point x="231" y="169" type="curve"/>
      <point x="235" y="169" type="line"/>
      <point x="282" y="82"/>
      <point x="330" y="-8"/>
      <point x="420" y="-8" type="curve" smooth="yes"/>
      <point x="485" y="-8"/>
      <point x="544" y="41"/>
      <point x="544" y="133" type="curve"/>
      <point x="459" y="143" type="line"/>
      <point x="459" y="97"/>
      <point x="438" y="75"/>
      <point x="413" y="75" type="curve" smooth="yes"/>
      <point x="382" y="75"/>
      <point x="360" y="117"/>
      <point x="318" y="190" type="curve"/>
      <point x="314" y="190" type="line"/>
      <point x="267" y="277"/>
      <point x="224" y="367"/>
      <point x="132" y="367" type="curve" smooth="yes"/>
      <point x="57" y="367"/>
      <point x="10" y="313"/>
      <point x="10" y="226" type="curve"/>
    </contour>
    <contour>
      <point x="275" y="357" type="move" name="top"/>
    </contour>
    <contour>
      <point x="275" y="0" type="move" name="bottom"/>
    </contour>
  </outline>
</glyph>
<glyph name="y" format="1">
  <advance width="507"/>
  <unicode hex="0079"/>
  <outline>
    <contour>
      <point x="202" y="-190"/>
      <point x="256" y="-133"/>
      <point x="304" y="-28" type="curve" smooth="yes"/>
      <point x="474" y="344" type="line"/>
      <point x="379" y="344" type="line"/>
      <point x="223" y="-9" type="line" smooth="yes"/>
      <point x="195" y="-73"/>
      <point x="168" y="-103"/>
      <point x="125" y="-103" type="curve" smooth="yes"/>
      <point x="97" y="-103"/>
      <point x="72" y="-90"/>
      <point x="53" y="-78" type="curve"/>
      <point x="15" y="-153" type="line"/>
      <point x="49" y="-174"/>
      <point x="80" y="-190"/>
      <point x="125" y="-190" type="curve" smooth="yes"/>
    </contour>
    <contour>
      <point x="298" y="20" type="line"/>
      <point x="148" y="344" type="line"/>
      <point x="33" y="344" type="line"/>
      <point x="242" y="-52" type="line"/>
    </contour>
    <contour>
      <point x="231" y="279" type="line"/>
      <point x="231" y="357" type="line"/>
      <point x="9" y="357" type="line"/>
      <point x="9" y="279" type="line"/>
    </contour>
    <contour>
      <point x="502" y="279" type="line"/>
      <point x="502" y="357" type="line"/>
      <point x="288" y="357" type="line"/>
      <point x="288" y="279" type="line"/>
    </contour>
    <contour>
      <point x="260" y="357" type="move" name="top"/>
    </contour>
    <contour>
      <point x="260" y="0" type="move" name="bottom"/>
    </contour>
  </outline>
</glyph>
<glyph name="z" format="1">
  <advance width="468"/>
  <unicode hex="007A"/>
  <outline>
    <contour>
      <point x="343" y="278"/>
      <point x="305" y="257"/>
      <point x="223" y="220" type="curve" smooth="yes"/>
      <point x="151" y="187"/>
      <point x="62" y="142"/>
      <point x="20" y="22" type="curve"/>
      <point x="101" y="-11" type="line"/>
      <point x="134" y="81"/>
      <point x="195" y="112"/>
      <point x="274" y="149" type="curve" smooth="yes"/>
      <point x="358" y="188"/>
      <point x="418" y="229"/>
      <point x="446" y="337" type="curve"/>
      <point x="363" y="368" type="line"/>
    </contour>
    <contour>
      <point x="370" y="-11"/>
      <point x="442" y="35"/>
      <point x="453" y="120" type="curve"/>
      <point x="369" y="144" type="line"/>
      <point x="360" y="104"/>
      <point x="329" y="72"/>
      <point x="291" y="72" type="curve" smooth="yes"/>
      <point x="246" y="72"/>
      <point x="211" y="92"/>
      <point x="130" y="145" type="curve"/>
      <point x="107" y="100" type="line"/>
      <point x="187" y="30"/>
      <point x="230" y="-11"/>
      <point x="306" y="-11" type="curve" smooth="yes"/>
    </contour>
    <contour>
      <point x="123" y="204" type="line"/>
      <point x="123" y="284" type="line"/>
      <point x="227" y="284"/>
      <point x="278" y="242"/>
      <point x="314" y="212" type="curve"/>
      <point x="345" y="261" type="line"/>
      <point x="275" y="327"/>
      <point x="229" y="367"/>
      <point x="98" y="367" type="curve" smooth="yes"/>
      <point x="38" y="367" type="line"/>
      <point x="38" y="204" type="line"/>
    </contour>
    <contour>
      <point x="244" y="367" type="move" name="top"/>
    </contour>
    <contour>
      <point x="204" y="-10" type="move" name="bottom"/>
    </contour>
  </outline>
</glyph>
<glyph name="braceleft" format="1">
  <advance width="330"/>
  <unicode hex="007B"/>
  <outline>
    <contour>
      <point x="276" y="-120"/>
      <point x="312" y="-107"/>
      <point x="350" y="-92" type="curve"/>
      <point x="322" y="-15" type="line"/>
      <point x="291" y="-28"/>
      <point x="263" y="-36"/>
      <point x="229" y="-36" type="curve" smooth="yes"/>
      <point x="193" y="-36"/>
      <point x="158" y="-27"/>
      <point x="158" y="8" type="curve" smooth="yes"/>
      <point x="158" y="56"/>
      <point x="265" y="86"/>
      <point x="265" y="171" type="curve" smooth="yes"/>
      <point x="265" y="234"/>
      <point x="199" y="270"/>
      <point x="111" y="270" type="curve"/>
      <point x="111" y="260" type="line"/>
      <point x="199" y="260"/>
      <point x="265" y="296"/>
      <point x="265" y="359" type="curve" smooth="yes"/>
      <point x="265" y="444"/>
      <point x="158" y="474"/>
      <point x="158" y="522" type="curve" smooth="yes"/>
      <point x="158" y="557"/>
      <point x="193" y="566"/>
      <point x="229" y="566" type="curve" smooth="yes"/>
      <point x="263" y="566"/>
      <point x="291" y="558"/>
      <point x="322" y="545" type="curve"/>
      <point x="350" y="622" type="line"/>
      <point x="312" y="637"/>
      <point x="276" y="650"/>
      <point x="215" y="650" type="curve" smooth="yes"/>
      <point x="134" y="650"/>
      <point x="63" y="607"/>
      <point x="63" y="527" type="curve" smooth="yes"/>
      <point x="63" y="440"/>
      <point x="176" y="398"/>
      <point x="176" y="350" type="curve" smooth="yes"/>
      <point x="176" y="317"/>
      <point x="140" y="301"/>
      <point x="77" y="301" type="curve" smooth="yes"/>
      <point x="35" y="301" type="line"/>
      <point x="35" y="229" type="line"/>
      <point x="77" y="229" type="line" smooth="yes"/>
      <point x="140" y="230"/>
      <point x="176" y="213"/>
      <point x="176" y="180" type="curve" smooth="yes"/>
      <point x="176" y="132"/>
      <point x="63" y="90"/>
      <point x="63" y="3" type="curve" smooth="yes"/>
      <point x="63" y="-77"/>
      <point x="134" y="-120"/>
      <point x="215" y="-120" type="curve" smooth="yes"/>
    </contour>
  </outline>
</glyph>
<glyph name="bar" format="1">
  <advance width="274"/>
  <unicode hex="007C"/>
  <outline>
    <contour>
      <point x="90" y="-146" type="line"/>
      <point x="184" y="-146" type="line"/>
      <point x="184" y="634" type="line"/>
      <point x="90" y="634" type="line"/>
    </contour>
  </outline>
</glyph>
<glyph name="asciitilde" format="1">
  <advance width="533"/>
  <unicode hex="007E"/>
  <outline>
    <contour>
      <point x="457" y="137"/>
      <point x="492" y="229"/>
      <point x="493" y="326" type="curve"/>
      <point x="409" y="328" type="line"/>
      <point x="409" y="253"/>
      <point x="392" y="220"/>
      <point x="361" y="220" type="curve" smooth="yes"/>
      <point x="342" y="220"/>
      <point x="326" y="237"/>
      <point x="294" y="274" type="curve"/>
      <point x="260" y="313"/>
      <point x="226" y="343"/>
      <point x="172" y="343" type="curve" smooth="yes"/>
      <point x="76" y="343"/>
      <point x="41" y="251"/>
      <point x="40" y="154" type="curve"/>
      <point x="124" y="152" type="line"/>
      <point x="125" y="227"/>
      <point x="141" y="260"/>
      <point x="172" y="260" type="curve" smooth="yes"/>
      <point x="191" y="260"/>
      <point x="206" y="245"/>
      <point x="236" y="209" type="curve"/>
      <point x="271" y="168"/>
      <point x="306" y="137"/>
      <point x="361" y="137" type="curve" smooth="yes"/>
    </contour>
  </outline>
</glyph>
<glyph name="cent" format="1">
  <advance width="433"/>
  <unicode hex="00A2"/>
  <outline>
    <contour>
      <point x="320" y="55"/>
      <point x="365" y="83"/>
      <point x="403" y="117" type="curve"/>
      <point x="356" y="185" type="line"/>
      <point x="326" y="157"/>
      <point x="296" y="134"/>
      <point x="248" y="134" type="curve" smooth="yes"/>
      <point x="187" y="134"/>
      <point x="144" y="178"/>
      <point x="144" y="235" type="curve" smooth="yes"/>
      <point x="144" y="296"/>
      <point x="192" y="336"/>
      <point x="245" y="336" type="curve" smooth="yes"/>
      <point x="292" y="336"/>
      <point x="320" y="313"/>
      <point x="344" y="278" type="curve"/>
      <point x="392" y="281" type="line"/>
      <point x="392" y="409" type="line"/>
      <point x="323" y="409" type="line"/>
      <point x="323" y="337" type="line"/>
      <point x="359" y="332" type="line"/>
      <point x="329" y="380"/>
      <point x="293" y="416"/>
      <point x="220" y="416" type="curve" smooth="yes"/>
      <point x="128" y="416"/>
      <point x="35" y="343"/>
      <point x="35" y="235" type="curve" smooth="yes"/>
      <point x="35" y="113"/>
      <point x="148" y="53"/>
      <point x="243" y="54" type="curve" smooth="yes"/>
    </contour>
    <contour>
      <point x="280" y="-10" type="line"/>
      <point x="280" y="105" type="line"/>
      <point x="275" y="118" type="line"/>
      <point x="275" y="369" type="line"/>
      <point x="280" y="382" type="line"/>
      <point x="280" y="480" type="line"/>
      <point x="197" y="480" type="line"/>
      <point x="197" y="382" type="line"/>
      <point x="202" y="369" type="line"/>
      <point x="202" y="118" type="line"/>
      <point x="197" y="105" type="line"/>
      <point x="197" y="-10" type="line"/>
    </contour>
  </outline>
</glyph>
<glyph name="sterling" format="1">
  <advance width="515"/>
  <unicode hex="00A3"/>
  <outline>
    <contour>
      <point x="77" y="-10" type="line" smooth="yes"/>
      <point x="196" y="-10"/>
      <point x="260" y="53"/>
      <point x="260" y="128" type="curve" smooth="yes"/>
      <point x="260" y="199"/>
      <point x="188" y="265"/>
      <point x="188" y="330" type="curve" smooth="yes"/>
      <point x="188" y="377"/>
      <point x="233" y="397"/>
      <point x="274" y="397" type="curve" smooth="yes"/>
      <point x="315" y="397"/>
      <point x="376" y="384"/>
      <point x="423" y="316" type="curve"/>
      <point x="473" y="320" type="line"/>
      <point x="473" y="470" type="line"/>
      <point x="390" y="470" type="line"/>
      <point x="390" y="363" type="line"/>
      <point x="454" y="361" type="line"/>
      <point x="402" y="440"/>
      <point x="334" y="480"/>
      <point x="250" y="480" type="curve" smooth="yes"/>
      <point x="157" y="480"/>
      <point x="88" y="422"/>
      <point x="88" y="330" type="curve" smooth="yes"/>
      <point x="88" y="255"/>
      <point x="156" y="193"/>
      <point x="156" y="129" type="curve" smooth="yes"/>
      <point x="156" y="82"/>
      <point x="105" y="72"/>
      <point x="77" y="72" type="curve" smooth="yes"/>
      <point x="50" y="72" type="line"/>
      <point x="50" y="-10" type="line"/>
    </contour>
    <contour>
      <point x="381" y="146" type="line"/>
      <point x="381" y="203" type="line"/>
      <point x="50" y="203" type="line"/>
      <point x="50" y="146" type="line"/>
    </contour>
    <contour>
      <point x="435" y="-10"/>
      <point x="492" y="41"/>
      <point x="505" y="121" type="curve"/>
      <point x="432" y="145" type="line"/>
      <point x="424" y="107"/>
      <point x="404" y="73"/>
      <point x="357" y="73" type="curve" smooth="yes"/>
      <point x="303" y="73"/>
      <point x="236" y="122"/>
      <point x="201" y="165" type="curve"/>
      <point x="191" y="86" type="line"/>
      <point x="227" y="41"/>
      <point x="293" y="-10"/>
      <point x="356" y="-10" type="curve" smooth="yes"/>
    </contour>
    <contour>
      <point x="383" y="231" type="line"/>
      <point x="383" y="288" type="line"/>
      <point x="52" y="288" type="line"/>
      <point x="52" y="231" type="line"/>
    </contour>
  </outline>
</glyph>
<glyph name="currency" format="1">
  <advance width="421"/>
  <unicode hex="00A4"/>
  <outline>
    <contour>
      <point x="291" y="91"/>
      <point x="353" y="151"/>
      <point x="353" y="230" type="curve" smooth="yes"/>
      <point x="353" y="312"/>
      <point x="291" y="368"/>
      <point x="209" y="368" type="curve" smooth="yes"/>
      <point x="132" y="368"/>
      <point x="64" y="312"/>
      <point x="64" y="230" type="curve" smooth="yes"/>
      <point x="64" y="151"/>
      <point x="132" y="91"/>
      <point x="209" y="91" type="curve" smooth="yes"/>
    </contour>
    <contour>
      <point x="154" y="124" type="line"/>
      <point x="116" y="159" type="line"/>
      <point x="35" y="63" type="line"/>
      <point x="74" y="28" type="line"/>
    </contour>
    <contour>
      <point x="386" y="63" type="line"/>
      <point x="305" y="159" type="line"/>
      <point x="267" y="124" type="line"/>
      <point x="347" y="28" type="line"/>
    </contour>
    <contour>
      <point x="154" y="335" type="line"/>
      <point x="74" y="431" type="line"/>
      <point x="35" y="396" type="line"/>
      <point x="116" y="300" type="line"/>
    </contour>
    <contour>
      <point x="386" y="396" type="line"/>
      <point x="347" y="431" type="line"/>
      <point x="267" y="335" type="line"/>
      <point x="305" y="300" type="line"/>
    </contour>
    <contour>
      <point x="171" y="159"/>
      <point x="142" y="191"/>
      <point x="142" y="230" type="curve" smooth="yes"/>
      <point x="142" y="271"/>
      <point x="171" y="300"/>
      <point x="209" y="300" type="curve" smooth="yes"/>
      <point x="248" y="300"/>
      <point x="275" y="271"/>
      <point x="275" y="230" type="curve" smooth="yes"/>
      <point x="275" y="191"/>
      <point x="248" y="159"/>
      <point x="209" y="159" type="curve" smooth="yes"/>
    </contour>
  </outline>
</glyph>
<glyph name="yen" format="1">
  <advance width="633"/>
  <unicode hex="00A5"/>
  <outline>
    <contour>
      <point x="267" y="385" type="line"/>
      <point x="267" y="470" type="line"/>
      <point x="30" y="470" type="line"/>
      <point x="30" y="385" type="line"/>
    </contour>
    <contour>
      <point x="603" y="385" type="line"/>
      <point x="603" y="470" type="line"/>
      <point x="366" y="470" type="line"/>
      <point x="366" y="385" type="line"/>
    </contour>
    <contour>
      <point x="341" y="155" type="line"/>
      <point x="579" y="457" type="line"/>
      <point x="476" y="457" type="line"/>
      <point x="297" y="209" type="line"/>
      <point x="350" y="210" type="line"/>
      <point x="158" y="457" type="line"/>
      <point x="39" y="457" type="line"/>
      <point x="291" y="155" type="line"/>
    </contour>
    <contour>
      <point x="223" y="245" type="line" smooth="yes"/>
      <point x="223" y="297" type="line" smooth="yes"/>
      <point x="50" y="297" type="line"/>
      <point x="50" y="245" type="line"/>
    </contour>
    <contour>
      <point x="583" y="245" type="line" smooth="yes"/>
      <point x="583" y="297" type="line" smooth="yes"/>
      <point x="400" y="297" type="line"/>
      <point x="400" y="245" type="line"/>
    </contour>
    <contour>
      <point x="583" y="160" type="line" smooth="yes"/>
      <point x="583" y="212" type="line" smooth="yes"/>
      <point x="50" y="212" type="line"/>
      <point x="50" y="160" type="line"/>
    </contour>
    <contour>
      <point x="367" y="0" type="line"/>
      <point x="367" y="219" type="line"/>
      <point x="267" y="219" type="line"/>
      <point x="267" y="0" type="line"/>
    </contour>
    <contour>
      <point x="462" y="0" type="line"/>
      <point x="462" y="83" type="line"/>
      <point x="172" y="83" type="line"/>
      <point x="172" y="0" type="line"/>
    </contour>
  </outline>
</glyph>
<glyph name="section" format="1">
  <advance width="561"/>
  <unicode hex="00A7"/>
  <outline>
    <contour>
      <point x="481" y="13"/>
      <point x="541" y="65"/>
      <point x="541" y="139" type="curve" smooth="yes"/>
      <point x="541" y="231"/>
      <point x="452" y="277"/>
      <point x="329" y="312" type="curve" smooth="yes"/>
      <point x="228" y="341"/>
      <point x="186" y="364"/>
      <point x="186" y="398" type="curve" smooth="yes"/>
      <point x="186" y="428"/>
      <point x="212" y="447"/>
      <point x="251" y="447" type="curve" smooth="yes"/>
      <point x="316" y="447"/>
      <point x="395" y="399"/>
      <point x="435" y="337" type="curve"/>
      <point x="495" y="341" type="line"/>
      <point x="495" y="520" type="line"/>
      <point x="401" y="520" type="line"/>
      <point x="401" y="402" type="line"/>
      <point x="453" y="398" type="line"/>
      <point x="398" y="485"/>
      <point x="331" y="530"/>
      <point x="239" y="530" type="curve" smooth="yes"/>
      <point x="147" y="530"/>
      <point x="77" y="473"/>
      <point x="77" y="387" type="curve" smooth="yes"/>
      <point x="77" y="311"/>
      <point x="151" y="245"/>
      <point x="278" y="210" type="curve" smooth="yes"/>
      <point x="379" y="182"/>
      <point x="432" y="162"/>
      <point x="432" y="114" type="curve" smooth="yes"/>
      <point x="432" y="66"/>
      <point x="384" y="42"/>
      <point x="338" y="32" type="curve"/>
      <point x="354" y="-11" type="line"/>
    </contour>
    <contour>
      <point x="414" y="-247"/>
      <point x="484" y="-190"/>
      <point x="484" y="-104" type="curve" smooth="yes"/>
      <point x="484" y="-28"/>
      <point x="410" y="38"/>
      <point x="283" y="73" type="curve" smooth="yes"/>
      <point x="182" y="101"/>
      <point x="129" y="121"/>
      <point x="129" y="169" type="curve" smooth="yes"/>
      <point x="129" y="217"/>
      <point x="177" y="241"/>
      <point x="223" y="251" type="curve"/>
      <point x="207" y="294" type="line"/>
      <point x="80" y="270"/>
      <point x="20" y="218"/>
      <point x="20" y="144" type="curve" smooth="yes"/>
      <point x="20" y="52"/>
      <point x="109" y="6"/>
      <point x="232" y="-29" type="curve" smooth="yes"/>
      <point x="333" y="-58"/>
      <point x="375" y="-81"/>
      <point x="375" y="-115" type="curve" smooth="yes"/>
      <point x="375" y="-145"/>
      <point x="349" y="-164"/>
      <point x="310" y="-164" type="curve" smooth="yes"/>
      <point x="245" y="-164"/>
      <point x="166" y="-116"/>
      <point x="126" y="-54" type="curve"/>
      <point x="66" y="-58" type="line"/>
      <point x="66" y="-237" type="line"/>
      <point x="160" y="-237" type="line"/>
      <point x="160" y="-119" type="line"/>
      <point x="108" y="-115" type="line"/>
      <point x="163" y="-202"/>
      <point x="230" y="-247"/>
      <point x="322" y="-247" type="curve" smooth="yes"/>
    </contour>
  </outline>
</glyph>
<glyph name="copyright" format="1">
  <advance width="774"/>
  <unicode hex="00A9"/>
  <outline>
    <contour>
      <point x="591" y="-165"/>
      <point x="744" y="-20"/>
      <point x="744" y="177" type="curve"/>
      <point x="744" y="374"/>
      <point x="591" y="519"/>
      <point x="387" y="519" type="curve"/>
      <point x="183" y="519"/>
      <point x="30" y="374"/>
      <point x="30" y="177" type="curve"/>
      <point x="30" y="-20"/>
      <point x="183" y="-165"/>
      <point x="387" y="-165" type="curve"/>
    </contour>
    <contour>
      <point x="460" y="3"/>
      <point x="509" y="38"/>
      <point x="542" y="80" type="curve"/>
      <point x="497" y="133" type="line"/>
      <point x="468" y="100"/>
      <point x="437" y="76"/>
      <point x="390" y="76" type="curve" smooth="yes"/>
      <point x="339" y="76"/>
      <point x="290" y="113"/>
      <point x="290" y="169" type="curve" smooth="yes"/>
      <point x="290" y="231"/>
      <point x="337" y="272"/>
      <point x="389" y="272" type="curve" smooth="yes"/>
      <point x="441" y="272"/>
      <point x="469" y="243"/>
      <point x="486" y="208" type="curve"/>
      <point x="539" y="212" type="line"/>
      <point x="539" y="332" type="line"/>
      <point x="476" y="332" type="line"/>
      <point x="476" y="265" type="line"/>
      <point x="505" y="255" type="line"/>
      <point x="482" y="305"/>
      <point x="437" y="337"/>
      <point x="372" y="337" type="curve" smooth="yes"/>
      <point x="284" y="337"/>
      <point x="207" y="272"/>
      <point x="207" y="169" type="curve" smooth="yes"/>
      <point x="207" y="69"/>
      <point x="288" y="3"/>
      <point x="388" y="3" type="curve" smooth="yes"/>
    </contour>
    <contour>
      <point x="214" y="-114"/>
      <point x="89" y="11"/>
      <point x="90" y="177" type="curve"/>
      <point x="89" y="343"/>
      <point x="214" y="468"/>
      <point x="387" y="468" type="curve"/>
      <point x="560" y="468"/>
      <point x="685" y="343"/>
      <point x="684" y="177" type="curve"/>
      <point x="685" y="11"/>
      <point x="560" y="-114"/>
      <point x="387" y="-114" type="curve"/>
    </contour>
  </outline>
</glyph>
<glyph name="ordfeminine" format="1">
  <advance width="317"/>
  <unicode hex="00AA"/>
  <outline>
    <contour>
      <point x="276" y="310"/>
      <point x="300" y="330"/>
      <point x="300" y="364" type="curve" smooth="yes"/>
      <point x="300" y="392" type="line"/>
      <point x="270" y="392" type="line"/>
      <point x="270" y="364" type="line" smooth="yes"/>
      <point x="270" y="356"/>
      <point x="267" y="348"/>
      <point x="259" y="348" type="curve" smooth="yes"/>
      <point x="250" y="348"/>
      <point x="247" y="356"/>
      <point x="247" y="364" type="curve"/>
      <point x="247" y="443" type="line" smooth="yes"/>
      <point x="247" y="495"/>
      <point x="213" y="528"/>
      <point x="149" y="528" type="curve" smooth="yes"/>
      <point x="111" y="528"/>
      <point x="82" y="519"/>
      <point x="44" y="503" type="curve"/>
      <point x="57" y="459" type="line"/>
      <point x="88" y="472"/>
      <point x="114" y="479"/>
      <point x="141" y="479" type="curve" smooth="yes"/>
      <point x="169" y="479"/>
      <point x="190" y="469"/>
      <point x="190" y="445" type="curve" smooth="yes"/>
      <point x="190" y="364" type="line"/>
      <point x="190" y="332"/>
      <point x="210" y="310"/>
      <point x="247" y="310" type="curve" smooth="yes"/>
    </contour>
    <contour>
      <point x="142" y="307"/>
      <point x="174" y="324"/>
      <point x="201" y="349" type="curve"/>
      <point x="202" y="387" type="line"/>
      <point x="174" y="365"/>
      <point x="147" y="354"/>
      <point x="126" y="354" type="curve" smooth="yes"/>
      <point x="108" y="354"/>
      <point x="97" y="362"/>
      <point x="97" y="375" type="curve" smooth="yes"/>
      <point x="97" y="392"/>
      <point x="115" y="399"/>
      <point x="134" y="399" type="curve" smooth="yes"/>
      <point x="155" y="399"/>
      <point x="176" y="397"/>
      <point x="202" y="390" type="curve"/>
      <point x="202" y="427" type="line"/>
      <point x="176" y="435"/>
      <point x="149" y="441"/>
      <point x="119" y="441" type="curve" smooth="yes"/>
      <point x="76" y="441"/>
      <point x="33" y="417"/>
      <point x="33" y="372" type="curve" smooth="yes"/>
      <point x="33" y="328"/>
      <point x="70" y="307"/>
      <point x="109" y="307" type="curve" smooth="yes"/>
    </contour>
    <contour>
      <point x="40" y="212" type="line"/>
      <point x="287" y="212" type="line"/>
      <point x="287" y="255" type="line"/>
      <point x="40" y="255" type="line"/>
    </contour>
  </outline>
</glyph>
<glyph name="guillemotleft" format="1">
  <advance width="625"/>
  <unicode hex="00AB"/>
  <outline>
    <contour>
      <point x="605" y="65" type="line"/>
      <point x="574" y="184"/>
      <point x="484" y="268"/>
      <point x="315" y="268" type="curve"/>
      <point x="315" y="262" type="line"/>
      <point x="483" y="262"/>
      <point x="573" y="346"/>
      <point x="604" y="465" type="curve"/>
      <point x="528" y="493" type="line"/>
      <point x="499" y="379"/>
      <point x="416" y="307"/>
      <point x="291" y="307" type="curve" smooth="yes"/>
      <point x="290" y="307" type="line"/>
      <point x="290" y="223" type="line"/>
      <point x="292" y="223" type="line" smooth="yes"/>
      <point x="418" y="223"/>
      <point x="500" y="151"/>
      <point x="529" y="37" type="curve"/>
    </contour>
    <contour>
      <point x="345" y="65" type="line"/>
      <point x="314" y="184"/>
      <point x="224" y="268"/>
      <point x="55" y="268" type="curve"/>
      <point x="55" y="262" type="line"/>
      <point x="223" y="262"/>
      <point x="313" y="346"/>
      <point x="344" y="465" type="curve"/>
      <point x="268" y="493" type="line"/>
      <point x="239" y="379"/>
      <point x="156" y="307"/>
      <point x="31" y="307" type="curve" smooth="yes"/>
      <point x="30" y="307" type="line"/>
      <point x="30" y="223" type="line"/>
      <point x="32" y="223" type="line" smooth="yes"/>
      <point x="158" y="223"/>
      <point x="240" y="151"/>
      <point x="269" y="37" type="curve"/>
    </contour>
  </outline>
</glyph>
<glyph name="logicalnot" format="1">
  <advance width="472"/>
  <unicode hex="00AC"/>
  <outline>
    <contour>
      <point x="432" y="264" type="line"/>
      <point x="432" y="347" type="line"/>
      <point x="35" y="347" type="line"/>
      <point x="35" y="264" type="line"/>
    </contour>
    <contour>
      <point x="432" y="78" type="line"/>
      <point x="432" y="347" type="line"/>
      <point x="349" y="347" type="line"/>
      <point x="349" y="78" type="line"/>
    </contour>
  </outline>
</glyph>
<glyph name="registered" format="1">
  <advance width="774"/>
  <unicode hex="00AE"/>
  <outline>
    <contour>
      <point x="591" y="-165"/>
      <point x="744" y="-20"/>
      <point x="744" y="177" type="curve"/>
      <point x="744" y="374"/>
      <point x="591" y="519"/>
      <point x="387" y="519" type="curve"/>
      <point x="183" y="519"/>
      <point x="30" y="374"/>
      <point x="30" y="177" type="curve"/>
      <point x="30" y="-20"/>
      <point x="183" y="-165"/>
      <point x="387" y="-165" type="curve"/>
    </contour>
    <contour>
      <point x="387" y="12" type="line"/>
      <point x="387" y="65" type="line"/>
      <point x="212" y="65" type="line"/>
      <point x="212" y="12" type="line"/>
    </contour>
    <contour>
      <point x="334" y="41" type="line"/>
      <point x="334" y="304" type="line"/>
      <point x="265" y="304" type="line"/>
      <point x="265" y="41" type="line"/>
    </contour>
    <contour>
      <point x="559" y="6"/>
      <point x="592" y="44"/>
      <point x="592" y="92" type="curve" smooth="yes"/>
      <point x="592" y="108" type="line"/>
      <point x="527" y="108" type="line"/>
      <point x="527" y="90" type="line" smooth="yes"/>
      <point x="527" y="81"/>
      <point x="521" y="68"/>
      <point x="508" y="68" type="curve" smooth="yes"/>
      <point x="493" y="68"/>
      <point x="488" y="83"/>
      <point x="475" y="106" type="curve" smooth="yes"/>
      <point x="464" y="127"/>
      <point x="445" y="156"/>
      <point x="401" y="156" type="curve" smooth="yes"/>
      <point x="343" y="156" type="line"/>
      <point x="343" y="146" type="line"/>
      <point x="361" y="146" type="line" smooth="yes"/>
      <point x="384" y="146"/>
      <point x="393" y="124"/>
      <point x="410" y="89" type="curve" smooth="yes"/>
      <point x="430" y="48"/>
      <point x="452" y="6"/>
      <point x="508" y="6" type="curve" smooth="yes"/>
    </contour>
    <contour>
      <point x="214" y="-114"/>
      <point x="89" y="11"/>
      <point x="90" y="177" type="curve"/>
      <point x="89" y="343"/>
      <point x="214" y="468"/>
      <point x="387" y="468" type="curve"/>
      <point x="560" y="468"/>
      <point x="685" y="343"/>
      <point x="684" y="177" type="curve"/>
      <point x="685" y="11"/>
      <point x="560" y="-114"/>
      <point x="387" y="-114" type="curve"/>
    </contour>
    <contour>
      <point x="418" y="145" type="line" smooth="yes"/>
      <point x="498" y="145"/>
      <point x="537" y="194"/>
      <point x="537" y="240" type="curve" smooth="yes"/>
      <point x="537" y="294"/>
      <point x="497" y="332"/>
      <point x="418" y="332" type="curve" smooth="yes"/>
      <point x="212" y="332" type="line"/>
      <point x="212" y="277" type="line"/>
      <point x="418" y="277" type="line" smooth="yes"/>
      <point x="443" y="277"/>
      <point x="466" y="265"/>
      <point x="466" y="240" type="curve" smooth="yes"/>
      <point x="466" y="212"/>
      <point x="441" y="200"/>
      <point x="418" y="200" type="curve" smooth="yes"/>
      <point x="310" y="200" type="line"/>
      <point x="310" y="145" type="line"/>
    </contour>
  </outline>
</glyph>
<glyph name="degree" format="1">
  <advance width="301"/>
  <unicode hex="00B0"/>
  <outline>
    <contour>
      <point x="225" y="361"/>
      <point x="281" y="416"/>
      <point x="281" y="487" type="curve" smooth="yes"/>
      <point x="281" y="561"/>
      <point x="225" y="612"/>
      <point x="151" y="612" type="curve" smooth="yes"/>
      <point x="81" y="612"/>
      <point x="20" y="561"/>
      <point x="20" y="487" type="curve" smooth="yes"/>
      <point x="20" y="416"/>
      <point x="81" y="361"/>
      <point x="151" y="361" type="curve" smooth="yes"/>
    </contour>
    <contour>
      <point x="117" y="422"/>
      <point x="90" y="452"/>
      <point x="90" y="487" type="curve" smooth="yes"/>
      <point x="90" y="524"/>
      <point x="117" y="551"/>
      <point x="151" y="551" type="curve" smooth="yes"/>
      <point x="186" y="551"/>
      <point x="211" y="524"/>
      <point x="211" y="487" type="curve" smooth="yes"/>
      <point x="211" y="452"/>
      <point x="186" y="422"/>
      <point x="151" y="422" type="curve" smooth="yes"/>
    </contour>
  </outline>
</glyph>
<glyph name="plusminus" format="1">
  <advance width="447"/>
  <unicode hex="00B1"/>
  <outline>
    <contour>
      <point x="179" y="173" type="line"/>
      <point x="264" y="173" type="line"/>
      <point x="264" y="449" type="line"/>
      <point x="179" y="449" type="line"/>
    </contour>
    <contour>
      <point x="70" y="353" type="line"/>
      <point x="70" y="270" type="line"/>
      <point x="377" y="270" type="line"/>
      <point x="377" y="353" type="line"/>
    </contour>
    <contour>
      <point x="70" y="120" type="line"/>
      <point x="70" y="37" type="line"/>
      <point x="374" y="37" type="line"/>
      <point x="374" y="120" type="line"/>
    </contour>
  </outline>
</glyph>
<glyph name="uni00B5" format="1">
  <advance width="502"/>
  <unicode hex="00B5"/>
  <outline>
    <contour>
      <point x="305" y="-10"/>
      <point x="348" y="46"/>
      <point x="396" y="124" type="curve"/>
      <point x="396" y="202" type="line"/>
      <point x="342" y="120"/>
      <point x="291" y="82"/>
      <point x="249" y="82" type="curve" smooth="yes"/>
      <point x="197" y="82"/>
      <point x="182" y="114"/>
      <point x="182" y="160" type="curve" smooth="yes"/>
      <point x="182" y="357" type="line"/>
      <point x="133" y="357" type="line"/>
      <point x="133" y="138" type="line" smooth="yes"/>
      <point x="133" y="26"/>
      <point x="171" y="-10"/>
      <point x="238" y="-10" type="curve" smooth="yes"/>
    </contour>
    <contour>
      <point x="182" y="-165" type="line"/>
      <point x="182" y="-95" type="line" smooth="yes"/>
      <point x="182" y="-37"/>
      <point x="152" y="30"/>
      <point x="152" y="105" type="curve"/>
      <point x="152" y="357" type="line"/>
      <point x="85" y="357" type="line"/>
      <point x="85" y="-165" type="line"/>
    </contour>
    <contour>
      <point x="180" y="274" type="line"/>
      <point x="180" y="357" type="line"/>
      <point x="10" y="357" type="line"/>
      <point x="10" y="274" type="line"/>
    </contour>
    <contour>
      <point x="460" y="-6"/>
      <point x="477" y="-3"/>
      <point x="492" y="1" type="curve"/>
      <point x="492" y="82" type="line"/>
      <point x="485" y="79"/>
      <point x="480" y="78"/>
      <point x="473" y="78" type="curve" smooth="yes"/>
      <point x="461" y="78"/>
      <point x="449" y="84"/>
      <point x="449" y="110" type="curve" smooth="yes"/>
      <point x="449" y="357" type="line"/>
      <point x="350" y="357" type="line"/>
      <point x="350" y="90" type="line" smooth="yes"/>
      <point x="350" y="27"/>
      <point x="390" y="-6"/>
      <point x="442" y="-6" type="curve" smooth="yes"/>
    </contour>
  </outline>
</glyph>
<glyph name="paragraph" format="1">
  <advance width="605"/>
  <unicode hex="00B6"/>
  <outline>
    <contour>
      <point x="456" y="-190"/>
      <point x="560" y="-133"/>
      <point x="560" y="8" type="curve" smooth="yes"/>
      <point x="560" y="520" type="line"/>
      <point x="471" y="520" type="line"/>
      <point x="471" y="8" type="line" smooth="yes"/>
      <point x="471" y="-75"/>
      <point x="405" y="-103"/>
      <point x="357" y="-103" type="curve" smooth="yes"/>
      <point x="296" y="-103"/>
      <point x="227" y="-76"/>
      <point x="181" y="-50" type="curve"/>
      <point x="146" y="-129" type="line"/>
      <point x="202" y="-157"/>
      <point x="281" y="-190"/>
      <point x="366" y="-190" type="curve" smooth="yes"/>
    </contour>
    <contour>
      <point x="391" y="-155" type="line"/>
      <point x="391" y="441" type="line"/>
      <point x="302" y="511" type="line"/>
      <point x="302" y="-155" type="line"/>
    </contour>
    <contour>
      <point x="282" y="152"/>
      <point x="332" y="182"/>
      <point x="373" y="212" type="curve"/>
      <point x="373" y="290" type="line"/>
      <point x="332" y="259"/>
      <point x="300" y="236"/>
      <point x="238" y="236" type="curve" smooth="yes"/>
      <point x="178" y="236"/>
      <point x="124" y="271"/>
      <point x="124" y="339" type="curve" smooth="yes"/>
      <point x="124" y="404"/>
      <point x="180" y="448"/>
      <point x="240" y="448" type="curve" smooth="yes"/>
      <point x="355" y="448"/>
      <point x="465" y="372"/>
      <point x="523" y="311" type="curve"/>
      <point x="523" y="408" type="line"/>
      <point x="466" y="468"/>
      <point x="352" y="530"/>
      <point x="235" y="530" type="curve" smooth="yes"/>
      <point x="108" y="530"/>
      <point x="15" y="451"/>
      <point x="15" y="339" type="curve" smooth="yes"/>
      <point x="15" y="225"/>
      <point x="112" y="152"/>
      <point x="222" y="152" type="curve" smooth="yes"/>
    </contour>
  </outline>
</glyph>
<glyph name="periodcentered" format="1">
  <advance width="226"/>
  <unicode hex="00B7"/>
  <outline>
    <contour>
      <point x="156" y="190"/>
      <point x="186" y="215"/>
      <point x="186" y="248" type="curve"/>
      <point x="186" y="284"/>
      <point x="156" y="309"/>
      <point x="113" y="309" type="curve"/>
      <point x="73" y="309"/>
      <point x="40" y="284"/>
      <point x="40" y="248" type="curve"/>
      <point x="40" y="215"/>
      <point x="73" y="190"/>
      <point x="113" y="190" type="curve"/>
    </contour>
  </outline>
</glyph>
<glyph name="ordmasculine" format="1">
  <advance width="314"/>
  <unicode hex="00BA"/>
  <outline>
    <contour>
      <point x="226" y="307"/>
      <point x="281" y="350"/>
      <point x="281" y="418" type="curve"/>
      <point x="281" y="485"/>
      <point x="222" y="529"/>
      <point x="157" y="529" type="curve"/>
      <point x="90" y="529"/>
      <point x="33" y="485"/>
      <point x="33" y="418" type="curve"/>
      <point x="33" y="350"/>
      <point x="90" y="307"/>
      <point x="157" y="307" type="curve"/>
    </contour>
    <contour>
      <point x="122" y="355"/>
      <point x="97" y="380"/>
      <point x="97" y="418" type="curve"/>
      <point x="97" y="455"/>
      <point x="122" y="480"/>
      <point x="157" y="480" type="curve"/>
      <point x="191" y="480"/>
      <point x="217" y="455"/>
      <point x="217" y="418" type="curve"/>
      <point x="217" y="380"/>
      <point x="191" y="355"/>
      <point x="157" y="355" type="curve"/>
    </contour>
    <contour>
      <point x="43" y="212" type="line"/>
      <point x="271" y="212" type="line"/>
      <point x="271" y="255" type="line"/>
      <point x="43" y="255" type="line"/>
    </contour>
  </outline>
</glyph>
<glyph name="guillemotright" format="1">
  <advance width="625"/>
  <unicode hex="00BB"/>
  <outline>
    <contour>
      <point x="386" y="150"/>
      <point x="469" y="222"/>
      <point x="594" y="222" type="curve" smooth="yes"/>
      <point x="595" y="222" type="line"/>
      <point x="595" y="306" type="line"/>
      <point x="593" y="306" type="line" smooth="yes"/>
      <point x="467" y="306"/>
      <point x="385" y="378"/>
      <point x="356" y="492" type="curve"/>
      <point x="280" y="464" type="line"/>
      <point x="311" y="345"/>
      <point x="401" y="261"/>
      <point x="570" y="261" type="curve"/>
      <point x="570" y="267" type="line"/>
      <point x="402" y="267"/>
      <point x="312" y="183"/>
      <point x="281" y="64" type="curve"/>
      <point x="357" y="36" type="line"/>
    </contour>
    <contour>
      <point x="126" y="150"/>
      <point x="209" y="222"/>
      <point x="334" y="222" type="curve" smooth="yes"/>
      <point x="335" y="222" type="line"/>
      <point x="335" y="306" type="line"/>
      <point x="333" y="306" type="line" smooth="yes"/>
      <point x="207" y="306"/>
      <point x="125" y="378"/>
      <point x="96" y="492" type="curve"/>
      <point x="20" y="464" type="line"/>
      <point x="51" y="345"/>
      <point x="141" y="261"/>
      <point x="310" y="261" type="curve"/>
      <point x="310" y="267" type="line"/>
      <point x="142" y="267"/>
      <point x="52" y="183"/>
      <point x="21" y="64" type="curve"/>
      <point x="97" y="36" type="line"/>
    </contour>
  </outline>
</glyph>
<glyph name="AE" format="1">
  <advance width="923"/>
  <unicode hex="00C6"/>
  <outline>
    <contour>
      <point x="117" y="13" type="line"/>
      <point x="418" y="470" type="line"/>
      <point x="372" y="470" type="line"/>
      <point x="489" y="13" type="line"/>
      <point x="595" y="13" type="line"/>
      <point x="472" y="470" type="line" smooth="yes"/>
      <point x="316" y="470" type="line"/>
      <point x="2" y="13" type="line"/>
    </contour>
    <contour>
      <point x="224" y="0" type="line"/>
      <point x="224" y="83" type="line"/>
      <point x="-15" y="83" type="line"/>
      <point x="-15" y="0" type="line"/>
    </contour>
    <contour>
      <point x="510" y="177" type="line"/>
      <point x="493" y="252" type="line"/>
      <point x="197" y="252" type="line"/>
      <point x="179" y="177" type="line"/>
    </contour>
    <contour>
      <point x="868" y="0" type="line"/>
      <point x="868" y="183" type="line"/>
      <point x="775" y="183" type="line"/>
      <point x="775" y="83" type="line"/>
      <point x="380" y="83" type="line"/>
      <point x="380" y="0" type="line"/>
    </contour>
    <contour>
      <point x="701" y="156" type="line"/>
      <point x="701" y="359" type="line"/>
      <point x="618" y="359" type="line"/>
      <point x="618" y="299" type="line"/>
      <point x="460" y="299" type="line"/>
      <point x="460" y="216" type="line"/>
      <point x="618" y="216" type="line"/>
      <point x="618" y="156" type="line"/>
    </contour>
    <contour>
      <point x="868" y="341" type="line"/>
      <point x="868" y="520" type="line"/>
      <point x="235" y="520" type="line"/>
      <point x="235" y="437" type="line"/>
      <point x="775" y="437" type="line"/>
      <point x="775" y="341" type="line"/>
    </contour>
    <contour>
      <point x="868" y="0" type="move" name="ogonek"/>
    </contour>
    <contour>
      <point x="482" y="0" type="move" name="bottom"/>
    </contour>
    <contour>
      <point x="483" y="520" type="move" name="top"/>
    </contour>
  </outline>
</glyph>
<glyph name="multiply" format="1">
  <advance width="421"/>
  <unicode hex="00D7"/>
  <outline>
    <contour>
      <point x="369" y="136" type="line"/>
      <point x="111" y="393" type="line"/>
      <point x="52" y="335" type="line"/>
      <point x="310" y="77" type="line"/>
    </contour>
    <contour>
      <point x="368" y="333" type="line"/>
      <point x="308" y="393" type="line"/>
      <point x="52" y="137" type="line"/>
      <point x="112" y="77" type="line"/>
    </contour>
  </outline>
</glyph>
<glyph name="Thorn" format="1">
  <advance width="571"/>
  <unicode hex="00DE"/>
  <outline>
    <contour>
      <point x="375" y="138" type="line" smooth="yes"/>
      <point x="474" y="138"/>
      <point x="546" y="179"/>
      <point x="546" y="259" type="curve" smooth="yes"/>
      <point x="546" y="341"/>
      <point x="474" y="380"/>
      <point x="375" y="380" type="curve" smooth="yes"/>
      <point x="190" y="380" type="line"/>
      <point x="190" y="305" type="line"/>
      <point x="360" y="305" type="line" smooth="yes"/>
      <point x="403" y="305"/>
      <point x="442" y="295"/>
      <point x="442" y="259" type="curve" smooth="yes"/>
      <point x="442" y="220"/>
      <point x="400" y="212"/>
      <point x="360" y="212" type="curve" smooth="yes"/>
      <point x="189" y="212" type="line"/>
      <point x="189" y="137" type="line"/>
    </contour>
    <contour>
      <point x="315" y="0" type="line"/>
      <point x="315" y="83" type="line"/>
      <point x="30" y="83" type="line"/>
      <point x="30" y="0" type="line"/>
    </contour>
    <contour>
      <point x="226" y="46" type="line"/>
      <point x="226" y="475" type="line"/>
      <point x="120" y="475" type="line"/>
      <point x="120" y="46" type="line"/>
    </contour>
    <contour>
      <point x="315" y="437" type="line"/>
      <point x="315" y="520" type="line"/>
      <point x="30" y="520" type="line"/>
      <point x="30" y="437" type="line"/>
    </contour>
  </outline>
</glyph>
<glyph name="germandbls" format="1">
  <advance width="577"/>
  <unicode hex="00DF"/>
  <outline>
    <contour>
      <point x="523" y="-11"/>
      <point x="577" y="32"/>
      <point x="577" y="99" type="curve" smooth="yes"/>
      <point x="577" y="161"/>
      <point x="524" y="192"/>
      <point x="445" y="214" type="curve" smooth="yes"/>
      <point x="374" y="234"/>
      <point x="353" y="237"/>
      <point x="353" y="256" type="curve" smooth="yes"/>
      <point x="353" y="274"/>
      <point x="367" y="282"/>
      <point x="414" y="306" type="curve" smooth="yes"/>
      <point x="468" y="334"/>
      <point x="511" y="363"/>
      <point x="511" y="420" type="curve" smooth="yes"/>
      <point x="511" y="496"/>
      <point x="422" y="555"/>
      <point x="299" y="555" type="curve" smooth="yes"/>
      <point x="173" y="555"/>
      <point x="100" y="497"/>
      <point x="100" y="384" type="curve" smooth="yes"/>
      <point x="100" y="0" type="line"/>
      <point x="197" y="0" type="line"/>
      <point x="197" y="386" type="line" smooth="yes"/>
      <point x="197" y="441"/>
      <point x="234" y="472"/>
      <point x="300" y="472" type="curve" smooth="yes"/>
      <point x="366" y="472"/>
      <point x="408" y="449"/>
      <point x="408" y="416" type="curve" smooth="yes"/>
      <point x="408" y="392"/>
      <point x="386" y="378"/>
      <point x="340" y="354" type="curve" smooth="yes"/>
      <point x="285" y="326"/>
      <point x="250" y="299"/>
      <point x="250" y="243" type="curve" smooth="yes"/>
      <point x="250" y="183"/>
      <point x="299" y="154"/>
      <point x="387" y="127" type="curve" smooth="yes"/>
      <point x="453" y="107"/>
      <point x="474" y="103"/>
      <point x="474" y="83" type="curve" smooth="yes"/>
      <point x="474" y="64"/>
      <point x="457" y="53"/>
      <point x="426" y="53" type="curve" smooth="yes"/>
      <point x="386" y="53"/>
      <point x="323" y="80"/>
      <point x="294" y="120" type="curve"/>
      <point x="251" y="117" type="line"/>
      <point x="251" y="-1" type="line"/>
      <point x="325" y="-1" type="line"/>
      <point x="325" y="81" type="line"/>
      <point x="289" y="81" type="line"/>
      <point x="323" y="19"/>
      <point x="378" y="-11"/>
      <point x="440" y="-11" type="curve" smooth="yes"/>
    </contour>
    <contour>
      <point x="192" y="0" type="line"/>
      <point x="192" y="78" type="line"/>
      <point x="25" y="78" type="line"/>
      <point x="25" y="0" type="line"/>
    </contour>
    <contour>
      <point x="191" y="279" type="line"/>
      <point x="191" y="357" type="line"/>
      <point x="25" y="357" type="line"/>
      <point x="25" y="279" type="line"/>
    </contour>
  </outline>
</glyph>
<glyph name="ae" format="1">
  <advance width="708"/>
  <unicode hex="00E6"/>
  <outline>
    <contour>
      <point x="590" y="-11"/>
      <point x="650" y="19"/>
      <point x="693" y="55" type="curve"/>
      <point x="656" y="126" type="line"/>
      <point x="619" y="94"/>
      <point x="575" y="72"/>
      <point x="524" y="72" type="curve" smooth="yes"/>
      <point x="468" y="72"/>
      <point x="400" y="109"/>
      <point x="400" y="183" type="curve" smooth="yes"/>
      <point x="400" y="253"/>
      <point x="462" y="292"/>
      <point x="510" y="292" type="curve" smooth="yes"/>
      <point x="548" y="292"/>
      <point x="575" y="274"/>
      <point x="575" y="247" type="curve" smooth="yes"/>
      <point x="575" y="220"/>
      <point x="549" y="199"/>
      <point x="499" y="199" type="curve" smooth="yes"/>
      <point x="456" y="199"/>
      <point x="403" y="206"/>
      <point x="340" y="223" type="curve"/>
      <point x="339" y="170" type="line"/>
      <point x="401" y="149"/>
      <point x="456" y="131"/>
      <point x="525" y="131" type="curve" smooth="yes"/>
      <point x="593" y="131"/>
      <point x="681" y="163"/>
      <point x="681" y="244" type="curve" smooth="yes"/>
      <point x="681" y="314"/>
      <point x="621" y="367"/>
      <point x="527" y="367" type="curve" smooth="yes"/>
      <point x="434" y="367"/>
      <point x="352" y="313"/>
      <point x="332" y="218" type="curve"/>
      <point x="384" y="221" type="line"/>
      <point x="385" y="310"/>
      <point x="337" y="366"/>
      <point x="233" y="366" type="curve" smooth="yes"/>
      <point x="168" y="366"/>
      <point x="119" y="351"/>
      <point x="55" y="323" type="curve"/>
      <point x="77" y="248" type="line"/>
      <point x="129" y="270"/>
      <point x="174" y="283"/>
      <point x="219" y="283" type="curve" smooth="yes"/>
      <point x="266" y="283"/>
      <point x="311" y="266"/>
      <point x="311" y="225" type="curve" smooth="yes"/>
      <point x="311" y="175" type="line"/>
      <point x="311" y="58"/>
      <point x="407" y="-11"/>
      <point x="516" y="-11" type="curve" smooth="yes"/>
    </contour>
    <contour>
      <point x="231" y="-11"/>
      <point x="291" y="18"/>
      <point x="345" y="78" type="curve"/>
      <point x="323" y="126" type="line"/>
      <point x="276" y="89"/>
      <point x="230" y="70"/>
      <point x="193" y="70" type="curve" smooth="yes"/>
      <point x="163" y="70"/>
      <point x="144" y="84"/>
      <point x="144" y="105" type="curve" smooth="yes"/>
      <point x="144" y="134"/>
      <point x="175" y="147"/>
      <point x="207" y="147" type="curve" smooth="yes"/>
      <point x="243" y="147"/>
      <point x="278" y="143"/>
      <point x="323" y="131" type="curve"/>
      <point x="323" y="193" type="line"/>
      <point x="279" y="207"/>
      <point x="233" y="218"/>
      <point x="182" y="218" type="curve" smooth="yes"/>
      <point x="108" y="218"/>
      <point x="35" y="177"/>
      <point x="35" y="101" type="curve" smooth="yes"/>
      <point x="35" y="26"/>
      <point x="98" y="-11"/>
      <point x="164" y="-11" type="curve" smooth="yes"/>
    </contour>
    <contour>
      <point x="693" y="55" type="move" name="ogonek"/>
    </contour>
    <contour>
      <point x="353" y="-10" type="move" name="bottom"/>
    </contour>
    <contour>
      <point x="348" y="367" type="move" name="top"/>
    </contour>
  </outline>
</glyph>
<glyph name="eth" format="1">
  <advance width="464"/>
  <unicode hex="00F0"/>
  <outline>
    <contour>
      <point x="322" y="563" type="line"/>
      <point x="266" y="606" type="line"/>
      <point x="124" y="403" type="line"/>
      <point x="181" y="361" type="line"/>
    </contour>
    <contour>
      <point x="335" y="-18"/>
      <point x="439" y="62"/>
      <point x="439" y="206" type="curve" smooth="yes"/>
      <point x="439" y="377"/>
      <point x="312" y="519"/>
      <point x="116" y="591" type="curve"/>
      <point x="81" y="507" type="line"/>
      <point x="247" y="444"/>
      <point x="335" y="341"/>
      <point x="335" y="201" type="curve" smooth="yes"/>
      <point x="335" y="99"/>
      <point x="275" y="58"/>
      <point x="216" y="58" type="curve" smooth="yes"/>
      <point x="167" y="58"/>
      <point x="129" y="94"/>
      <point x="129" y="145" type="curve" smooth="yes"/>
      <point x="129" y="195"/>
      <point x="173" y="234"/>
      <point x="230" y="234" type="curve" smooth="yes"/>
      <point x="279" y="234"/>
      <point x="342" y="209"/>
      <point x="376" y="165" type="curve"/>
      <point x="379" y="235" type="line"/>
      <point x="331" y="287"/>
      <point x="275" y="311"/>
      <point x="205" y="311" type="curve" smooth="yes"/>
      <point x="101" y="311"/>
      <point x="20" y="238"/>
      <point x="20" y="145" type="curve" smooth="yes"/>
      <point x="20" y="48"/>
      <point x="102" y="-20"/>
      <point x="215" y="-19" type="curve" smooth="yes"/>
    </contour>
  </outline>
</glyph>
<glyph name="thorn" format="1">
  <advance width="491"/>
  <unicode hex="00FE"/>
  <outline>
    <contour>
      <point x="218" y="367"/>
      <point x="138" y="298"/>
      <point x="103" y="194" type="curve"/>
      <point x="103" y="121" type="line"/>
      <point x="138" y="217"/>
      <point x="205" y="282"/>
      <point x="261" y="283" type="curve" smooth="yes"/>
      <point x="318" y="284"/>
      <point x="357" y="241"/>
      <point x="357" y="180" type="curve" smooth="yes"/>
      <point x="357" y="117"/>
      <point x="313" y="71"/>
      <point x="246" y="71" type="curve" smooth="yes"/>
      <point x="191" y="71"/>
      <point x="137" y="115"/>
      <point x="103" y="158" type="curve"/>
      <point x="103" y="91" type="line"/>
      <point x="136" y="49"/>
      <point x="184" y="-11"/>
      <point x="271" y="-11" type="curve" smooth="yes"/>
      <point x="385" y="-11"/>
      <point x="466" y="70"/>
      <point x="466" y="180" type="curve" smooth="yes"/>
      <point x="466" y="289"/>
      <point x="389" y="367"/>
      <point x="294" y="367" type="curve" smooth="yes"/>
    </contour>
    <contour>
      <point x="241" y="-165" type="line"/>
      <point x="241" y="-87" type="line"/>
      <point x="-15" y="-87" type="line"/>
      <point x="-15" y="-165" type="line"/>
    </contour>
    <contour>
      <point x="-15" y="520" type="line"/>
      <point x="-15" y="442" type="line"/>
      <point x="60" y="442" type="line"/>
      <point x="60" y="-165" type="line"/>
      <point x="156" y="-165" type="line"/>
      <point x="156" y="520" type="line"/>
    </contour>
  </outline>
</glyph>
<glyph name="Hbar" format="1">
  <advance width="735"/>
  <unicode hex="0126"/>
  <outline>
    <contour>
      <point x="681" y="318" type="line"/>
      <point x="681" y="391" type="line"/>
      <point x="55" y="391" type="line"/>
      <point x="55" y="318" type="line"/>
    </contour>
    <contour>
      <point x="314" y="0" type="line"/>
      <point x="314" y="83" type="line"/>
      <point x="30" y="83" type="line"/>
      <point x="30" y="0" type="line"/>
    </contour>
    <contour>
      <point x="224" y="46" type="line"/>
      <point x="224" y="472" type="line"/>
      <point x="120" y="472" type="line"/>
      <point x="120" y="46" type="line"/>
    </contour>
    <contour>
      <point x="705" y="0" type="line"/>
      <point x="705" y="83" type="line"/>
      <point x="420" y="83" type="line"/>
      <point x="420" y="0" type="line"/>
    </contour>
    <contour>
      <point x="581" y="198" type="line"/>
      <point x="581" y="273" type="line"/>
      <point x="155" y="273" type="line"/>
      <point x="155" y="198" type="line"/>
    </contour>
    <contour>
      <point x="314" y="437" type="line"/>
      <point x="314" y="520" type="line"/>
      <point x="30" y="520" type="line"/>
      <point x="30" y="437" type="line"/>
    </contour>
    <contour>
      <point x="615" y="48" type="line"/>
      <point x="615" y="475" type="line"/>
      <point x="510" y="475" type="line"/>
      <point x="510" y="48" type="line"/>
    </contour>
    <contour>
      <point x="705" y="437" type="line"/>
      <point x="705" y="520" type="line"/>
      <point x="420" y="520" type="line"/>
      <point x="420" y="437" type="line"/>
    </contour>
    <contour>
      <point x="367" y="255" type="move" name="center"/>
    </contour>
    <contour>
      <point x="367" y="0" type="move" name="bottom"/>
    </contour>
    <contour>
      <point x="367" y="520" type="move" name="top"/>
    </contour>
  </outline>
</glyph>
<glyph name="hbar" format="1">
  <advance width="539"/>
  <unicode hex="0127"/>
  <outline>
    <contour>
      <point x="5" y="426" type="line"/>
      <point x="5" y="374" type="line"/>
      <point x="465" y="374" type="line"/>
      <point x="465" y="426" type="line"/>
    </contour>
    <component base="h"/>
  </outline>
</glyph>
<glyph name="dotlessi" format="1">
  <advance width="279"/>
  <unicode hex="0131"/>
  <outline>
    <contour>
      <point x="199" y="0" type="line"/>
      <point x="199" y="357" type="line"/>
      <point x="100" y="357" type="line"/>
      <point x="100" y="0" type="line"/>
    </contour>
    <contour>
      <point x="274" y="0" type="line"/>
      <point x="274" y="78" type="line"/>
      <point x="25" y="78" type="line"/>
      <point x="25" y="0" type="line"/>
    </contour>
    <contour>
      <point x="197" y="279" type="line"/>
      <point x="197" y="357" type="line"/>
      <point x="25" y="357" type="line"/>
      <point x="25" y="279" type="line"/>
    </contour>
    <contour>
      <point x="273" y="0" type="move" name="ogonek"/>
    </contour>
    <contour>
      <point x="151" y="0" type="move" name="bottom"/>
    </contour>
    <contour>
      <point x="140" y="357" type="move" name="top"/>
    </contour>
  </outline>
</glyph>
<glyph name="OE" format="1">
  <advance width="876"/>
  <unicode hex="0152"/>
  <outline>
    <contour>
      <point x="821" y="0" type="line"/>
      <point x="821" y="180" type="line"/>
      <point x="728" y="180" type="line"/>
      <point x="728" y="83" type="line"/>
      <point x="346" y="83" type="line" smooth="yes"/>
      <point x="253" y="83"/>
      <point x="139" y="116"/>
      <point x="139" y="260" type="curve" smooth="yes"/>
      <point x="139" y="405"/>
      <point x="253" y="437"/>
      <point x="346" y="437" type="curve" smooth="yes"/>
      <point x="728" y="437" type="line"/>
      <point x="728" y="339" type="line"/>
      <point x="821" y="339" type="line"/>
      <point x="821" y="520" type="line"/>
      <point x="322" y="520" type="line" smooth="yes"/>
      <point x="173" y="520"/>
      <point x="30" y="442"/>
      <point x="30" y="260" type="curve" smooth="yes"/>
      <point x="30" y="78"/>
      <point x="173" y="0"/>
      <point x="322" y="0" type="curve" smooth="yes"/>
    </contour>
    <contour>
      <point x="497" y="46" type="line"/>
      <point x="497" y="467" type="line"/>
      <point x="393" y="467" type="line"/>
      <point x="393" y="46" type="line"/>
    </contour>
    <contour>
      <point x="629" y="216" type="line"/>
      <point x="629" y="299" type="line"/>
      <point x="433" y="299" type="line"/>
      <point x="433" y="216" type="line"/>
    </contour>
    <contour>
      <point x="664" y="156" type="line"/>
      <point x="664" y="359" type="line"/>
      <point x="581" y="359" type="line"/>
      <point x="581" y="156" type="line"/>
    </contour>
    <contour>
      <point x="486" y="0" type="move" name="bottom"/>
    </contour>
    <contour>
      <point x="821" y="0" type="move" name="ogonek"/>
    </contour>
    <contour>
      <point x="486" y="520" type="move" name="top"/>
    </contour>
    <contour>
      <point x="486" y="260" type="move" name="center"/>
    </contour>
  </outline>
</glyph>
<glyph name="oe" format="1">
  <advance width="740"/>
  <unicode hex="0153"/>
  <outline>
    <contour>
      <point x="344" y="-11"/>
      <point x="422" y="63"/>
      <point x="422" y="178" type="curve"/>
      <point x="422" y="293"/>
      <point x="337" y="367"/>
      <point x="226" y="367" type="curve" smooth="yes"/>
      <point x="118" y="367"/>
      <point x="25" y="293"/>
      <point x="25" y="178" type="curve"/>
      <point x="25" y="63"/>
      <point x="119" y="-11"/>
      <point x="226" y="-11" type="curve" smooth="yes"/>
    </contour>
    <contour>
      <point x="177" y="72"/>
      <point x="134" y="114"/>
      <point x="134" y="178" type="curve"/>
      <point x="134" y="242"/>
      <point x="177" y="284"/>
      <point x="231" y="284" type="curve" smooth="yes"/>
      <point x="285" y="284"/>
      <point x="328" y="242"/>
      <point x="328" y="178" type="curve"/>
      <point x="328" y="114"/>
      <point x="285" y="72"/>
      <point x="231" y="72" type="curve" smooth="yes"/>
    </contour>
    <contour>
      <point x="688" y="126" type="line"/>
      <point x="651" y="94"/>
      <point x="607" y="72"/>
      <point x="556" y="72" type="curve" smooth="yes"/>
      <point x="500" y="72"/>
      <point x="437" y="109"/>
      <point x="437" y="183" type="curve" smooth="yes"/>
      <point x="437" y="253"/>
      <point x="494" y="292"/>
      <point x="542" y="292" type="curve" smooth="yes"/>
      <point x="580" y="292"/>
      <point x="607" y="270"/>
      <point x="607" y="247" type="curve" smooth="yes"/>
      <point x="607" y="223"/>
      <point x="581" y="199"/>
      <point x="531" y="199" type="curve" smooth="yes"/>
      <point x="483" y="199"/>
      <point x="415" y="209"/>
      <point x="367" y="248" type="curve"/>
      <point x="366" y="195" type="line"/>
      <point x="412" y="160"/>
      <point x="483" y="131"/>
      <point x="557" y="131" type="curve" smooth="yes"/>
      <point x="620" y="131"/>
      <point x="713" y="163"/>
      <point x="713" y="244" type="curve" smooth="yes"/>
      <point x="713" y="314"/>
      <point x="641" y="367"/>
      <point x="542" y="367" type="curve" smooth="yes"/>
      <point x="440" y="367"/>
      <point x="360" y="304"/>
      <point x="352" y="190" type="curve"/>
      <point x="353" y="175" type="line"/>
      <point x="353" y="58"/>
      <point x="434" y="-11"/>
      <point x="548" y="-11" type="curve" smooth="yes"/>
      <point x="622" y="-11"/>
      <point x="682" y="19"/>
      <point x="725" y="55" type="curve"/>
    </contour>
    <contour>
      <point x="390" y="-10" type="move" name="bottom"/>
    </contour>
    <contour>
      <point x="725" y="55" type="move" name="ogonek"/>
    </contour>
    <contour>
      <point x="381" y="367" type="move" name="top"/>
    </contour>
    <contour>
      <point x="379" y="179" type="move" name="center"/>
    </contour>
  </outline>
</glyph>
<glyph name="uni0237" format="1">
  <advance width="242"/>
  <unicode hex="0237"/>
  <outline>
    <contour>
      <point x="130" y="-190"/>
      <point x="197" y="-131"/>
      <point x="197" y="-20" type="curve" smooth="yes"/>
      <point x="197" y="344" type="line"/>
      <point x="100" y="344" type="line"/>
      <point x="100" y="-22" type="line" smooth="yes"/>
      <point x="100" y="-75"/>
      <point x="74" y="-103"/>
      <point x="36" y="-103" type="curve" smooth="yes"/>
      <point x="10" y="-103"/>
      <point x="-8" y="-97"/>
      <point x="-34" y="-88" type="curve"/>
      <point x="-58" y="-170" type="line"/>
      <point x="-33" y="-178"/>
      <point x="-8" y="-190"/>
      <point x="40" y="-190" type="curve" smooth="yes"/>
    </contour>
    <contour>
      <point x="197" y="279" type="line"/>
      <point x="197" y="357" type="line"/>
      <point x="25" y="357" type="line"/>
      <point x="25" y="279" type="line"/>
    </contour>
    <contour>
      <point x="115" y="422" type="move" name="top"/>
    </contour>
    <contour>
      <point x="126" y="0" type="move" name="bottom"/>
    </contour>
  </outline>
</glyph>
<glyph name="uni02B9" format="1">
  <advance width="251"/>
  <unicode hex="02B9"/>
  <outline>
    <contour>
      <point x="70" y="360" type="line"/>
      <point x="131" y="349" type="line"/>
      <point x="196" y="540" type="line"/>
      <point x="96" y="562" type="line"/>
    </contour>
  </outline>
</glyph>
<glyph name="uni02BA" format="1">
  <advance width="387"/>
  <unicode hex="02BA"/>
  <outline>
    <contour>
      <point x="70" y="355" type="line"/>
      <point x="132" y="350" type="line"/>
      <point x="180" y="546" type="line"/>
      <point x="78" y="558" type="line"/>
    </contour>
    <contour>
      <point x="222" y="354" type="line"/>
      <point x="284" y="349" type="line"/>
      <point x="332" y="545" type="line"/>
      <point x="230" y="558" type="line"/>
    </contour>
  </outline>
</glyph>
<glyph name="uni02BB" format="1">
  <advance width="215"/>
  <unicode hex="02BB"/>
  <outline>
    <contour>
      <point x="45" y="-230"/>
      <point x="74" y="-256"/>
      <point x="110" y="-256" type="curve" smooth="yes"/>
      <point x="143" y="-256"/>
      <point x="170" y="-236"/>
      <point x="170" y="-209" type="curve" smooth="yes"/>
      <point x="170" y="-183"/>
      <point x="148" y="-166"/>
      <point x="120" y="-166" type="curve" smooth="yes"/>
      <point x="109" y="-166"/>
      <point x="100" y="-167"/>
      <point x="92" y="-171" type="curve"/>
      <point x="92" y="-152"/>
      <point x="109" y="-117"/>
      <point x="146" y="-84" type="curve"/>
      <point x="124" y="-61" type="line"/>
      <point x="80" y="-95"/>
      <point x="45" y="-143"/>
      <point x="45" y="-185" type="curve" smooth="yes"/>
    </contour>
    <contour>
      <point x="110" y="0" type="move" name="_bottom"/>
    </contour>
  </outline>
</glyph>
<glyph name="gravecomb" format="1">
  <advance width="354"/>
  <unicode hex="0300"/>
  <outline>
    <contour>
      <point x="268" y="484" type="line"/>
      <point x="60" y="589" type="line"/>
      <point x="110" y="661" type="line"/>
      <point x="294" y="522" type="line"/>
    </contour>
    <contour>
      <point x="168" y="421" type="move" name="_top"/>
    </contour>
  </outline>
</glyph>
<glyph name="acutecomb" format="1">
  <advance width="354"/>
  <unicode hex="0301"/>
  <outline>
    <contour>
      <point x="244" y="661" type="line"/>
      <point x="294" y="589" type="line"/>
      <point x="86" y="484" type="line"/>
      <point x="60" y="522" type="line"/>
    </contour>
    <contour>
      <point x="168" y="421" type="move" name="_top"/>
    </contour>
  </outline>
</glyph>
<glyph name="uni0302" format="1">
  <advance width="324"/>
  <unicode hex="0302"/>
  <outline>
    <contour>
      <point x="161" y="561" type="line"/>
      <point x="268" y="479" type="line"/>
      <point x="299" y="507" type="line"/>
      <point x="187" y="639" type="line"/>
      <point x="137" y="639" type="line"/>
      <point x="25" y="507" type="line"/>
      <point x="56" y="479" type="line"/>
    </contour>
    <contour>
      <point x="162" y="441" type="move" name="_top"/>
    </contour>
  </outline>
</glyph>
<glyph name="tildecomb" format="1">
  <advance width="405"/>
  <unicode hex="0303"/>
  <outline>
    <contour>
      <point x="328" y="487"/>
      <point x="359" y="544"/>
      <point x="360" y="607" type="curve"/>
      <point x="304" y="612" type="line"/>
      <point x="301" y="572"/>
      <point x="293" y="542"/>
      <point x="268" y="542" type="curve" smooth="yes"/>
      <point x="253" y="542"/>
      <point x="241" y="555"/>
      <point x="222" y="577" type="curve"/>
      <point x="200" y="600"/>
      <point x="177" y="623"/>
      <point x="137" y="623" type="curve" smooth="yes"/>
      <point x="77" y="623"/>
      <point x="46" y="566"/>
      <point x="45" y="503" type="curve"/>
      <point x="101" y="498" type="line"/>
      <point x="104" y="538"/>
      <point x="112" y="568"/>
      <point x="137" y="568" type="curve" smooth="yes"/>
      <point x="152" y="568"/>
      <point x="164" y="555"/>
      <point x="183" y="533" type="curve"/>
      <point x="205" y="510"/>
      <point x="228" y="487"/>
      <point x="268" y="487" type="curve" smooth="yes"/>
    </contour>
    <contour>
      <point x="211" y="391" type="move" name="_top"/>
    </contour>
  </outline>
</glyph>
<glyph name="uni0304" format="1">
  <advance width="407"/>
  <unicode hex="0304"/>
  <outline>
    <contour>
      <point x="45" y="617" type="line"/>
      <point x="45" y="544" type="line"/>
      <point x="362" y="543" type="line"/>
      <point x="362" y="616" type="line"/>
    </contour>
    <contour>
      <point x="208" y="441" type="move" name="_top"/>
    </contour>
  </outline>
</glyph>
<glyph name="uni0306" format="1">
  <advance width="364"/>
  <unicode hex="0306"/>
  <outline>
    <contour>
      <point x="260" y="484"/>
      <point x="314" y="545"/>
      <point x="319" y="615" type="curve"/>
      <point x="267" y="626" type="line"/>
      <point x="259" y="585"/>
      <point x="225" y="558"/>
      <point x="182" y="558" type="curve"/>
      <point x="139" y="558"/>
      <point x="105" y="585"/>
      <point x="97" y="626" type="curve"/>
      <point x="45" y="615" type="line"/>
      <point x="50" y="545"/>
      <point x="106" y="484"/>
      <point x="182" y="484" type="curve"/>
    </contour>
    <contour>
      <point x="182" y="421" type="move" name="_top"/>
    </contour>
  </outline>
</glyph>
<glyph name="uni0307" format="1">
  <advance width="236"/>
  <unicode hex="0307"/>
  <outline>
    <contour>
      <point x="158" y="422"/>
      <point x="186" y="445"/>
      <point x="186" y="475" type="curve"/>
      <point x="186" y="507"/>
      <point x="158" y="530"/>
      <point x="118" y="530" type="curve"/>
      <point x="80" y="530"/>
      <point x="50" y="507"/>
      <point x="50" y="475" type="curve"/>
      <point x="50" y="445"/>
      <point x="80" y="422"/>
      <point x="118" y="422" type="curve"/>
    </contour>
    <contour>
      <point x="117" y="357" type="move" name="_top"/>
    </contour>
  </outline>
</glyph>
<glyph name="uni0308" format="1">
  <advance width="429"/>
  <unicode hex="0308"/>
  <outline>
    <contour>
      <point x="334" y="516"/>
      <point x="359" y="537"/>
      <point x="359" y="564" type="curve"/>
      <point x="359" y="593"/>
      <point x="334" y="614"/>
      <point x="301" y="614" type="curve"/>
      <point x="270" y="614"/>
      <point x="243" y="593"/>
      <point x="243" y="564" type="curve"/>
      <point x="243" y="537"/>
      <point x="270" y="516"/>
      <point x="301" y="516" type="curve"/>
    </contour>
    <contour>
      <point x="161" y="516"/>
      <point x="186" y="537"/>
      <point x="186" y="564" type="curve"/>
      <point x="186" y="593"/>
      <point x="161" y="614"/>
      <point x="128" y="614" type="curve"/>
      <point x="97" y="614"/>
      <point x="70" y="593"/>
      <point x="70" y="564" type="curve"/>
      <point x="70" y="537"/>
      <point x="97" y="516"/>
      <point x="128" y="516" type="curve"/>
    </contour>
    <contour>
      <point x="217" y="443" type="move" name="_top"/>
    </contour>
  </outline>
</glyph>
<glyph name="hookabovecomb" format="1">
  <advance width="258"/>
  <unicode hex="0309"/>
  <outline>
    <contour>
      <point x="168" y="471" type="line"/>
      <point x="191" y="497"/>
      <point x="213" y="523"/>
      <point x="213" y="561" type="curve" smooth="yes"/>
      <point x="213" y="603"/>
      <point x="172" y="630"/>
      <point x="126" y="630" type="curve" smooth="yes"/>
      <point x="95" y="630"/>
      <point x="69" y="622"/>
      <point x="45" y="609" type="curve"/>
      <point x="65" y="556" type="line"/>
      <point x="82" y="566"/>
      <point x="98" y="572"/>
      <point x="117" y="572" type="curve" smooth="yes"/>
      <point x="137" y="572"/>
      <point x="153" y="561"/>
      <point x="153" y="540" type="curve" smooth="yes"/>
      <point x="153" y="521"/>
      <point x="145" y="503"/>
      <point x="133" y="484" type="curve"/>
    </contour>
    <contour>
      <point x="105" y="449" type="move" name="_hook"/>
    </contour>
  </outline>
</glyph>
<glyph name="uni030A" format="1">
  <advance width="308"/>
  <unicode hex="030A"/>
  <outline>
    <contour>
      <point x="212" y="473"/>
      <point x="263" y="515"/>
      <point x="263" y="578" type="curve"/>
      <point x="263" y="638"/>
      <point x="212" y="684"/>
      <point x="154" y="684" type="curve"/>
      <point x="96" y="684"/>
      <point x="45" y="642"/>
      <point x="45" y="579" type="curve"/>
      <point x="45" y="519"/>
      <point x="96" y="473"/>
      <point x="154" y="473" type="curve"/>
    </contour>
    <contour>
      <point x="125" y="523"/>
      <point x="99" y="548"/>
      <point x="99" y="579" type="curve"/>
      <point x="99" y="611"/>
      <point x="125" y="634"/>
      <point x="154" y="634" type="curve"/>
      <point x="183" y="634"/>
      <point x="209" y="609"/>
      <point x="209" y="578" type="curve"/>
      <point x="209" y="546"/>
      <point x="183" y="523"/>
      <point x="154" y="523" type="curve"/>
    </contour>
    <contour>
      <point x="154" y="391" type="move" name="_top"/>
    </contour>
  </outline>
</glyph>
<glyph name="uni030B" format="1">
  <advance width="464"/>
  <unicode hex="030B"/>
  <outline>
    <contour>
      <point x="419" y="639" type="line"/>
      <point x="352" y="696" type="line"/>
      <point x="241" y="536" type="line"/>
      <point x="288" y="495" type="line"/>
    </contour>
    <contour>
      <point x="223" y="639" type="line"/>
      <point x="156" y="696" type="line"/>
      <point x="45" y="536" type="line"/>
      <point x="92" y="495" type="line"/>
    </contour>
    <contour>
      <point x="211" y="421" type="move" name="_top"/>
    </contour>
  </outline>
</glyph>
<glyph name="uni030C" format="1">
  <advance width="324"/>
  <unicode hex="030C"/>
  <outline>
    <contour>
      <point x="163" y="557" type="line"/>
      <point x="56" y="639" type="line"/>
      <point x="25" y="611" type="line"/>
      <point x="137" y="479" type="line"/>
      <point x="187" y="479" type="line"/>
      <point x="299" y="611" type="line"/>
      <point x="268" y="639" type="line"/>
    </contour>
    <contour>
      <point x="162" y="411" type="move" name="_top"/>
    </contour>
  </outline>
</glyph>
<glyph name="uni0312" format="1">
  <advance width="215"/>
  <unicode hex="0312"/>
  <outline>
    <contour>
      <point x="45" y="495"/>
      <point x="74" y="469"/>
      <point x="110" y="469" type="curve" smooth="yes"/>
      <point x="143" y="469"/>
      <point x="170" y="489"/>
      <point x="170" y="516" type="curve" smooth="yes"/>
      <point x="170" y="542"/>
      <point x="148" y="559"/>
      <point x="120" y="559" type="curve" smooth="yes"/>
      <point x="109" y="559"/>
      <point x="100" y="558"/>
      <point x="92" y="554" type="curve"/>
      <point x="92" y="573"/>
      <point x="109" y="608"/>
      <point x="146" y="641" type="curve"/>
      <point x="124" y="664" type="line"/>
      <point x="80" y="630"/>
      <point x="45" y="582"/>
      <point x="45" y="540" type="curve" smooth="yes"/>
    </contour>
    <contour>
      <point x="110" y="393" type="move" name="_top"/>
    </contour>
  </outline>
</glyph>
<glyph name="uni0326" format="1">
  <advance width="231"/>
  <unicode hex="0326"/>
  <outline>
    <contour>
      <point x="179" y="-110"/>
      <point x="150" y="-84"/>
      <point x="114" y="-84" type="curve" smooth="yes"/>
      <point x="81" y="-84"/>
      <point x="54" y="-104"/>
      <point x="54" y="-131" type="curve" smooth="yes"/>
      <point x="54" y="-157"/>
      <point x="76" y="-174"/>
      <point x="104" y="-174" type="curve" smooth="yes"/>
      <point x="115" y="-174"/>
      <point x="124" y="-173"/>
      <point x="132" y="-169" type="curve"/>
      <point x="132" y="-188"/>
      <point x="115" y="-223"/>
      <point x="78" y="-256" type="curve"/>
      <point x="100" y="-279" type="line"/>
      <point x="144" y="-245"/>
      <point x="179" y="-197"/>
      <point x="179" y="-155" type="curve" smooth="yes"/>
    </contour>
    <contour>
      <point x="107" y="0" type="move" name="_bottom"/>
    </contour>
  </outline>
</glyph>
